<svg width="38" height="11" viewBox="0 0 38 11" fill="none" xmlns="http://www.w3.org/2000/svg">
<path d="M8.33946 0.731445H1.99541C1.16923 0.731445 0.5 1.40685 0.5 2.2392V8.63703C0.5 9.46939 1.16923 10.1448 1.99541 10.1448H8.33946C9.16564 10.1448 9.83399 9.46939 9.83399 8.63703V2.2392C9.83487 1.40597 9.16564 0.731445 8.33946 0.731445Z" fill="#1677FF"/>
<path d="M8.18538 6.64296C7.81241 6.51687 7.3107 6.32378 6.75257 6.1201C7.08763 5.53198 7.35567 4.86275 7.53202 4.13532H5.69185V3.46697H7.94555V3.094H5.69185V1.97949H4.7722C4.61085 1.97949 4.61085 2.13997 4.61085 2.13997V3.09312H2.33157V3.46609H4.61085V4.13444H2.72835V4.50741H6.37872C6.24557 4.9712 6.0657 5.40766 5.8532 5.80356C4.66904 5.40942 3.40464 5.09024 2.61108 5.28686C2.10321 5.41295 1.77609 5.63779 1.58387 5.87409C0.702139 6.95598 1.33434 8.59952 3.19655 8.59952C4.29783 8.59952 5.35855 7.98055 6.18033 6.96038C7.40681 7.55467 9.83421 8.57571 9.83421 8.57571V7.12086C9.83509 7.12086 9.53002 7.09617 8.18538 6.64296ZM3.02285 7.97085C1.57064 7.97085 1.14124 6.81754 1.85897 6.18623C2.0988 5.97285 2.53614 5.8688 2.76891 5.84588C3.63124 5.76035 4.43009 6.09188 5.37266 6.55567C4.71048 7.42682 3.86667 7.97085 3.02285 7.97085Z" fill="white"/>
<path d="M20.7686 2.10964C20.7686 2.59635 21.1248 2.92436 21.6212 2.92436C22.1176 2.92436 22.4738 2.59635 22.4738 2.10964C22.4738 1.63174 22.1176 1.29492 21.6212 1.29492C21.1248 1.29492 20.7686 1.63174 20.7686 2.10964Z" fill="#1677FF"/>
<path d="M19.8692 1.5H18.3896V8.33693H19.8692V1.5Z" fill="black"/>
<path d="M15.7953 1.73438H13.8096L11.5903 8.33765H12.9579L13.3326 7.04504H15.6833L16.0395 8.33765H17.7907L15.7953 1.73438ZM13.6412 5.96756L14.5212 2.92383H14.5582L15.3915 5.96756H13.6412Z" fill="black"/>
<path d="M22.3609 3.31738H20.8813V8.33795H22.3609V3.31738Z" fill="black"/>
<path d="M37.8244 3.32708L37.8333 3.31738H36.4384L35.5575 6.37081H35.5108L34.4994 3.31738H32.8418L34.8363 8.35647L34.003 9.89244V9.92947H35.3045L37.8244 3.32708Z" fill="black"/>
<path d="M26.0422 3.21484C25.499 3.21484 25.0776 3.42117 24.5997 3.81442V3.31801H23.1201V9.9301H24.5997V8.29096C24.8809 8.36591 25.1428 8.40383 25.4611 8.40383C26.7819 8.40383 27.9714 7.42951 27.9714 5.69691C27.9714 4.14242 27.1099 3.21484 26.0422 3.21484ZM25.1049 7.47624C24.9365 7.47624 24.7769 7.45773 24.5988 7.4013V4.68557C24.9083 4.47043 25.1604 4.36727 25.4787 4.36727C26.0316 4.36727 26.4716 4.80725 26.4716 5.74453C26.4725 6.9428 25.8261 7.47624 25.1049 7.47624Z" fill="black"/>
<path d="M32.551 7.08299V4.98536C32.551 3.84263 31.8765 3.21484 30.687 3.21484C29.9279 3.21484 29.4041 3.34622 28.4483 3.63631L28.7102 4.78873C29.5814 4.39548 29.9649 4.22707 30.3679 4.22707C30.8546 4.22707 31.0706 4.57359 31.0706 5.10792V5.14495C29.375 5.46326 28.8504 5.64136 28.5233 5.96937C28.2799 6.21272 28.1768 6.55925 28.1768 6.9622C28.1768 7.92681 28.9262 8.44174 29.6281 8.44174C30.1527 8.44174 30.5742 8.24511 31.1455 7.81395L31.2487 8.33858H32.7283L32.551 7.08299ZM31.0715 7.12091C30.6782 7.33605 30.4534 7.4207 30.1915 7.4207C29.8353 7.4207 29.6105 7.18615 29.6105 6.8123C29.6105 6.67211 29.6387 6.53103 29.7507 6.41905C29.9288 6.24094 30.2753 6.10956 31.0715 5.92264V7.12091Z" fill="black"/>
</svg>
