<svg width="36" height="44" viewBox="0 0 36 44" fill="none" xmlns="http://www.w3.org/2000/svg">
<path fill-rule="evenodd" clip-rule="evenodd" d="M10.9414 26.4949C10.9414 25.3748 10.9414 24.8148 11.1594 24.3869C11.3511 24.0106 11.6571 23.7047 12.0334 23.5129C12.4612 23.2949 13.0213 23.2949 14.1414 23.2949H21.8591C22.9792 23.2949 23.5392 23.2949 23.967 23.5129C24.3434 23.7047 24.6493 24.0106 24.8411 24.3869C25.0591 24.8148 25.0591 25.3748 25.0591 26.4949V37.8819C25.0591 39.5964 25.0591 40.4536 24.698 40.9698C24.3827 41.4206 23.8956 41.7217 23.3514 41.8021C22.7281 41.8942 21.9614 41.5108 20.428 40.7441L19.4313 40.2458C18.9066 39.9834 18.6442 39.8522 18.369 39.8006C18.1253 39.7549 17.8752 39.7549 17.6314 39.8006C17.3562 39.8522 17.0939 39.9834 16.5691 40.2458L15.5725 40.7441C14.0391 41.5108 13.2723 41.8942 12.6491 41.8021C12.1049 41.7217 11.6178 41.4206 11.3025 40.9698C10.9414 40.4536 10.9414 39.5964 10.9414 37.8819L10.9414 26.4949Z" fill="#336DFF"/>
<path fill-rule="evenodd" clip-rule="evenodd" d="M19.5999 34.077C18.5964 33.5582 17.4036 33.5582 16.4001 34.077C14.8497 34.8786 12.9456 34.4092 11.9453 32.979C11.2978 32.0533 10.2417 31.4989 9.11195 31.492C7.36672 31.4812 5.89877 30.1807 5.67773 28.4495C5.53465 27.3289 4.85705 26.3472 3.85999 25.8161C2.31966 24.9955 1.62423 23.1618 2.23303 21.5261C2.62712 20.4674 2.48334 19.2833 1.84733 18.3496C0.864781 16.9072 1.10117 14.9603 2.40036 13.795C3.24134 13.0406 3.66431 11.9253 3.53506 10.803C3.33537 9.06923 4.44944 7.45523 6.14138 7.02712C7.23659 6.75001 8.12942 5.95903 8.53652 4.90521C9.16545 3.27721 10.902 2.36581 12.5991 2.77302C13.6976 3.03662 14.8558 2.75116 15.706 2.00724C17.0194 0.857993 18.9806 0.857993 20.294 2.00724C21.1442 2.75116 22.3024 3.03662 23.4009 2.77302C25.098 2.36581 26.8346 3.27721 27.4635 4.90521C27.8706 5.95903 28.7634 6.75001 29.8586 7.02712C31.5506 7.45523 32.6646 9.06923 32.4649 10.803C32.3357 11.9253 32.7587 13.0406 33.5996 13.795C34.8988 14.9603 35.1352 16.9072 34.1527 18.3496C33.5167 19.2833 33.3729 20.4674 33.767 21.5261C34.3758 23.1618 33.6803 24.9955 32.14 25.8161C31.143 26.3472 30.4654 27.3289 30.3223 28.4495C30.1012 30.1807 28.6333 31.4812 26.888 31.492C25.7583 31.4989 24.7022 32.0533 24.0547 32.979C23.0544 34.4092 21.1503 34.8786 19.5999 34.077Z" fill="#0030A6"/>
<circle cx="17.9998" cy="18.0008" r="12.7059" fill="#336DFF"/>
<path d="M22.7041 13.3989C23.1939 12.9273 23.9734 12.942 24.4451 13.4318C24.9168 13.9217 24.9021 14.7011 24.4122 15.1728L17.3183 22.004C16.5333 22.76 15.2875 22.7482 14.5168 21.9775L12.1324 19.5931C11.6515 19.1122 11.6515 18.3326 12.1324 17.8518C12.6132 17.3709 13.3928 17.3709 13.8737 17.8517L15.937 19.9149L22.7041 13.3989Z" fill="white"/>
</svg>
