<svg width="21" height="16" viewBox="0 0 21 16" fill="none" xmlns="http://www.w3.org/2000/svg">
<path d="M17.4225 1.8525C16.1558 1.28121 14.7844 0.866568 13.3557 0.626996C13.3432 0.626608 13.3308 0.628882 13.3192 0.633658C13.3077 0.638434 13.2974 0.645596 13.2891 0.654639C13.1176 0.958711 12.9176 1.35493 12.7843 1.659C11.269 1.43786 9.72802 1.43786 8.21274 1.659C8.07941 1.34571 7.8794 0.958711 7.69845 0.654639C7.68892 0.63621 7.66035 0.626996 7.63178 0.626996C6.20317 0.866568 4.84123 1.28121 3.565 1.8525C3.55548 1.8525 3.54595 1.86171 3.53643 1.87093C0.945882 5.62115 0.231578 9.27002 0.583968 12.882C0.583968 12.9005 0.593492 12.9189 0.61254 12.9281C2.32687 14.1444 3.97454 14.8815 5.60316 15.3699C5.63173 15.3791 5.6603 15.3699 5.66982 15.3515C6.05078 14.8447 6.39365 14.3102 6.6889 13.7482C6.70794 13.7113 6.6889 13.6745 6.6508 13.6652C6.10793 13.4625 5.59363 13.223 5.08885 12.9465C5.05075 12.9281 5.05076 12.8728 5.07933 12.8452C5.18409 12.7715 5.28886 12.6885 5.39362 12.6148C5.41267 12.5964 5.44124 12.5964 5.46029 12.6056C8.73657 14.0522 12.27 14.0522 15.5082 12.6056C15.5272 12.5964 15.5558 12.5964 15.5749 12.6148C15.6796 12.6977 15.7844 12.7715 15.8892 12.8544C15.9272 12.882 15.9272 12.9373 15.8796 12.9557C15.3844 13.2414 14.8606 13.4717 14.3177 13.6745C14.2796 13.6837 14.2701 13.7297 14.2796 13.7574C14.5843 14.3195 14.9272 14.8539 15.2987 15.3607C15.3272 15.3699 15.3558 15.3791 15.3844 15.3699C17.0225 14.8815 18.6702 14.1444 20.3845 12.9281C20.4036 12.9189 20.4131 12.9005 20.4131 12.882C20.8321 8.70794 19.7178 5.08672 17.4606 1.87093C17.4511 1.86171 17.4416 1.8525 17.4225 1.8525ZM7.18415 10.6798C6.20317 10.6798 5.3841 9.80445 5.3841 8.72638C5.3841 7.6483 6.18412 6.77294 7.18415 6.77294C8.1937 6.77294 8.99372 7.65752 8.9842 8.72638C8.9842 9.80445 8.18418 10.6798 7.18415 10.6798ZM13.8224 10.6798C12.8414 10.6798 12.0224 9.80445 12.0224 8.72638C12.0224 7.6483 12.8224 6.77294 13.8224 6.77294C14.832 6.77294 15.632 7.65752 15.6225 8.72638C15.6225 9.80445 14.832 10.6798 13.8224 10.6798Z" fill="#0158E0"/>
</svg>
