<svg width="26" height="27" viewBox="0 0 26 27" fill="none" xmlns="http://www.w3.org/2000/svg">
<rect y="0.5" width="26" height="26" rx="6" fill="#697FC9"/>
<path d="M20.1468 8.27333C18.8395 7.15333 17.2706 6.59333 15.6147 6.5L15.3532 6.78C16.8349 7.15333 18.1422 7.9 19.3624 8.92667C17.8807 8.08667 16.2248 7.52667 14.4817 7.34C13.9587 7.24667 13.5229 7.24667 13 7.24667C12.4771 7.24667 12.0413 7.24667 11.5183 7.34C9.77523 7.52667 8.11927 8.08667 6.63761 8.92667C7.8578 7.9 9.16514 7.15333 10.6468 6.78L10.3853 6.5C8.72936 6.59333 7.16055 7.15333 5.85321 8.27333C4.37156 11.26 3.58716 14.62 3.5 18.0733C4.80734 19.5667 6.63761 20.5 8.55505 20.5C8.55505 20.5 9.16514 19.7533 9.60092 19.1C8.46789 18.82 7.42202 18.1667 6.72477 17.14C7.33486 17.5133 7.94495 17.8867 8.55505 18.1667C9.33945 18.54 10.1239 18.7267 10.9083 18.9133C11.6055 19.0067 12.3028 19.1 13 19.1C13.6972 19.1 14.3945 19.0067 15.0917 18.9133C15.8761 18.7267 16.6606 18.54 17.445 18.1667C18.055 17.8867 18.6651 17.5133 19.2752 17.14C18.578 18.1667 17.5321 18.82 16.3991 19.1C16.8349 19.7533 17.445 20.5 17.445 20.5C19.3624 20.5 21.1927 19.5667 22.5 18.0733C22.4128 14.62 21.6284 11.26 20.1468 8.27333ZM10.1239 16.3933C9.25229 16.3933 8.46789 15.5533 8.46789 14.5267C8.46789 13.5 9.25229 12.66 10.1239 12.66C10.9954 12.66 11.7798 13.5 11.7798 14.5267C11.7798 15.5533 10.9954 16.3933 10.1239 16.3933ZM15.8761 16.3933C15.0046 16.3933 14.2202 15.5533 14.2202 14.5267C14.2202 13.5 15.0046 12.66 15.8761 12.66C16.7477 12.66 17.5321 13.5 17.5321 14.5267C17.5321 15.5533 16.7477 16.3933 15.8761 16.3933Z" fill="white"/>
</svg>
