<svg width="26" height="27" viewBox="0 0 26 27" fill="none" xmlns="http://www.w3.org/2000/svg">
<rect y="0.5" width="26" height="26" rx="6" fill="#1FDF63"/>
<path fill-rule="evenodd" clip-rule="evenodd" d="M10.7305 20.2663C10.8256 20.4446 10.9208 20.6137 11.0149 20.7733C11.104 20.9244 10.9709 21.1101 10.8024 21.0612C9.23506 20.6066 7.86933 19.6779 6.8706 18.4406C6.79573 18.3479 6.82399 18.2109 6.92893 18.1544C7.58107 17.803 8.38118 17.449 9.31935 17.1726C9.42496 17.1415 9.53452 17.2053 9.56322 17.3116C9.87772 18.4764 10.3037 19.466 10.7305 20.2663ZM12.1197 19.5254C11.7542 18.84 11.3879 17.9953 11.1109 17.002C11.0796 16.8895 11.1548 16.7757 11.2706 16.7605C11.8156 16.689 12.3923 16.6485 12.9997 16.6485C13.6069 16.6485 14.1836 16.689 14.7284 16.7604C14.8443 16.7756 14.9195 16.8894 14.8881 17.0019C14.6112 17.9953 14.2449 18.84 13.8794 19.5254C13.6271 19.9984 13.3755 20.3948 13.1547 20.7106C13.079 20.8189 12.9201 20.8189 12.8444 20.7106C12.6236 20.3948 12.372 19.9984 12.1197 19.5254ZM10.6378 13.4995C10.6378 14.0392 10.6698 14.5546 10.727 15.045C10.7398 15.1543 10.8412 15.2301 10.9502 15.2149C11.5942 15.1252 12.2779 15.074 12.9997 15.074C13.7213 15.074 14.4049 15.1251 15.0488 15.2149C15.1579 15.2301 15.2593 15.1543 15.272 15.045C15.3293 14.5545 15.3612 14.0391 15.3612 13.4995C15.3612 12.9599 15.3293 12.4445 15.272 11.9541C15.2593 11.8448 15.1579 11.769 15.0489 11.7842C14.405 11.8739 13.7213 11.9251 12.9997 11.9251C12.2779 11.9251 11.5942 11.8739 10.9502 11.7842C10.8412 11.769 10.7398 11.8448 10.727 11.9541C10.6698 12.4445 10.6378 12.9599 10.6378 13.4995ZM9.03942 11.3844C9.13491 11.4113 9.19652 11.5043 9.18387 11.6026C9.10684 12.2018 9.06337 12.8345 9.06337 13.4995C9.06337 14.1646 9.10684 14.7973 9.18387 15.3964C9.19652 15.4948 9.13491 15.5878 9.03942 15.6147C7.86968 15.9441 6.88183 16.384 6.09062 16.8181C5.99096 16.8727 5.86518 16.8337 5.81849 16.7301C5.37435 15.7445 5.1272 14.6509 5.1272 13.4995C5.1272 12.3482 5.37435 11.2547 5.81848 10.269C5.86518 10.1653 5.99096 10.1263 6.09061 10.181C6.88176 10.615 7.86962 11.0549 9.03942 11.3844ZM11.111 9.99711C11.0796 10.1096 11.1548 10.2234 11.2706 10.2386C11.8156 10.3101 12.3923 10.3506 12.9997 10.3506C13.6069 10.3506 14.1836 10.3101 14.7285 10.2386C14.8443 10.2234 14.9195 10.1096 14.8881 9.99713C14.6112 9.00381 14.2449 8.15908 13.8794 7.47374C13.6271 7.00066 13.3755 6.60426 13.1547 6.2885C13.0789 6.1802 12.9201 6.1802 12.8444 6.2885C12.6236 6.60426 12.372 7.00066 12.1197 7.47372C11.7542 8.15906 11.3879 9.00379 11.111 9.99711ZM16.9596 11.3845C16.8642 11.4114 16.8025 11.5044 16.8152 11.6027C16.8922 12.2019 16.9357 12.8346 16.9357 13.4995C16.9357 14.1646 16.8922 14.7972 16.8152 15.3964C16.8025 15.4947 16.8641 15.5877 16.9596 15.6146C18.1294 15.9441 19.1173 16.384 19.9085 16.8181C20.0082 16.8727 20.1339 16.8337 20.1806 16.7301C20.6247 15.7444 20.8719 14.6508 20.8719 13.4995C20.8719 12.3483 20.6247 11.2547 20.1806 10.269C20.1339 10.1654 20.0082 10.1264 19.9085 10.1811C19.1173 10.615 18.1295 11.055 16.9596 11.3845ZM19.1285 8.55852C19.2033 8.65128 19.1751 8.78826 19.0701 8.8448C18.418 9.19618 17.6179 9.55015 16.6798 9.82653C16.5742 9.85765 16.4646 9.79388 16.4359 9.68759C16.1214 8.52275 15.6955 7.53303 15.2687 6.73282C15.1735 6.55442 15.0782 6.38536 14.9841 6.22578C14.895 6.07464 15.0282 5.88902 15.1967 5.9379C16.764 6.39252 18.1298 7.32122 19.1285 8.55852ZM9.56321 9.68755C9.53451 9.79385 9.42495 9.85761 9.31933 9.8265C8.38122 9.55011 7.58114 9.19614 6.92894 8.84475C6.824 8.78821 6.79574 8.65123 6.87062 8.55847C7.86937 7.32116 9.23518 6.39246 10.8025 5.93786C10.971 5.88899 11.1041 6.07455 11.015 6.22567C10.9209 6.38528 10.8256 6.55437 10.7305 6.73279C10.3037 7.53301 9.87773 8.52271 9.56321 9.68755ZM16.6798 17.1725C16.5742 17.1414 16.4646 17.2052 16.4359 17.3115C16.1214 18.4764 15.6955 19.466 15.2687 20.2663C15.1735 20.4446 15.0783 20.6137 14.9842 20.7733C14.895 20.9244 15.0282 21.1101 15.1967 21.0612C16.7641 20.6066 18.1298 19.6778 19.1286 18.4406C19.2034 18.3478 19.1752 18.2108 19.0702 18.1543C18.418 17.8029 17.618 17.449 16.6798 17.1725ZM12.9995 22.9464C18.2169 22.9464 22.4464 18.7169 22.4464 13.4995C22.4464 8.28222 18.2169 4.05273 12.9995 4.05273C7.78222 4.05273 3.55273 8.28222 3.55273 13.4995C3.55273 18.7169 7.78222 22.9464 12.9995 22.9464Z" fill="white"/>
</svg>
