<svg width="212" height="69" viewBox="0 0 212 69" fill="none" xmlns="http://www.w3.org/2000/svg">
<path d="M31.5409 37.5712C31.6677 37.7986 31.6994 37.8567 32.0376 37.8567C32.2545 37.8567 32.5981 37.6583 33.0316 37.2614C33.6818 36.6662 35.1356 35.9256 36.5892 35.4466C37.6149 35.132 37.768 35.0787 37.768 34.7641C37.768 34.5948 37.583 34.3963 37.2394 34.1737L35.8808 33.3507L35.4156 33.012L34.3902 32.1602C34.4535 27.4897 34.5488 23.8357 34.7021 21.1738C35.0138 17.8004 35.7855 15.1723 37.0227 13.338C37.2394 13.0816 37.398 12.7185 37.3028 12.6896H33.5231H29.8386C29.8386 12.8881 29.9602 13.1107 30.177 13.3671C31.4827 15.1434 32.3179 17.7472 32.7195 21.2029C32.873 23.6082 32.9046 26.1589 32.8147 28.8208C32.783 29.2128 32.783 29.4692 32.7514 29.5855C32.7195 29.6967 32.6563 29.6677 32.503 29.5274C32.3495 29.3871 32.0376 28.932 31.5724 28.2254C31.0173 27.3445 29.8069 25.6167 27.9514 23.013C26.1223 20.38 24.7267 18.3425 23.7646 16.8663C22.8659 15.4822 22.6492 14.3254 23.1778 13.4204C23.3944 13.0816 23.458 12.8881 23.3944 12.8008C23.3313 12.7717 23.2414 12.7429 23.1144 12.7429H12.801C12.674 12.7429 12.616 12.8299 12.616 12.9702C12.616 13.1107 12.8641 13.2801 13.3559 13.5074C13.8845 13.7591 14.5982 14.3545 15.4969 15.2886L15.4653 19.9542C15.4653 21.4544 15.4653 22.6161 15.4334 23.4921L15.2484 27.0639C15.1533 28.5641 14.9998 29.9775 14.8149 31.2842C14.6881 32.0199 14.2546 33.012 13.8213 33.8879C13.5462 34.4254 13.1393 35.1899 12.9224 35.5577C12.4891 36.0417 12.4574 36.3805 12.674 36.4386H16.422H20.0167C20.4185 36.4386 20.3603 36.2693 20.1117 36.0417C19.9584 35.8965 19.7366 35.5868 19.4298 35.132C19.1179 34.6527 18.8696 34.2558 18.6844 33.917C18.0343 32.6441 17.569 30.9164 17.3524 28.7917C17.3205 28.4238 17.2625 27.543 17.2308 26.1298C17.1038 20.4381 17.1038 17.4326 17.2308 17.1229C17.3205 16.9244 17.3524 16.9244 17.511 17.1229C17.6009 17.205 17.8176 17.5196 18.1877 18.028C18.5945 18.5119 18.843 18.8797 18.9649 19.0782L22.8659 24.4841C24.9435 27.3736 26.6455 29.8082 27.9514 31.7633C29.2518 33.7186 30.457 35.645 31.5409 37.5712ZM48.2954 36.7823C50.5845 36.9226 52.7834 36.8114 55.104 36.2693C56.468 35.9305 57.208 35.732 58.292 35.1608C58.8469 34.8753 59.275 34.5657 59.5816 34.1978C60.2001 33.4863 60.6599 32.2958 60.5385 30.8195C60.5066 29.5999 60.1686 26.5363 59.46 21.6287C59.3067 20.4914 59.2487 19.3588 59.275 18.1973C59.3384 17.0309 59.4919 16.1259 59.74 15.4725C60.0151 14.6787 60.385 13.9963 60.8449 13.4591L60.9085 13.4009C61.0035 13.2606 61.0934 13.1736 61.1253 13.1445C61.342 12.859 61.342 12.7185 61.0617 12.7185H57.52H53.5288C53.3119 12.7185 53.5551 13.0042 54.2055 13.5705C55.0141 14.2527 55.5695 15.1047 56.1877 16.8034C56.3727 17.2874 56.5896 17.9989 56.8381 18.933C57.0867 19.8669 57.2716 20.7189 57.3613 21.4302C57.7683 23.8695 58.1385 26.5363 58.445 29.4016C58.6619 31.1632 58.387 32.436 57.578 33.2588C56.8062 34.0284 55.4742 34.5366 53.5871 34.8512C52.2285 35.0496 50.8646 35.0496 49.506 34.8221C48.1737 34.5657 47.1534 33.9994 46.4716 33.1185C45.8214 32.2087 45.7578 30.9358 46.0381 28.8062C46.1913 27.7269 46.2549 27.1026 46.2549 26.9333L46.6249 23.8695L47.18 19.7266C47.3703 18.5942 47.6135 17.5149 47.8935 16.4646C48.1104 15.5837 48.359 14.819 48.639 14.0545C48.7289 13.9092 48.9455 13.7108 49.3157 13.4009C49.8759 12.946 50.0609 12.7185 49.8442 12.7185H45.3879H40.9949C40.8419 12.7185 40.9315 12.859 41.2118 13.1154C41.7986 13.6575 42.1105 13.9963 42.1422 14.1077C42.3272 14.3932 42.3854 15.9516 42.2636 17.118C42.1422 18.5361 42.0152 19.6443 41.8936 20.5493L40.8099 28.7771C40.7783 30.2823 40.5297 31.5601 41.0268 32.9491C41.3068 33.6557 41.7087 34.2558 42.2955 34.7641C43.194 35.5868 44.9544 36.1869 46.1014 36.4145C46.6882 36.5257 47.3966 36.642 48.2954 36.7823ZM94.9492 36.4386C95.4778 36.4386 95.5097 36.4386 95.5097 36.1241C95.5097 35.8965 95.4144 35.7853 95.1661 35.6692C94.8383 35.4707 94.2515 34.8174 94.003 34.2802C93.913 34.0526 93.6964 33.2541 93.4162 31.8892C93.1359 30.5002 92.8559 28.9951 92.581 27.3445C91.8039 22.7709 91.2488 19.2185 90.9052 16.7501C90.7202 15.9274 90.8153 14.3932 91.0321 13.9963C91.1537 13.7399 91.4021 13.5123 91.7405 13.2559C92.0205 13.0574 92.2055 12.9169 92.2374 12.8299C92.2691 12.7476 92.174 12.6896 91.9309 12.7185H87.3473H83.1078C83.0764 12.7476 83.2031 13.1154 83.7582 13.3138C84.0383 13.5123 84.4084 13.9381 84.4084 14.1656C84.4084 14.4802 84.0066 15.7531 83.2031 17.9989C83.0496 18.4247 82.6746 19.4749 82.3997 20.3849L81.9925 21.5513L81.5906 22.7127C81.374 23.4824 81.0358 24.276 80.6922 25.0457C80.5389 25.0746 80.0734 24.1358 79.2383 22.2337C79.1433 22.0352 78.805 21.2076 78.5882 20.8398C78.4349 20.414 78.0596 19.5331 77.811 18.9909C77.3351 17.7035 76.6852 16.2566 76.4366 15.0369C76.3467 14.2722 76.5002 13.8752 77.1185 13.2848C77.3351 13.0863 77.4621 12.8008 77.3987 12.7429H72.6624H68.1107C68.021 12.7429 67.9891 12.7717 67.9891 12.8299C67.9891 13.0574 68.206 13.338 68.671 13.6526C69.0411 13.9043 69.4746 14.3013 69.6277 14.5286C69.8129 14.7561 69.9082 15.066 69.8763 15.4627C69.8446 15.8596 69.6913 17.0211 69.3477 18.9232C69.1944 19.8864 69.0411 20.68 68.9459 21.3336C68.7609 22.4999 68.5443 23.6614 68.2957 24.7987C68.206 25.2247 68.0788 25.8201 68.0525 26.1589C68.021 26.5847 67.7725 27.6108 67.3706 29.2853C66.6886 32.0635 65.8218 34.1397 64.8014 35.5287C64.4262 36.0659 64.2729 36.4096 64.6165 36.4386H68.2375H71.9486C71.8589 36.1241 71.7634 35.8676 71.642 35.7271C71.5153 35.5868 71.2984 35.2141 71.0235 34.5898C70.7431 33.9656 70.5581 33.4863 70.4631 33.1717C70.1882 32.0391 69.9713 30.1615 70.0615 28.6852C70.1565 26.7831 70.3098 24.9101 70.5581 23.0663C70.648 22.6402 70.775 21.59 70.8966 20.68C71.1768 18.5553 71.3618 17.5053 71.4571 17.5053C71.5153 17.5053 72.012 18.5797 72.9424 20.7673L74.6445 24.6293L76.3784 28.4867C77.087 30.1614 78.0805 32.2618 78.9476 34.2802C79.2227 34.5075 79.5663 34.2511 79.6877 33.7139C80.2481 32.2087 81.115 29.6531 82.2569 25.9895C83.4358 22.316 84.271 19.7606 84.7944 18.3134C85.0111 17.631 85.2594 16.9777 85.3547 16.8904C85.4444 16.8904 85.5713 17.4326 85.9729 19.7025C86.0947 20.5252 86.2215 21.3237 86.2851 21.4351C86.4383 22.2579 86.8719 24.9876 87.6119 29.6484C87.9555 32.2618 88.0771 33.796 88.0136 34.222C87.9236 34.8174 87.5537 35.3304 86.9033 35.698C86.4064 36.0126 86.7449 36.4096 86.8083 36.4386H94.9492ZM117.709 37.1694C117.926 37.2566 118.174 37.2855 118.391 37.2567C118.454 37.2567 118.518 37.2566 118.576 37.2276C118.703 37.1985 118.824 37 118.92 36.6031C119.073 36.0079 119.475 35.2723 119.691 34.8462L120.252 33.9074L120.749 33.1089L120.839 32.9686C121.584 31.8843 121.89 31.231 121.737 30.9745C121.489 30.6356 119.353 30.7761 118.333 31.0616C117.587 31.2648 114.521 32.707 113.591 33.1912C112.105 33.8736 109.69 34.5802 107.707 34.6963C105.942 34.8366 104.98 34.8075 104.89 34.6382V28.5109V23.6905L106.497 23.7438C108.204 23.8308 109.563 23.9469 110.588 24.1163C111.64 24.2859 112.724 24.5665 113.871 24.9925C114.892 25.278 115.79 25.8734 116.625 26.3862C116.81 26.4685 117.307 26.8073 118.084 27.3494C118.359 27.5188 118.549 27.6058 118.608 27.6058C118.888 27.6058 119.417 27.2042 119.417 26.9525C119.29 26.2992 118.238 25.2198 117.772 24.4553C117.307 23.7728 116.44 21.8321 116.255 20.3267C116.255 19.9589 115.975 19.7025 115.573 20.0171C114.521 20.8109 112.444 21.4931 110.187 21.6627C109.103 21.7788 107.522 21.8077 106.248 21.8609H104.89V17.8874V14.3932C105.011 14.306 105.693 14.2771 106.93 14.335C108.204 14.3932 109.161 14.4755 109.875 14.5917C111.054 14.819 112.756 15.4725 113.374 16.0386C113.961 16.5517 114.707 17.0356 115.541 17.4616C117.059 18.3958 120.532 18.7104 120.807 17.9407C120.839 17.8004 120.717 17.5149 120.405 17.118C120.156 16.8372 119.94 16.4646 119.85 16.3823C119.322 15.5547 118.856 14.7901 118.486 14.0495C118.116 13.3429 117.899 12.8299 117.804 12.5202C117.709 12.2636 117.619 12.0651 117.556 12.0072C117.492 11.9781 117.249 12.0361 116.842 12.2056C116.351 12.4621 115.79 12.5202 114.368 12.6023C113.718 12.6023 113.253 12.6024 112.169 12.6314H110.646C109.69 12.6314 107.924 12.6605 106.465 12.6896H102.072H99.223C98.8846 12.6896 98.6677 12.7185 98.6043 12.7767C98.4776 12.8881 98.6043 13.3429 98.9426 13.6817C99.2545 13.9963 99.4395 14.335 99.503 14.6496C99.5666 14.9595 99.593 15.758 99.593 17.0356V17.4035C99.6563 28.3851 99.6563 33.9897 99.593 34.2461C99.5347 34.5317 99.3181 34.9286 98.9109 35.4416C98.356 36.095 98.2926 36.3467 98.541 36.4337H99.593H102.226H105.815C110.028 36.4337 112.819 36.4628 114.178 36.521C115.573 36.6031 116.504 36.7194 116.969 36.9177L117.709 37.1694ZM138.444 22.0981C137.921 22.1854 136.679 22.2433 134.733 22.2966C132.783 22.3547 131.731 22.3547 131.604 22.2724V21.532V14.8917L132.904 14.945C134.575 15.032 135.843 15.1723 136.679 15.3175C137.947 15.4869 139.248 15.9952 139.961 16.5371C141.108 17.3601 141.632 18.2407 141.568 19.1749C141.415 20.7964 140.3 21.8175 138.444 22.0981ZM146.342 36.4386H147.272C148.292 36.4628 148.414 36.4628 148.414 36.1241C148.414 35.8676 148.107 35.5819 148.044 35.4998C147.922 35.3835 147.489 35.0447 147.114 34.701C146.342 33.7622 145.628 32.8571 144.856 31.8022C144.079 30.6938 143.646 30.1565 142.747 28.8158L141.759 27.3398L140.643 25.6604L139.56 23.9856C139.56 23.9615 139.93 23.9324 140.395 23.9324C142.562 23.9324 145.258 23.284 146.865 21.7594C147.579 21.106 148.012 20.4527 148.229 19.8282C148.414 19.1458 148.446 17.6988 148.261 17.1325C147.611 15.119 145.01 13.9043 143.334 13.3962C142.499 13.1396 141.817 12.9993 141.262 12.9169C140.707 12.8299 139.898 12.7717 138.814 12.7717C137.762 12.7476 135.537 12.7185 132.101 12.7476C128.665 12.7717 126.307 12.7717 124.975 12.7717C124.79 12.8881 124.821 13.4253 125.223 13.7349C125.44 13.9285 125.657 14.1851 125.815 14.5239C126.032 14.8917 126.059 15.1723 126.059 16.7938C126.09 17.8973 126.059 19.0925 126.032 21.59L125.969 28.874C125.937 31.6617 125.873 33.3653 125.784 33.9897C125.72 34.6189 125.535 35.1029 125.192 35.4125C124.948 35.6401 124.821 35.8965 124.821 36.1531C124.853 36.4095 124.853 36.4386 125.101 36.4386H125.287H126.37H132.841C133.089 36.2934 132.872 35.7853 132.502 35.6692C132.286 35.5819 132.069 35.3546 131.852 34.9868C131.731 34.7301 131.667 34.4737 131.635 34.2461C131.604 34.0188 131.604 33.4234 131.604 32.4844V27.4268V24.2955L132.566 24.2713C133.523 24.2423 133.618 24.2423 133.739 24.4407C133.835 24.5519 134.083 25.0359 134.358 25.491L134.95 26.546L136.557 29.2466C137.424 30.6647 138.106 31.7731 138.571 32.6007C138.814 33.0556 139.031 33.7913 139.248 34.8174C139.311 35.1852 138.941 35.611 138.661 35.8095C138.571 35.8965 138.381 36.037 138.381 36.1241C138.381 36.3225 138.444 36.4386 138.597 36.4386H141.727H144.576H146.342ZM158.931 36.7823C161.22 36.9226 163.419 36.8114 165.74 36.2693C167.104 35.9305 167.844 35.732 168.927 35.1608C169.482 34.8753 169.911 34.5657 170.217 34.1978C170.836 33.4863 171.296 32.2958 171.174 30.8195C171.142 29.5999 170.804 26.5363 170.096 21.6287C169.942 20.4914 169.884 19.3588 169.911 18.1973C169.974 17.0309 170.127 16.1259 170.376 15.4725C170.651 14.6787 171.021 13.9963 171.481 13.4591L171.544 13.4009C171.639 13.2606 171.729 13.1736 171.761 13.1445C171.978 12.859 171.978 12.7185 171.697 12.7185H168.155H164.164C163.948 12.7185 164.191 13.0042 164.841 13.5705C165.65 14.2527 166.205 15.1047 166.823 16.8034C167.008 17.2874 167.225 17.9989 167.474 18.933C167.722 19.8669 167.907 20.7189 167.997 21.4302C168.404 23.8695 168.774 26.5363 169.081 29.4016C169.297 31.1632 169.023 32.436 168.214 33.2588C167.442 34.0284 166.11 34.5366 164.223 34.8512C162.864 35.0496 161.5 35.0496 160.142 34.8221C158.809 34.5657 157.789 33.9994 157.107 33.1185C156.457 32.2087 156.393 30.9358 156.674 28.8062C156.827 27.7269 156.89 27.1026 156.89 26.9333L157.261 23.8695L157.815 19.7266C158.006 18.5942 158.249 17.5149 158.529 16.4646C158.746 15.5837 158.994 14.819 159.274 14.0545C159.364 13.9092 159.581 13.7108 159.951 13.4009C160.512 12.946 160.697 12.7185 160.48 12.7185H156.023H151.631C151.477 12.7185 151.567 12.859 151.847 13.1154C152.434 13.6575 152.746 13.9963 152.778 14.1077C152.963 14.3932 153.021 15.9516 152.899 17.118C152.778 18.5361 152.651 19.6443 152.529 20.5493L151.446 28.7771C151.414 30.2823 151.165 31.5601 151.662 32.9491C151.942 33.6557 152.344 34.2558 152.931 34.7641C153.83 35.5868 155.59 36.1869 156.737 36.4145C157.324 36.5257 158.032 36.642 158.931 36.7823ZM184.847 12.1524C183.018 12.1524 181.257 12.6943 179.867 13.6284C178.82 14.3641 178.075 15.124 177.673 15.9467C176.901 17.418 176.716 18.8943 177.086 20.3994C177.303 21.106 177.769 21.8755 178.445 22.6402C179.032 23.2645 179.867 23.8599 180.977 24.402C182.309 25.0504 183.731 25.4764 185.677 25.849C189.113 26.6137 191.275 27.1559 192.205 27.4076C193.321 27.7222 194.124 28.3173 194.616 29.1982C195.145 30.0791 195.266 30.9842 194.986 31.8939C194.526 33.2299 193.225 34.3623 191.587 35.0156C190.011 35.4416 187.844 35.5287 186.486 35.1029C185.307 34.706 184.133 34.222 183.113 33.5977C182.833 33.3993 181.844 32.7748 181.379 32.5475C180.977 32.2908 180.237 31.8939 179.65 31.6666C178.54 31.2406 177.335 31.1003 176.003 31.2406C175.511 31.2987 175.199 31.439 175.109 31.6957C175.046 31.865 175.167 32.1215 175.479 32.4361C175.881 32.8039 176.315 33.0023 176.658 33.6266L177.182 34.7688C177.335 35.0834 177.647 35.5627 178.017 35.8144C178.572 36.2643 179.127 36.4919 179.65 36.4628C179.745 36.4628 180.364 36.4337 181.506 36.4049C182.648 36.3516 183.266 36.3516 183.33 36.4049C183.668 36.4628 184.535 36.6371 185.867 36.9177C187.194 37.2034 188.277 37.3146 189.081 37.2614C191.185 37.2323 192.977 36.9177 194.494 36.2643C198.549 34.8462 200.441 30.1082 198.951 26.5556C198.396 25.3359 197.714 24.4262 196.942 23.8017C195.979 22.979 194.864 22.3547 193.564 21.9287C191.248 21.2221 188.959 20.7382 185.867 20.1961C184.382 19.8864 183.33 19.4024 182.679 18.807C182.093 18.3231 181.749 17.815 181.722 17.2196C181.595 16.3436 181.908 15.7193 182.558 15.0707C183.144 14.5335 183.821 14.1657 184.656 13.9963C186.792 13.7108 188.833 14.4755 190.381 15.5209C191.09 15.9758 191.708 16.3727 192.422 16.7164C192.977 17.1131 193.596 17.1954 194.124 17.3115C194.896 17.4229 195.948 17.4229 196.662 17.2245C196.968 17.1663 197.158 17.0842 197.217 16.9148C197.343 16.7985 196.598 15.8355 196.292 15.4095C196.069 15.153 195.884 14.8675 195.668 14.5577L194.584 13.0042C194.341 12.6943 194.061 12.5008 193.722 12.5831C193.347 12.641 192.607 12.9219 192.205 12.9219C192.084 12.9751 191.772 12.9751 191.306 12.9509C190.841 12.9218 190.566 12.8928 190.44 12.8928L189.546 12.7525L188.679 12.6073C187.225 12.2732 185.925 12.1088 184.847 12.1329V12.1524Z" fill="white"/>
<path d="M36.79 44.0863C36.1315 44.0863 35.4577 44.2345 34.8115 44.4242C34.3582 44.5747 33.9777 44.8039 33.4341 45.1858C33.0108 45.4706 32.6727 45.797 32.3947 46.1349C31.8838 46.7738 31.4605 47.4798 31.2552 48.2669C30.9773 49.2046 30.9046 50.0702 31.0072 50.855C31.1251 51.7093 31.3429 52.4291 31.6785 53.0126C31.914 53.4061 32.1769 53.7743 32.4824 54.1122C32.9231 54.5752 33.3164 54.9131 33.6545 55.1169C34.4911 55.6471 35.4727 55.9595 36.5697 56.0683C37.1983 56.11 37.8144 56.096 38.4206 56.0265L39.3497 55.8645C39.8505 55.7419 40.4064 55.5243 41.02 55.2002C41.3858 55.022 41.6913 54.8044 41.9417 54.5475C42.4527 54.0727 42.7758 53.6097 42.9386 53.1769C43.0262 52.9454 43.0412 52.7416 42.9811 52.5658C42.9536 52.457 42.8058 52.457 42.7331 52.5242C42.35 52.8088 42.0596 53.1631 41.6036 53.3667C41.3257 53.5149 40.9901 53.6515 40.5943 53.7881C39.6728 54.0983 38.5684 54.126 37.286 53.8691C36.5997 53.7464 36.0136 53.5287 35.5029 53.2024C34.6512 52.6606 34.0202 51.8597 33.6094 50.8135C33.2138 49.8133 33.0984 48.8388 33.2587 47.8874C33.3766 47.1142 33.6545 46.4082 34.1679 45.9034C34.5036 45.5655 34.9141 45.2945 35.4 45.0771C36.174 44.7506 36.9805 44.7367 37.7844 45.0354C38.1375 45.1581 38.5082 45.415 38.8913 45.797C39.2168 46.1211 39.4248 46.5423 39.4974 47.0725C39.6151 47.7785 39.4398 48.5124 38.9514 49.0147C38.6108 49.3805 38.1976 49.5587 37.7242 49.5703C37.3311 49.5587 36.9653 49.4082 36.6874 49.1513C36.5547 48.9732 36.4369 48.8111 36.4244 48.635C36.4094 48.5935 36.4244 48.5656 36.4369 48.5401C36.4519 48.5263 36.4671 48.5401 36.4821 48.5517C36.512 48.5935 36.5997 48.6212 36.76 48.6604C37.008 48.6745 37.301 48.5935 37.5214 48.4314C37.8144 48.2276 37.887 47.7923 37.7242 47.5077C37.6091 47.2345 37.301 47.0725 37.023 47.0193C36.6122 46.922 36.2041 47.0586 35.926 47.3294C35.6907 47.5609 35.5604 47.8595 35.5154 48.1999C35.4577 48.6466 35.633 49.1096 35.881 49.4615C36.3493 50.112 37.1558 50.4894 38.0199 50.5843C39.292 50.7184 40.6544 50.2323 41.4433 49.341C41.6913 49.0426 41.9268 48.5935 42.117 48.01C42.3225 47.3434 42.395 46.7461 42.3225 46.1905C42.2774 45.8224 42.2349 45.5932 42.1897 45.4845C42.1747 45.4566 42.1021 45.4566 41.9692 45.4706C41.7514 45.5376 41.5761 45.5517 41.4158 45.5376C41.238 45.5099 40.99 45.4289 40.8147 45.4012C40.7421 45.3617 40.5066 45.2392 40.4491 45.2251C40.3915 45.2113 40.0985 45.0492 40.0836 45.0354L39.277 44.6418C39.1444 44.5746 38.8488 44.4521 38.3754 44.276C37.9747 44.1811 37.5064 44.1255 36.9653 44.0863H36.79ZM55.2642 55.9596C56.0128 55.9988 57.8511 56.0265 59.4515 54.9989C61.7231 53.7094 62.6473 51.5658 62.2215 48.5726C62.0011 47.5865 61.7381 46.8548 61.2699 46.1349C60.7989 45.3896 60.1102 44.8084 59.216 44.3223C58.322 43.9033 56.9421 43.7529 55.6023 43.9312C54.2472 44.0933 52.9125 44.7946 52.3087 45.9173C52.0008 46.5818 51.868 47.0309 51.9431 47.7762C51.9858 48.1396 52.1034 48.5054 52.3087 48.8828C52.8373 49.693 53.9091 50.3042 54.9109 50.2486C55.7474 50.1814 56.361 49.8297 56.7693 49.1931C57.0448 48.6929 56.9146 47.8965 56.4913 47.5193C56.0705 47.1396 55.6747 47.0586 55.1463 47.2091C54.8659 47.2762 54.6906 47.4637 54.6155 47.7485C54.5278 48.0865 54.7331 48.3967 54.9985 48.4777C55.3668 48.5864 55.4844 48.5308 55.6447 48.3572C55.8375 48.1257 55.9553 48.1003 55.9679 48.5308C56.028 49.4777 54.7181 50.0332 53.8064 49.0726C52.925 48.3157 53.5135 46.6651 54.4826 46.2298C55.5871 45.6186 57.6033 45.8478 58.8779 47.2091C60.2431 48.6257 60.7864 50.4939 60.4184 52.325C60.2129 53.031 59.8323 53.6283 59.2762 54.1029C58.7328 54.5774 58.0139 54.8228 57.1474 54.8344C56.2158 54.8484 55.234 54.5497 54.2197 53.927C53.2054 53.2881 52.4715 52.5426 52.0308 51.6884C51.4999 50.656 51.2794 49.4915 51.3546 48.2068C51.4123 47.0863 51.6927 45.9034 52.5017 45.0376C52.6043 44.9035 52.8823 44.6325 52.7946 44.6464C52.7195 44.6048 52.5292 44.6743 52.2211 44.8479C51.9132 45.0238 51.6777 45.1742 51.5149 45.3086C50.2276 46.4059 49.4838 47.6003 49.2933 48.8828C49.0731 49.9245 49.103 50.9013 49.381 51.7973C49.8043 53.1931 50.8137 54.2928 52.3239 55.1748C53.1177 55.6076 54.1021 55.8645 55.2642 55.9596ZM82.2834 55.64C82.5338 55.64 82.5488 55.64 82.5488 55.4895C82.5488 55.3808 82.5038 55.3275 82.386 55.2719C82.2308 55.177 81.9528 54.8645 81.835 54.6076C81.7925 54.4987 81.6899 54.1167 81.5571 53.464C81.4245 52.7995 81.2916 52.0796 81.1615 51.2903C80.7932 49.1027 80.5302 47.4036 80.3675 46.223C80.2798 45.8294 80.325 45.0955 80.4276 44.9058C80.4851 44.783 80.6029 44.6743 80.7632 44.5515C80.8958 44.4566 80.9835 44.3895 80.9985 44.3479C81.0137 44.3084 80.9685 44.2807 80.8534 44.2946H78.6819H76.6734C76.6584 44.3084 76.7184 44.4843 76.9813 44.5794C77.1142 44.6743 77.2895 44.8779 77.2895 44.9868C77.2895 45.1373 77.0992 45.746 76.7184 46.8201C76.6459 47.0239 76.4679 47.5261 76.3378 47.9614L76.145 48.5193L75.9545 49.0748C75.8519 49.4429 75.6916 49.8226 75.5288 50.1907C75.4563 50.2046 75.2358 49.7555 74.8401 48.8458C74.7951 48.7508 74.6348 48.355 74.5321 48.1791C74.4595 47.9753 74.2817 47.554 74.1639 47.2947C73.9385 46.6789 73.6305 45.9867 73.5127 45.4035C73.4702 45.0376 73.5429 44.8479 73.8358 44.5653C73.9385 44.4705 73.9986 44.3339 73.9686 44.3062H71.7245H69.5682C69.5257 44.3062 69.5106 44.32 69.5106 44.3479C69.5106 44.4566 69.6134 44.591 69.8337 44.7415C70.009 44.8617 70.2145 45.0515 70.2869 45.1604C70.3746 45.2691 70.4197 45.4173 70.4048 45.6071C70.3898 45.797 70.3171 46.3526 70.1543 47.2624C70.0816 47.7229 70.009 48.1026 69.964 48.4151C69.8764 48.9732 69.7735 49.5287 69.6559 50.0727C69.6134 50.2763 69.5533 50.5611 69.5407 50.7232C69.5257 50.9267 69.4079 51.4176 69.2176 52.2185C68.8945 53.5473 68.4837 54.5405 68.0005 55.2047C67.8225 55.4619 67.7501 55.6262 67.9129 55.64H69.6284H71.3864C71.3439 55.4895 71.2987 55.3668 71.2413 55.2998C71.1811 55.2326 71.0785 55.0543 70.9481 54.7558C70.8155 54.4571 70.7279 54.2279 70.6827 54.0775C70.5526 53.5357 70.4497 52.6375 70.4924 51.9314C70.5373 51.0218 70.61 50.1258 70.7279 49.2439C70.7704 49.0401 70.8305 48.5379 70.888 48.1026C71.0208 47.0863 71.1085 46.5841 71.1536 46.5841C71.1811 46.5841 71.4166 47.0979 71.8573 48.1443L72.6637 49.9917L73.4852 51.8366C73.8209 52.6375 74.2915 53.6422 74.7023 54.6076C74.8327 54.7163 74.9955 54.5938 75.0529 54.3367C75.3186 53.6168 75.7291 52.3944 76.2703 50.6421C76.8286 48.8851 77.2244 47.6627 77.4724 46.9706C77.575 46.6442 77.6926 46.3317 77.7378 46.2901C77.7803 46.2901 77.8404 46.5493 78.0307 47.6351C78.0884 48.0286 78.1486 48.4105 78.1785 48.4637C78.2512 48.8574 78.4565 50.1628 78.8071 52.3922C78.9699 53.6422 79.0276 54.3761 78.9976 54.5797C78.9549 54.8645 78.7796 55.1099 78.4717 55.2858C78.2362 55.4362 78.3966 55.6262 78.4265 55.64H82.2834ZM102.916 55.64C103.167 55.64 103.182 55.64 103.182 55.4895C103.182 55.3808 103.137 55.3275 103.019 55.2719C102.864 55.177 102.586 54.8645 102.468 54.6076C102.425 54.4987 102.323 54.1167 102.19 53.464C102.057 52.7995 101.925 52.0796 101.794 51.2903C101.426 49.1027 101.163 47.4036 101 46.223C100.913 45.8294 100.958 45.0955 101.06 44.9058C101.118 44.783 101.236 44.6743 101.396 44.5515C101.529 44.4566 101.616 44.3895 101.631 44.3479C101.647 44.3084 101.601 44.2807 101.486 44.2946H99.3148H97.3063C97.2913 44.3084 97.3513 44.4843 97.6142 44.5794C97.747 44.6743 97.9224 44.8779 97.9224 44.9868C97.9224 45.1373 97.7321 45.746 97.3513 46.8201C97.2788 47.0239 97.1008 47.5261 96.9707 47.9614L96.7779 48.5193L96.5874 49.0748C96.4848 49.4429 96.3244 49.8226 96.1617 50.1907C96.0892 50.2046 95.8687 49.7555 95.4729 48.8458C95.428 48.7508 95.2677 48.355 95.165 48.1791C95.0924 47.9753 94.9146 47.554 94.7967 47.2947C94.5713 46.6789 94.2634 45.9867 94.1456 45.4035C94.1031 45.0376 94.1758 44.8479 94.4687 44.5653C94.5714 44.4705 94.6315 44.3339 94.6015 44.3062H92.3574H90.2011C90.1586 44.3062 90.1434 44.32 90.1434 44.3479C90.1434 44.4566 90.2463 44.591 90.4666 44.7415C90.6419 44.8617 90.8474 45.0515 90.9198 45.1604C91.0075 45.2691 91.0526 45.4173 91.0377 45.6071C91.0227 45.797 90.95 46.3526 90.7872 47.2624C90.7145 47.7229 90.6419 48.1026 90.5969 48.4151C90.5093 48.9732 90.4064 49.5287 90.2888 50.0727C90.2463 50.2763 90.1861 50.5611 90.1736 50.7232C90.1586 50.9267 90.0408 51.4176 89.8505 52.2185C89.5274 53.5473 89.1166 54.5405 88.6334 55.2047C88.4554 55.4619 88.383 55.6262 88.5457 55.64H90.2613H92.0193C91.9768 55.4895 91.9316 55.3668 91.8742 55.2998C91.814 55.2326 91.7114 55.0543 91.581 54.7558C91.4484 54.4571 91.3608 54.2279 91.3156 54.0775C91.1855 53.5357 91.0826 52.6375 91.1253 51.9314C91.1703 51.0218 91.2429 50.1258 91.3608 49.2439C91.4032 49.0401 91.4634 48.5379 91.5209 48.1026C91.6537 47.0863 91.7413 46.5841 91.7865 46.5841C91.814 46.5841 92.0495 47.0979 92.4902 48.1443L93.2966 49.9917L94.1181 51.8366C94.4537 52.6375 94.9244 53.6422 95.3352 54.6076C95.4656 54.7163 95.6283 54.5938 95.6858 54.3367C95.9515 53.6168 96.362 52.3944 96.9032 50.6421C97.4615 48.8851 97.8573 47.6627 98.1053 46.9706C98.2079 46.6442 98.3255 46.3317 98.3707 46.2901C98.4132 46.2901 98.4733 46.5493 98.6636 47.6351C98.7213 48.0286 98.7815 48.4105 98.8114 48.4637C98.8841 48.8574 99.0894 50.1628 99.44 52.3922C99.6028 53.6422 99.6605 54.3761 99.6305 54.5797C99.5878 54.8645 99.4125 55.1099 99.1046 55.2858C98.8691 55.4362 99.0294 55.6262 99.0594 55.64H102.916ZM112.68 55.8043C113.764 55.8715 114.806 55.8182 115.905 55.559C116.552 55.397 116.902 55.3021 117.416 55.0288C117.679 54.8922 117.882 54.7442 118.027 54.5681C118.32 54.2279 118.538 53.6585 118.48 52.9525C118.465 52.369 118.305 50.9036 117.969 48.5563C117.896 48.0123 117.869 47.4707 117.882 46.9152C117.912 46.3571 117.984 45.9243 118.102 45.6118C118.232 45.2321 118.407 44.9058 118.625 44.6488L118.655 44.621C118.701 44.5538 118.743 44.5122 118.758 44.4984C118.861 44.3618 118.861 44.2946 118.728 44.2946H117.05H115.159C115.056 44.2946 115.172 44.4312 115.48 44.702C115.863 45.0283 116.126 45.4359 116.419 46.2484C116.507 46.4799 116.609 46.8201 116.727 47.2669C116.845 47.7138 116.932 48.1212 116.975 48.4614C117.168 49.6281 117.343 50.9036 117.488 52.2741C117.591 53.1168 117.461 53.7255 117.078 54.119C116.712 54.4871 116.081 54.7302 115.187 54.8806C114.543 54.9757 113.897 54.9757 113.253 54.8668C112.622 54.7442 112.139 54.4733 111.816 54.052C111.508 53.6168 111.478 53.0079 111.61 51.9893C111.683 51.4732 111.713 51.1746 111.713 51.0935L111.888 49.6281L112.151 47.6466C112.241 47.1049 112.357 46.5886 112.489 46.0864C112.592 45.6649 112.71 45.2993 112.842 44.9335C112.885 44.864 112.988 44.7691 113.163 44.621C113.429 44.4033 113.516 44.2946 113.414 44.2946H111.302H109.221C109.148 44.2946 109.191 44.3618 109.324 44.4843C109.602 44.7437 109.75 44.9058 109.764 44.9589C109.852 45.0955 109.88 45.841 109.822 46.3989C109.764 47.0772 109.705 47.6071 109.647 48.0402L109.133 51.9755C109.118 52.6954 109.001 53.3065 109.236 53.971C109.369 54.309 109.559 54.596 109.837 54.8391C110.263 55.2326 111.097 55.5197 111.64 55.6284C111.919 55.6818 112.254 55.7372 112.68 55.8043ZM133.806 56.1817C133.866 56.2905 133.881 56.3184 134.041 56.3184C134.144 56.3184 134.307 56.2233 134.512 56.0335C134.82 55.7487 135.509 55.3947 136.198 55.1655C136.683 55.015 136.756 54.9896 136.756 54.8391C136.756 54.7581 136.668 54.6632 136.506 54.5566L135.862 54.163L135.642 54.001L135.156 53.5936C135.186 51.3598 135.231 49.612 135.304 48.3388C135.451 46.7252 135.817 45.4682 136.403 44.591C136.506 44.4682 136.581 44.2946 136.536 44.2807H134.745H133C133 44.3756 133.057 44.4821 133.16 44.6048C133.778 45.4543 134.174 46.6998 134.364 48.3527C134.437 49.5031 134.452 50.7232 134.41 51.9963C134.394 52.1838 134.394 52.3066 134.379 52.3622C134.364 52.4153 134.334 52.4015 134.262 52.3343C134.189 52.2671 134.041 52.0497 133.821 51.7115C133.558 51.2903 132.985 50.4638 132.105 49.2185C131.239 47.9592 130.578 46.9846 130.122 46.2786C129.696 45.6164 129.593 45.0631 129.844 44.6303C129.947 44.4682 129.977 44.3756 129.947 44.3339C129.917 44.32 129.874 44.3062 129.814 44.3062H124.928C124.868 44.3062 124.84 44.3479 124.84 44.4149C124.84 44.4821 124.958 44.5631 125.191 44.672C125.441 44.7923 125.779 45.0771 126.205 45.5238L126.19 47.7554C126.19 48.473 126.19 49.0285 126.175 49.4477L126.087 51.156C126.042 51.8736 125.969 52.5496 125.882 53.1747C125.822 53.5264 125.616 54.001 125.411 54.4202C125.281 54.6771 125.088 55.0427 124.985 55.2188C124.78 55.4503 124.765 55.6123 124.868 55.64H126.643H128.346C128.537 55.64 128.509 55.559 128.391 55.4503C128.319 55.3808 128.213 55.2326 128.068 55.015C127.92 54.7858 127.803 54.5961 127.715 54.434C127.407 53.8251 127.187 52.9988 127.084 51.9825C127.069 51.8066 127.041 51.3852 127.026 50.7093C126.966 47.9868 126.966 46.5493 127.026 46.4011C127.069 46.3063 127.084 46.3063 127.159 46.4011C127.202 46.4406 127.304 46.5911 127.48 46.8342C127.672 47.0656 127.79 47.2415 127.848 47.3364L129.696 49.9223C130.68 51.3042 131.487 52.4686 132.105 53.4039C132.722 54.3391 133.292 55.2603 133.806 56.1817ZM146.482 55.64C146.54 55.5844 146.437 55.4224 146.304 55.3668C146.144 55.3137 146.011 55.1516 145.939 54.8668C145.864 54.6353 145.836 52.4108 145.851 48.2206C145.851 46.348 145.864 45.3572 145.909 45.2482L145.939 45.1672C146.011 44.9382 146.159 44.7344 146.407 44.5701C146.57 44.4752 146.57 44.4637 146.57 44.4219C146.57 44.3132 146.54 44.2991 145.836 44.3132H145.558H143.637H143.374C142.773 44.3132 142.728 44.2991 142.728 44.3942C142.728 44.4752 142.743 44.4752 142.903 44.5701C143.036 44.6788 143.139 44.8016 143.314 45.1672C143.374 45.29 143.404 46.2947 143.417 48.1511C143.432 51.0148 143.404 53.0219 143.329 54.1469C143.286 54.8668 143.211 55.096 142.816 55.4224C142.698 55.5451 142.655 55.6123 142.67 55.64H146.482ZM159.804 55.64H159.892C160.082 55.64 160.112 55.64 160.097 55.5451C160.097 55.4896 160.082 55.4503 160.04 55.4224L159.98 55.3808C159.732 55.1516 159.569 54.9063 159.454 54.6076C159.394 54.4594 159.364 54.2951 159.349 54.1331C159.336 53.971 159.336 53.3875 159.336 52.3969V50.8087V48.869V45.6649C159.336 45.5029 159.306 45.1093 159.481 45.1093C159.672 45.1234 159.98 45.2993 160.496 45.6649L160.804 45.8964L161.154 46.142C161.199 46.1674 161.317 46.2368 161.477 46.3571C161.653 46.466 161.785 46.5471 161.873 46.5886C162.181 46.7507 162.725 46.9962 163.12 47.0911C163.503 47.1303 163.694 47.1303 163.751 46.9962C163.854 46.8457 163.736 46.8734 163.503 46.4406C163.313 46.0864 163.063 45.3665 162.725 44.2946C162.71 44.1718 162.667 44.0908 162.622 44.0493C162.519 43.9403 162.344 43.9403 162.063 44.0908C161.728 44.1997 161.112 44.239 160.598 44.2529C160.082 44.2529 159.321 44.2669 158.91 44.2807H156.974C156.461 44.2807 155.67 44.2669 155.331 44.2669L154.803 44.239C154.437 44.2251 154.26 44.158 154.129 44.0908C153.981 43.9821 153.746 43.9959 153.658 44.0769C153.613 44.1187 153.511 44.3339 153.438 44.5653C153.13 45.3665 152.837 46.0053 152.587 46.4799C152.366 46.8873 152.456 46.9544 152.529 46.9962C152.632 47.0493 152.764 47.0772 153.042 47.0632C153.704 46.9152 154.525 46.4522 155.522 45.6649C156.153 45.1511 156.328 45.1904 156.681 45.1093C156.917 45.0678 156.857 45.4219 156.857 45.6649V48.8134V50.9177C156.872 51.7996 156.872 52.3018 156.857 52.3969C156.844 53.5913 156.799 54.3228 156.726 54.6076C156.666 54.8253 156.564 54.9478 156.286 55.1632C156.153 55.2603 156.065 55.3414 156.02 55.3808C155.963 55.4362 155.963 55.64 156.08 55.64H159.804ZM173.172 55.5706C173.172 55.6123 173.202 55.6262 173.245 55.6377H173.422H176.986C177.147 55.6377 177.249 55.6123 177.264 55.5567C177.264 55.4895 177.219 55.4478 177.132 55.434C177.116 55.4224 177.116 55.4224 177.101 55.4224C176.868 55.3275 176.781 55.2442 176.603 54.934C176.53 54.8253 176.485 54.6607 176.47 54.4594C176.458 54.2418 176.458 53.7116 176.458 52.8853L176.443 51.4871C177.367 49.8204 178.409 48.0032 179.42 46.3734C179.538 46.1581 179.729 45.8989 179.979 45.5887C180.242 45.2762 180.492 45.0308 180.728 44.827C180.845 44.7206 180.918 44.6116 180.961 44.5306C181.006 44.4612 181.036 44.3942 181.036 44.3525C181.036 44.3409 180.991 44.3271 180.888 44.3132H177.572C177.264 44.3132 177.204 44.4612 177.454 44.6927C177.85 45.1118 177.983 45.7507 177.88 46.4011C177.835 46.7275 177.69 47.1605 177.557 47.473C177.5 47.6212 177.409 47.8248 177.279 48.0701C177.162 48.2993 177.074 48.4893 176.999 48.6119L176.663 49.223L176.34 49.7786L176.177 50.0773C176.062 50.2255 175.959 50.2139 175.869 50.0101C175.576 49.4661 175.153 48.6675 174.872 48.1929L174.449 47.4058C174.156 46.8226 173.876 46.2529 173.628 45.6141C173.495 45.209 173.552 44.9103 173.788 44.7206C173.966 44.5701 174.054 44.4612 174.038 44.3802C174.038 44.3409 173.951 44.3132 173.788 44.3132C173.773 44.3132 173.773 44.3132 173.773 44.3132H170.001C169.783 44.3132 169.681 44.3802 169.681 44.5029C169.651 44.6511 169.856 44.6927 169.959 44.7321C170.267 44.8965 170.545 45.2761 170.735 45.6141C171.734 47.3641 172.628 48.9915 173.437 50.4708L173.993 51.5148L173.978 52.8853C173.978 53.8205 173.951 54.2951 173.848 54.6886C173.745 55.0683 173.643 55.2188 173.362 55.3808C173.289 55.4224 173.202 55.5034 173.202 55.5173C173.187 55.5288 173.172 55.5567 173.172 55.5706Z" fill="#0085FF"/>
</svg>
