<svg width="21" height="18" viewBox="0 0 21 18" fill="none" xmlns="http://www.w3.org/2000/svg">
<path fill-rule="evenodd" clip-rule="evenodd" d="M18.4283 0.573919C18.6742 0.470421 18.9434 0.434725 19.2078 0.470547C19.4722 0.506368 19.7221 0.612397 19.9316 0.777598C20.1411 0.942799 20.3025 1.16113 20.399 1.40987C20.4955 1.65861 20.5235 1.92867 20.4802 2.19193L18.2234 15.8813C18.0044 17.2018 16.5556 17.9591 15.3446 17.3013C14.3316 16.751 12.827 15.9032 11.4737 15.0186C10.797 14.5758 8.72427 13.1578 8.97901 12.1488C9.19793 11.286 12.6807 8.04403 14.6709 6.11655C15.452 5.35929 15.0958 4.92244 14.1734 5.619C11.8817 7.34846 8.20483 9.97847 6.98884 10.7188C5.91614 11.3716 5.3569 11.483 4.6882 11.3716C3.46823 11.1686 2.33682 10.8541 1.41338 10.471C0.16554 9.9536 0.22624 8.23807 1.41238 7.73853L18.4283 0.573919Z" fill="#0158E0"/>
</svg>
