<svg width="18" height="19" viewBox="0 0 18 19" fill="none" xmlns="http://www.w3.org/2000/svg">
<path d="M10.4575 0.987638C10.9975 0.710763 11.6595 0.8879 11.989 1.39747L12.5511 2.26659C12.7575 2.58572 13.1048 2.78612 13.4844 2.80511L14.5185 2.85687C15.1246 2.8872 15.6092 3.37155 15.6398 3.97757L15.692 5.01119C15.7112 5.39084 15.9118 5.73809 16.2312 5.94432L17.1008 6.50599C17.6106 6.83523 17.7882 7.49708 17.5117 8.03728L17.0399 8.95891C16.8667 9.2973 16.8668 9.69835 17.0402 10.0366L17.5124 10.9575C17.7892 11.4975 17.6121 12.1594 17.1025 12.489L16.2334 13.0511C15.9143 13.2575 15.7139 13.6048 15.6949 13.9844L15.6431 15.0185C15.6128 15.6246 15.1284 16.1092 14.5224 16.1398L13.4888 16.192C13.1092 16.2112 12.7619 16.4118 12.5557 16.7312L11.994 17.6008C11.6648 18.1106 11.0029 18.2882 10.4627 18.0117L9.54109 17.5399C9.2027 17.3667 8.80165 17.3668 8.46337 17.5402L7.54253 18.0124C7.00251 18.2892 6.34055 18.1121 6.01098 17.6025L5.44887 16.7334C5.24247 16.4143 4.89518 16.2139 4.51559 16.1949L3.48145 16.1431C2.87542 16.1128 2.39083 15.6284 2.36021 15.0224L2.30798 13.9888C2.2888 13.6092 2.08816 13.2619 1.76883 13.0557L0.899154 12.494C0.389359 12.1648 0.211792 11.5029 0.488325 10.9627L0.960112 10.0411C1.13333 9.7027 1.1332 9.30165 0.959768 8.96337L0.487638 8.04253C0.210764 7.5025 0.3879 6.84055 0.897472 6.51098L1.76659 5.94887C2.08572 5.74247 2.28612 5.39518 2.30511 5.01559L2.35687 3.98145C2.3872 3.37542 2.87155 2.89083 3.47757 2.86021L4.51119 2.80798C4.89084 2.7888 5.23809 2.58816 5.44432 2.26883L6.00599 1.39915C6.33523 0.889359 6.99708 0.711792 7.53728 0.988325L8.45891 1.46011C8.7973 1.63333 9.19835 1.6332 9.53663 1.45977L10.4575 0.987638Z" fill="#42A5F5"/>
<path d="M8.71071 12.7342C8.25815 13.1645 7.54888 13.1685 7.09154 12.7432L4.68403 10.5046C4.31457 10.1611 4.3146 9.57611 4.68408 9.2326V9.2326C5.01746 8.92266 5.53358 8.92272 5.86688 9.23274L7.92462 11.1467L12.1453 7.07804C12.4801 6.75522 13.0102 6.7546 13.3459 7.07665V7.07665C13.7022 7.41856 13.7009 7.98875 13.343 8.32905L8.71071 12.7342Z" fill="white"/>
</svg>
