<svg width="22" height="13" viewBox="0 0 22 13" fill="none" xmlns="http://www.w3.org/2000/svg">
<path fill-rule="evenodd" clip-rule="evenodd" d="M7.34157 1.35331C7.61664 1.35331 7.84169 1.3749 8.06675 1.51522C8.2525 1.63396 8.38111 1.79587 8.47756 2.00095C8.55258 2.16646 8.63474 2.50108 8.63474 2.73855C8.63474 3.04438 8.64546 3.32503 8.64546 3.63446L8.66332 4.51598C8.67761 4.62392 8.66689 4.8398 8.66689 4.96213C8.66689 5.04848 8.67761 5.09166 8.67761 5.17801C8.67404 5.36511 8.69904 5.67454 8.66689 5.82566C8.55615 6.37256 7.95601 6.60643 7.49875 6.3006C7.34872 6.20345 7.12009 5.82926 7.0022 5.65655L6.77357 5.31114C6.73428 5.24997 6.7057 5.1996 6.66641 5.13843L6.4485 4.78583C6.26631 4.48359 6.07698 4.18496 5.9198 3.86833L5.29464 2.63061C5.13389 2.31038 4.94456 1.85703 4.81596 1.52961C4.75523 1.3749 4.69807 1.28854 4.58376 1.1878C4.49088 1.10864 4.32655 1.02949 4.16223 1.02949H0.982885C0.793553 1.02949 0.607793 1.17701 0.543492 1.34611C0.472047 1.51882 0.497053 1.64835 0.557782 1.81386C0.58636 1.89301 0.614938 1.96497 0.647089 2.04773C0.764974 2.34996 0.879288 2.65579 1.02575 2.94724C1.12935 3.16312 1.21866 3.38979 1.32583 3.60567L1.53659 4.03744C1.55445 4.07701 1.56874 4.1058 1.5866 4.14538L1.8581 4.67069C1.97955 4.91536 2.11887 5.15642 2.25105 5.39389C2.26891 5.43347 2.28677 5.46586 2.30821 5.50184C2.50111 5.84005 2.69044 6.18546 2.90121 6.50928L3.20842 6.99502C3.22986 7.031 3.24772 7.05978 3.27273 7.09576L3.78714 7.85854C3.98361 8.13919 4.18009 8.41984 4.398 8.68609L4.61234 8.95954C4.71236 9.07468 4.7981 9.19701 4.89812 9.30855L5.81977 10.3088L6.14842 10.6146C6.177 10.647 6.19843 10.6578 6.23059 10.6902C6.24488 10.7046 6.25559 10.7154 6.27345 10.7298L6.40206 10.8413C6.6807 11.1076 7.26298 11.5177 7.59877 11.7192C7.73452 11.802 7.8667 11.8739 8.01316 11.9495C8.23107 12.0574 8.45255 12.1546 8.67761 12.2373C9.07413 12.3885 9.58497 12.5 10.0208 12.5H12.1463C12.2821 12.5 12.4357 12.428 12.525 12.3705C12.6214 12.3057 12.7107 12.205 12.7679 12.097C12.8393 11.9711 12.8608 11.8667 12.8608 11.6761V10.6434C12.8608 10.3304 12.9394 10.0965 13.1823 9.92381C13.393 9.77269 13.7288 9.73671 13.9682 9.87344C14.0753 9.93461 14.1361 10.0102 14.229 10.0893L14.9863 10.7981C15.1149 10.9313 15.2542 11.0464 15.3828 11.1795L15.4292 11.2263L16.3759 12.1186C16.5867 12.3273 16.851 12.5 17.1654 12.5H20.3983C20.677 12.5 20.9127 12.4496 21.1378 12.3273C21.3021 12.2337 21.4307 12.0862 21.4771 11.8991C21.5522 11.6077 21.4307 11.3091 21.2842 11.0644C21.2235 10.9672 21.1628 10.8845 21.0878 10.8017C21.0485 10.7586 20.9806 10.6758 20.9342 10.6434C20.877 10.6002 20.8413 10.5427 20.7877 10.4887L18.7479 8.36227C18.7015 8.3011 18.6586 8.26152 18.605 8.20755C18.4764 8.08162 18.2621 7.85854 18.1799 7.70383C18.0156 7.38001 18.0263 7.0202 18.1871 6.69998C18.2228 6.62802 18.2728 6.56685 18.3192 6.50568C19.0015 5.58459 19.7017 4.67789 20.384 3.76039L20.7198 3.29265C20.7448 3.25666 20.7627 3.23148 20.7877 3.1955C20.8127 3.16312 20.827 3.13793 20.8484 3.10195C20.9127 2.99401 20.977 2.90766 21.0342 2.79972C21.2271 2.44711 21.5307 1.90021 21.4486 1.48284C21.4236 1.35691 21.3593 1.25616 21.2628 1.177C21.1628 1.09425 20.952 1.02949 20.7698 1.02949H17.2297C17.0368 1.02949 16.8546 1.13383 16.751 1.22378C16.6117 1.34611 16.4045 1.75988 16.3045 1.96497L15.5293 3.41498C15.5078 3.45456 15.49 3.47974 15.4685 3.51932L15.0506 4.31089C14.8613 4.68868 14.5362 5.29315 14.3075 5.61697C14.1254 5.87603 13.9003 6.14228 13.6038 6.27541C13.5216 6.31139 13.4252 6.32219 13.3216 6.3006C13.2287 6.27901 13.168 6.22504 13.1108 6.16747C12.9894 6.04514 12.9286 5.86164 12.8965 5.69253C12.8608 5.49464 12.8608 5.28955 12.8608 5.04488V1.63396C12.8608 1.40368 12.7929 1.24177 12.7143 1.09065C12.5643 0.799212 12.2428 0.576134 11.9141 0.522163C11.7248 0.489781 10.8317 0.507771 10.5709 0.507771C10.1137 0.507771 9.65999 0.504173 9.20274 0.507771C9.02769 0.507771 8.9491 0.486184 8.73477 0.514968C8.50614 0.550948 8.27751 0.61931 8.07746 0.720055C7.91314 0.80281 7.7631 0.914349 7.62378 1.03308L7.34157 1.35331Z" fill="#0670D2"/>
</svg>
