<svg width="26" height="27" viewBox="0 0 26 27" fill="none" xmlns="http://www.w3.org/2000/svg">
<rect y="0.5" width="26" height="26" rx="6" fill="#4087FC"/>
<path fill-rule="evenodd" clip-rule="evenodd" d="M22.0128 8.59964C22.1441 8.15717 22.0128 7.83203 21.3877 7.83203C21.3877 7.83203 20.0215 7.83203 19.3208 7.83203C18.7952 7.83203 18.5529 8.1129 18.4215 8.42262C18.4215 8.42262 17.3704 11.0111 15.8813 12.6924C15.3996 13.1791 15.1806 13.334 14.9178 13.334C14.7864 13.334 14.5893 13.1791 14.5893 12.7367V8.59964C14.5893 8.06867 14.4437 7.83203 14.0057 7.83203H10.7576C10.4292 7.83203 10.2317 8.07847 10.2317 8.31202C10.2317 8.81537 10.9761 8.93145 11.0529 10.3474V13.4225C11.0529 14.0968 10.9324 14.219 10.6696 14.219C9.96887 14.219 8.26439 11.619 7.25347 8.64387C7.05535 8.06561 6.85665 7.83203 6.32839 7.83203H4.26142C3.67085 7.83203 3.55273 8.1129 3.55273 8.42262C3.55273 8.97572 4.25348 11.719 6.81554 15.3473C8.52356 17.8251 10.93 19.1682 13.1199 19.1682C14.4337 19.1682 14.5963 18.8699 14.5963 18.356V16.4833C14.5963 15.8867 14.7207 15.7676 15.1368 15.7676C15.4434 15.7676 15.9689 15.9225 17.1952 17.1171C18.5967 18.533 18.8277 19.1682 19.616 19.1682H21.683C22.2736 19.1682 22.5689 18.8699 22.3985 18.2812C22.2121 17.6944 21.543 16.8431 20.6551 15.834C20.1733 15.2588 19.4507 14.6393 19.2317 14.3295C18.9252 13.9314 19.0127 13.7543 19.2317 13.4004C19.2317 13.4004 21.75 9.81641 22.0128 8.59964Z" fill="white"/>
</svg>
