<svg width="33" height="33" viewBox="0 0 33 33" fill="none" xmlns="http://www.w3.org/2000/svg">
<path d="M10.7551 13.1648C10.7702 14.1013 10.8682 15.6036 11.3024 16.5818C11.3859 16.7699 11.6478 16.6689 11.6554 16.4632C11.689 15.5561 12.0299 13.8895 13.7183 11.8258C14.7585 10.5546 14.8573 8.97004 14.3221 7.84851C14.0183 7.21324 13.5361 6.71385 13.1273 6.37306C12.8886 6.17251 13.0124 5.78487 13.3254 5.76407C15.219 5.64142 18.3306 5.83079 19.9866 8.95143C20.7134 10.3213 20.918 11.797 20.8119 13.3319C20.7454 14.3121 20.3685 16.5164 21.7924 16.6256C22.8087 16.7039 23.2033 15.8582 23.3566 15.2638C23.4203 15.0165 23.7253 14.9229 23.9143 15.0941C25.8066 16.8263 26.1979 19.0683 26.0634 21.0502C25.8033 24.8812 22.3061 28.0328 18.5335 28.447C13.8207 28.9645 9.77242 26.6744 8.26264 21.8904C7.65407 19.959 7.42388 16.0307 10.1598 12.9395C10.3626 12.7079 10.7516 12.8512 10.7551 13.1648Z" fill="url(#paint0_radial_5025_44931)"/>
<path d="M18.697 19.9795C16.7547 18.07 17.2584 15.5924 17.5737 14.5925C17.6164 14.4609 17.4528 14.3591 17.3426 14.4492C16.6585 15.0069 15.2731 16.2949 14.744 17.9514C14.0273 20.1911 14.2099 21.2288 14.9132 22.4435C15.3367 23.1753 14.961 23.3817 14.7663 23.4321C14.5774 23.4819 14.387 23.3794 14.2317 23.2676C13.7864 22.9446 13.4419 22.4979 13.2459 21.9969C13.2035 21.8891 13.0476 21.8754 12.988 21.9744C12.5368 22.7262 12.386 23.8695 12.4592 24.6579C12.6849 27.0953 15.0127 28.8355 17.5667 28.5551C20.7854 28.2017 22.7582 24.5559 20.5977 21.9263C19.9704 21.1606 19.4064 20.6764 18.697 19.9795Z" fill="url(#paint1_radial_5025_44931)"/>
<defs>
<radialGradient id="paint0_radial_5025_44931" cx="0" cy="0" r="1" gradientUnits="userSpaceOnUse" gradientTransform="translate(17.6067 28.6091) rotate(173.983) scale(13.5713 22.3126)">
<stop stop-color="#FF9800"/>
<stop offset="0.43332" stop-color="#FF1F00"/>
<stop offset="0.6616" stop-color="#FF6D00"/>
<stop offset="0.9715" stop-color="#F44336"/>
</radialGradient>
<radialGradient id="paint1_radial_5025_44931" cx="0" cy="0" r="1" gradientUnits="userSpaceOnUse" gradientTransform="translate(16.3669 15.9967) rotate(84.3419) scale(13.3205 10.5314)">
<stop stop-color="#FFC452"/>
<stop offset="0.3275" stop-color="#FFC123"/>
<stop offset="0.522605" stop-color="#FFF48F"/>
<stop offset="0.6722" stop-color="#FFF7AD"/>
<stop offset="0.7931" stop-color="#FFF9C4"/>
<stop offset="0.870116" stop-color="#FFF8BD" stop-opacity="0.804"/>
<stop offset="0.909672" stop-color="#FFF6AB" stop-opacity="0.529"/>
<stop offset="0.958227" stop-color="#FFF38D" stop-opacity="0.2088"/>
<stop offset="0.992314" stop-color="#FFF176" stop-opacity="0"/>
</radialGradient>
</defs>
</svg>
