<svg width="16" height="14" viewBox="0 0 16 14" fill="none" xmlns="http://www.w3.org/2000/svg">
<path fill-rule="evenodd" clip-rule="evenodd" d="M4.00033 3.65072C4.00033 2.54615 4.89576 1.65072 6.00033 1.65072C7.10489 1.65072 8.00033 2.54615 8.00033 3.65072C8.00033 4.75529 7.10489 5.65072 6.00033 5.65072C4.89576 5.65072 4.00033 4.75529 4.00033 3.65072ZM6.00033 0.317383C4.15938 0.317383 2.66699 1.80977 2.66699 3.65072C2.66699 5.49167 4.15938 6.98405 6.00033 6.98405C7.84127 6.98405 9.33366 5.49167 9.33366 3.65072C9.33366 1.80977 7.84127 0.317383 6.00033 0.317383ZM3.33333 8.31738C2.44928 8.31738 1.60143 8.66857 0.976311 9.29369C0.35119 9.91882 0 10.7667 0 11.6507V12.984C0 13.3522 0.298477 13.6507 0.666667 13.6507C1.03486 13.6507 1.33333 13.3522 1.33333 12.984V11.6507C1.33333 11.1203 1.54405 10.6116 1.91912 10.2365C2.29419 9.86143 2.8029 9.65072 3.33333 9.65072H8.66667C9.1971 9.65072 9.70581 9.86143 10.0809 10.2365C10.456 10.6116 10.6667 11.1203 10.6667 11.6507V12.984C10.6667 13.3522 10.9651 13.6507 11.3333 13.6507C11.7015 13.6507 12 13.3522 12 12.984V11.6507C12 10.7667 11.6488 9.91882 11.0237 9.29369C10.3986 8.66857 9.55072 8.31738 8.66667 8.31738H3.33333ZM12.6883 8.90348C12.7804 8.54698 13.144 8.3326 13.5005 8.42465C14.2156 8.60929 14.8491 9.0262 15.3016 9.60991C15.7541 10.1936 15.9999 10.9111 16.0005 11.6497L16.0005 12.9835C16.0005 13.3517 15.702 13.6501 15.3338 13.6501C14.9656 13.6501 14.6672 13.3517 14.6672 12.9835V11.6506C14.6668 11.2076 14.5193 10.777 14.2478 10.4268C13.9763 10.0766 13.5962 9.82643 13.1672 9.71565C12.8107 9.6236 12.5963 9.25998 12.6883 8.90348ZM10.832 0.424232C10.4753 0.332906 10.1122 0.548022 10.0208 0.904706C9.92951 1.26139 10.1446 1.62457 10.5013 1.7159C10.9315 1.82605 11.3128 2.07625 11.5851 2.42705C11.8574 2.77786 12.0052 3.20931 12.0052 3.6534C12.0052 4.09748 11.8574 4.52894 11.5851 4.87974C11.3128 5.23055 10.9315 5.48075 10.5013 5.5909C10.1446 5.68222 9.92951 6.04541 10.0208 6.40209C10.1122 6.75877 10.4753 6.97389 10.832 6.88257C11.549 6.69898 12.1846 6.28198 12.6384 5.69731C13.0922 5.11263 13.3386 4.39354 13.3386 3.6534C13.3386 2.91326 13.0922 2.19416 12.6384 1.60949C12.1846 1.02482 11.549 0.607816 10.832 0.424232Z" fill="#F98113"/>
</svg>
