<svg width="18" height="18" viewBox="0 0 18 18" fill="none" xmlns="http://www.w3.org/2000/svg">
<path fill-rule="evenodd" clip-rule="evenodd" d="M4.20556 0.349609C4.56454 0.349609 4.85556 0.640624 4.85556 0.999609V2.12739H12.4444V0.999609C12.4444 0.640624 12.7355 0.349609 13.0944 0.349609C13.4534 0.349609 13.7444 0.640624 13.7444 0.999609V2.12739H13.9833C15.8151 2.12739 17.3 3.61231 17.3 5.44405V14.3329C17.3 16.1647 15.8151 17.6496 13.9833 17.6496H3.31667C1.48492 17.6496 0 16.1647 0 14.3329V5.44405C0 3.61231 1.48492 2.12739 3.31667 2.12739H3.55556V0.999609C3.55556 0.640624 3.84657 0.349609 4.20556 0.349609ZM3.31667 3.42739C2.20289 3.42739 1.3 4.33028 1.3 5.44405V6.57183H16V5.44405C16 4.33028 15.0971 3.42739 13.9833 3.42739H3.31667ZM16 7.87183H1.3V14.3329C1.3 15.4467 2.20289 16.3496 3.31667 16.3496H13.9833C15.0971 16.3496 16 15.4467 16 14.3329V7.87183ZM3.55556 10.7774C3.55556 10.4184 3.84657 10.1274 4.20556 10.1274H5.98333C6.34232 10.1274 6.63333 10.4184 6.63333 10.7774C6.63333 11.1364 6.34232 11.4274 5.98333 11.4274H4.20556C3.84657 11.4274 3.55556 11.1364 3.55556 10.7774Z" fill="#E7E7E7"/>
</svg>
