<svg width="15" height="15" viewBox="0 0 15 15" fill="none" xmlns="http://www.w3.org/2000/svg">
<path fill-rule="evenodd" clip-rule="evenodd" d="M7.33268 0.318359C7.15587 0.318359 6.9863 0.388597 6.86128 0.513622C6.73625 0.638646 6.66602 0.808215 6.66602 0.985026V7.65169C6.66602 8.01988 6.96449 8.31836 7.33268 8.31836H13.9993C14.3675 8.31836 14.666 8.01988 14.666 7.65169C14.666 6.68867 14.4763 5.73507 14.1078 4.84535C13.7393 3.95563 13.1991 3.14721 12.5181 2.46624C11.8372 1.78528 11.0287 1.24511 10.139 0.876576C9.24931 0.508042 8.29571 0.318359 7.33268 0.318359ZM7.99935 6.98503V1.68884C8.55841 1.75135 9.10702 1.89229 9.62878 2.10842C10.3567 2.40994 11.0182 2.8519 11.5753 3.40905C12.1325 3.9662 12.5744 4.62764 12.876 5.35559C13.0921 5.87736 13.233 6.42597 13.2955 6.98503H7.99935ZM4.93358 2.147C5.27103 1.99974 5.42522 1.60679 5.27796 1.26934C5.1307 0.931878 4.73775 0.777693 4.4003 0.924954C3.30241 1.40405 2.3386 2.1448 1.59313 3.08244C0.847659 4.02008 0.343227 5.12606 0.123934 6.30369C-0.0953593 7.48131 -0.0228366 8.69473 0.335161 9.83785C0.693159 10.981 1.32573 12.019 2.17758 12.8612C3.02942 13.7033 4.0746 14.324 5.22174 14.6689C6.36887 15.0139 7.58304 15.0725 8.75808 14.8398C9.93313 14.6071 11.0333 14.09 11.9623 13.3339C12.8914 12.5778 13.6211 11.6056 14.0876 10.5023C14.231 10.1632 14.0724 9.77201 13.7332 9.62862C13.3941 9.48522 13.003 9.64388 12.8596 9.983C12.4779 10.8857 11.8808 11.6811 11.1207 12.2998C10.3606 12.9184 9.46044 13.3415 8.49904 13.5319C7.53764 13.7223 6.54423 13.6743 5.60566 13.3921C4.6671 13.1099 3.81195 12.602 3.11499 11.913C2.41802 11.2239 1.90046 10.3746 1.60756 9.43937C1.31465 8.50409 1.25531 7.51129 1.43473 6.54778C1.61416 5.58427 2.02687 4.67937 2.6368 3.91222C3.24673 3.14506 4.03531 2.53899 4.93358 2.147Z" fill="#7132F5"/>
</svg>
