<svg width="18" height="17" viewBox="0 0 18 17" fill="none" xmlns="http://www.w3.org/2000/svg">
<path fill-rule="evenodd" clip-rule="evenodd" d="M7.55736 1.93283C8.9341 1.62177 10.3745 1.76408 11.6638 2.33854C12.0306 2.50201 12.4606 2.33712 12.6241 1.97024C12.7875 1.60336 12.6226 1.17342 12.2558 1.00995C10.68 0.307832 8.9195 0.133894 7.23681 0.514074C5.55413 0.894255 4.03941 1.80818 2.91858 3.11956C1.79775 4.43093 1.13085 6.06949 1.01734 7.79085C0.903835 9.51221 1.34981 11.2241 2.28874 12.6713C3.22767 14.1185 4.60926 15.2234 6.22746 15.8213C7.84566 16.4191 9.61375 16.4779 11.2681 15.9887C12.9224 15.4996 14.3742 14.4888 15.4071 13.1071C16.4401 11.7254 16.9987 10.0465 16.9996 8.32137V7.65229C16.9996 7.25064 16.674 6.92504 16.2724 6.92504C15.8707 6.92504 15.5451 7.25064 15.5451 7.65229V8.32095C15.5443 9.7324 15.0873 11.1058 14.2422 12.2362C13.3971 13.3667 12.2092 14.1937 10.8557 14.5939C9.50213 14.9941 8.0555 14.946 6.73153 14.4569C5.40755 13.9678 4.27716 13.0638 3.50894 11.8797C2.74072 10.6956 2.37583 9.29494 2.4687 7.88655C2.56157 6.47816 3.10722 5.13753 4.02426 4.06459C4.94131 2.99164 6.18062 2.24388 7.55736 1.93283ZM16.7868 3.01565C17.0706 2.7315 17.0704 2.27102 16.7863 1.98715C16.5021 1.70328 16.0416 1.70351 15.7578 1.98767L8.99945 8.75274L7.33218 7.08548C7.04817 6.80147 6.5877 6.80147 6.30369 7.08548C6.01968 7.36949 6.01968 7.82996 6.30369 8.11398L8.48546 10.2957C8.62189 10.4322 8.80694 10.5088 8.99989 10.5088C9.19283 10.5087 9.37785 10.432 9.51421 10.2955L16.7868 3.01565Z" fill="#04AA34"/>
<path d="M11.6638 2.33854L11.6231 2.42988L11.6638 2.33854ZM7.55736 1.93283L7.53532 1.83529L7.55736 1.93283ZM12.6241 1.97024L12.5327 1.92954V1.92954L12.6241 1.97024ZM12.2558 1.00995L12.2151 1.10129L12.2558 1.00995ZM7.23681 0.514074L7.25885 0.611616L7.23681 0.514074ZM2.91858 3.11956L2.84256 3.05459H2.84256L2.91858 3.11956ZM1.01734 7.79085L1.11712 7.79743L1.01734 7.79085ZM2.28874 12.6713L2.20485 12.7258L2.28874 12.6713ZM6.22746 15.8213L6.1928 15.9151L6.22746 15.8213ZM11.2681 15.9887L11.2397 15.8928L11.2681 15.9887ZM15.4071 13.1071L15.3271 13.0473L15.4071 13.1071ZM16.9996 8.32137L17.0996 8.32143V8.32137H16.9996ZM15.5451 8.32095L15.6451 8.32101V8.32095H15.5451ZM14.2422 12.2362L14.1621 12.1764L14.2422 12.2362ZM10.8557 14.5939L10.8273 14.498L10.8557 14.5939ZM3.50894 11.8797L3.42505 11.9341L3.50894 11.8797ZM2.4687 7.88655L2.36892 7.87997L2.4687 7.88655ZM4.02426 4.06459L4.10028 4.12956L4.02426 4.06459ZM16.7868 3.01565L16.716 2.94497V2.94497L16.7868 3.01565ZM15.7578 1.98767L15.8285 2.05834L15.7578 1.98767ZM8.99945 8.75274L8.92874 8.82345C8.9475 8.84221 8.97294 8.85275 8.99947 8.85274C9.026 8.85274 9.05144 8.84219 9.07019 8.82342L8.99945 8.75274ZM6.30369 7.08548L6.3744 7.15619L6.30369 7.08548ZM6.30369 8.11398L6.3744 8.04326L6.30369 8.11398ZM8.99989 10.5088L8.99991 10.6088H8.99991L8.99989 10.5088ZM9.51421 10.2955L9.44346 10.2248L9.51421 10.2955ZM11.7045 2.2472C10.3955 1.66396 8.9331 1.51948 7.53532 1.83529L7.5794 2.03037C8.93511 1.72406 10.3535 1.8642 11.6231 2.42988L11.7045 2.2472ZM12.5327 1.92954C12.3917 2.24597 12.0209 2.38819 11.7045 2.2472L11.6231 2.42988C12.0404 2.61583 12.5295 2.42827 12.7154 2.01094L12.5327 1.92954ZM12.2151 1.10129C12.5315 1.24228 12.6737 1.6131 12.5327 1.92954L12.7154 2.01094C12.9014 1.59361 12.7138 1.10455 12.2965 0.918604L12.2151 1.10129ZM7.25885 0.611616C8.9205 0.236187 10.659 0.407951 12.2151 1.10129L12.2965 0.918604C10.701 0.207712 8.91849 0.0315999 7.21477 0.416533L7.25885 0.611616ZM2.9946 3.18453C4.10142 1.88955 5.5972 0.987044 7.25885 0.611616L7.21477 0.416533C5.51105 0.801466 3.97741 1.72682 2.84256 3.05459L2.9946 3.18453ZM1.11712 7.79743C1.22921 6.09758 1.88778 4.47951 2.9946 3.18453L2.84256 3.05459C1.70772 4.38235 1.03248 6.04139 0.917558 7.78427L1.11712 7.79743ZM2.37263 12.6169C1.44543 11.1878 1.00504 9.49727 1.11712 7.79743L0.917558 7.78427C0.802633 9.52715 1.25418 11.2605 2.20485 12.7258L2.37263 12.6169ZM6.26212 15.7275C4.66415 15.1371 3.29983 14.046 2.37263 12.6169L2.20485 12.7258C3.15552 14.1911 4.55438 15.3098 6.1928 15.9151L6.26212 15.7275ZM11.2397 15.8928C9.60608 16.3759 7.86008 16.3178 6.26212 15.7275L6.1928 15.9151C7.83123 16.5204 9.62143 16.5799 11.2964 16.0846L11.2397 15.8928ZM15.3271 13.0473C14.3071 14.4117 12.8733 15.4098 11.2397 15.8928L11.2964 16.0846C12.9714 15.5894 14.4414 14.566 15.4872 13.167L15.3271 13.0473ZM16.8996 8.32131C16.8987 10.0249 16.347 11.6828 15.3271 13.0473L15.4872 13.167C16.5331 11.768 17.0986 10.0681 17.0996 8.32143L16.8996 8.32131ZM16.8996 7.65229V8.32137H17.0996V7.65229H16.8996ZM16.2724 7.02504C16.6188 7.02504 16.8996 7.30587 16.8996 7.65229H17.0996C17.0996 7.19541 16.7293 6.82504 16.2724 6.82504V7.02504ZM15.6451 7.65229C15.6451 7.30587 15.926 7.02504 16.2724 7.02504V6.82504C15.8155 6.82504 15.4451 7.19541 15.4451 7.65229H15.6451ZM15.6451 8.32095V7.65229H15.4451V8.32095H15.6451ZM14.3223 12.2961C15.1803 11.1484 15.6443 9.75402 15.6451 8.32101L15.4451 8.3209C15.4443 9.71078 14.9943 11.0632 14.1621 12.1764L14.3223 12.2961ZM10.884 14.6898C12.2582 14.2835 13.4643 13.4439 14.3223 12.2961L14.1621 12.1764C13.3299 13.2896 12.1601 14.1039 10.8273 14.498L10.884 14.6898ZM6.69687 14.5507C8.04108 15.0473 9.5098 15.0961 10.884 14.6898L10.8273 14.498C9.49446 14.8921 8.06993 14.8448 6.76618 14.3631L6.69687 14.5507ZM3.42505 11.9341C4.205 13.1363 5.35267 14.0541 6.69687 14.5507L6.76618 14.3631C5.46243 13.8814 4.34931 12.9912 3.59283 11.8253L3.42505 11.9341ZM2.36892 7.87997C2.27463 9.30988 2.64509 10.732 3.42505 11.9341L3.59283 11.8253C2.83635 10.6593 2.47704 9.28 2.56849 7.89313L2.36892 7.87997ZM3.94825 3.99961C3.01719 5.08895 2.46321 6.45007 2.36892 7.87997L2.56849 7.89313C2.65994 6.50626 3.19724 5.18611 4.10028 4.12956L3.94825 3.99961ZM7.53532 1.83529C6.13755 2.15109 4.8793 2.91028 3.94825 3.99961L4.10028 4.12956C5.00331 3.07301 6.22369 2.33667 7.5794 2.03037L7.53532 1.83529ZM16.7156 2.0579C16.9607 2.30274 16.9609 2.69989 16.716 2.94497L16.8575 3.08633C17.1804 2.7631 17.1802 2.23931 16.8569 1.91641L16.7156 2.0579ZM15.8285 2.05834C16.0733 1.81326 16.4705 1.81306 16.7156 2.0579L16.8569 1.91641C16.5337 1.59351 16.0099 1.59377 15.687 1.91699L15.8285 2.05834ZM9.07019 8.82342L15.8285 2.05834L15.687 1.91699L8.9287 8.68207L9.07019 8.82342ZM7.26147 7.15619L8.92874 8.82345L9.07016 8.68203L7.40289 7.01477L7.26147 7.15619ZM6.3744 7.15619C6.61936 6.91123 7.01651 6.91123 7.26147 7.15619L7.40289 7.01477C7.07983 6.69171 6.55604 6.69171 6.23298 7.01477L6.3744 7.15619ZM6.3744 8.04326C6.12944 7.79831 6.12944 7.40115 6.3744 7.15619L6.23298 7.01477C5.90991 7.33783 5.90991 7.86162 6.23298 8.18469L6.3744 8.04326ZM8.55617 10.225L6.3744 8.04326L6.23298 8.18469L8.41475 10.3665L8.55617 10.225ZM8.99986 10.4088C8.83345 10.4088 8.67384 10.3427 8.55617 10.225L8.41475 10.3665C8.56994 10.5216 8.78044 10.6088 8.99991 10.6088L8.99986 10.4088ZM9.44346 10.2248C9.32585 10.3425 9.16628 10.4087 8.99986 10.4088L8.99991 10.6088C9.21939 10.6087 9.42984 10.5214 9.58496 10.3662L9.44346 10.2248ZM16.716 2.94497L9.44346 10.2248L9.58496 10.3662L16.8575 3.08633L16.716 2.94497Z" fill="#04AA34"/>
</svg>
