<svg width="16" height="17" viewBox="0 0 16 17" fill="none" xmlns="http://www.w3.org/2000/svg">
<ellipse cx="7.99993" cy="8.63654" rx="7.99993" ry="7.99983" fill="#ED2626"/>
<path fill-rule="evenodd" clip-rule="evenodd" d="M5.10064 4.67865C4.80774 4.38576 4.33287 4.38576 4.03998 4.67866C3.74709 4.97155 3.74709 5.44643 4.03999 5.73932L6.93836 8.63765L4.04033 11.5356C3.74743 11.8285 3.74743 12.3034 4.04032 12.5963C4.33321 12.8892 4.80808 12.8892 5.10098 12.5963L7.99902 9.6983L10.8971 12.5963C11.19 12.8892 11.6648 12.8892 11.9577 12.5963C12.2506 12.3034 12.2506 11.8285 11.9577 11.5356L9.05969 8.63765L11.9581 5.73932C12.251 5.44643 12.251 4.97155 11.9581 4.67866C11.6652 4.38576 11.1903 4.38576 10.8974 4.67865L7.99902 7.577L5.10064 4.67865Z" fill="white"/>
</svg>
