<svg width="18" height="16" viewBox="0 0 18 16" fill="none" xmlns="http://www.w3.org/2000/svg">
<path d="M3.03705 11.4528L2.7056 11.8271H2.7056L3.03705 11.4528ZM6.33333 13.2052L6.19848 13.6867L6.33333 13.2052ZM2 15.2494L1.76309 15.6897C1.78669 15.7024 1.81127 15.7132 1.8366 15.722L2 15.2494ZM16.5 7.1069C16.5 8.98079 15.6816 10.4935 14.3467 11.5494C13.0025 12.6125 11.1177 13.2227 9 13.2227V14.2227C11.3006 14.2227 13.4157 13.5607 14.967 12.3337C16.5275 11.0995 17.5 9.30428 17.5 7.1069H16.5ZM1.5 7.1069C1.5 4.00451 4.7166 1.49999 9 1.49999V0.499993C4.44684 0.499993 0.499999 3.20683 0.499999 7.1069H1.5ZM9 1.49999C11.1411 1.49999 13.0304 1.99446 14.3693 2.93575C15.6891 3.86368 16.5 5.24046 16.5 7.1069H17.5C17.5 4.90207 16.52 3.2254 14.9444 2.11769C13.3878 1.02334 11.2772 0.499993 9 0.499993V1.49999ZM3.3685 11.0784C2.19885 10.0429 1.5 8.5745 1.5 7.1069H0.499999C0.499999 8.88664 1.3417 10.6196 2.7056 11.8271L3.3685 11.0784ZM9 13.2227C8.1499 13.2227 7.32999 12.9652 6.46819 12.7238L6.19848 13.6867C7.00483 13.9126 7.98004 14.2227 9 14.2227V13.2227ZM6.46819 12.7238C6.19252 12.6466 5.94658 12.7525 5.80259 12.8319C5.64461 12.9191 5.48721 13.0437 5.34298 13.1674C5.19603 13.2935 5.03527 13.443 4.87578 13.5893C4.71269 13.7389 4.54411 13.8916 4.36709 14.0389C3.62773 14.654 2.90513 15.0334 2.1634 14.7769L1.8366 15.722C3.13192 16.1699 4.25106 15.4362 5.00664 14.8076C5.20336 14.644 5.38683 14.4775 5.55176 14.3262C5.72029 14.1716 5.86351 14.0385 5.99413 13.9264C6.12747 13.812 6.22123 13.743 6.28562 13.7075C6.36402 13.6643 6.31169 13.7184 6.19848 13.6867L6.46819 12.7238ZM2.23691 14.8091C2.42822 14.9121 2.40514 15.093 2.40645 15.0284C2.40731 14.9864 2.42261 14.8934 2.47165 14.7361C2.56732 14.4294 2.74175 14.0281 2.93592 13.5884C3.12276 13.1653 3.32816 12.706 3.45622 12.3286C3.51957 12.1419 3.57497 11.9446 3.59301 11.7648C3.60713 11.6239 3.62044 11.3015 3.3685 11.0784L2.7056 11.8271C2.56275 11.7007 2.6085 11.5602 2.598 11.665C2.5914 11.7307 2.56511 11.8427 2.50926 12.0072C2.39894 12.3323 2.21599 12.7432 2.02114 13.1845C1.83364 13.6091 1.63304 14.0663 1.51699 14.4384C1.46017 14.6206 1.41044 14.8221 1.40666 15.0081C1.40334 15.1714 1.43602 15.5138 1.76309 15.6897L2.23691 14.8091Z" fill="white"/>
<path d="M6.06985 7.41493C6.06985 7.72176 5.82112 7.97049 5.5143 7.97049C5.20747 7.97049 4.95874 7.72176 4.95874 7.41493C4.95874 7.10811 5.20747 6.85938 5.5143 6.85938C5.82112 6.85938 6.06985 7.10811 6.06985 7.41493Z" fill="white"/>
<path d="M9.40319 7.41493C9.40319 7.72176 9.15446 7.97049 8.84763 7.97049C8.54081 7.97049 8.29208 7.72176 8.29208 7.41493C8.29208 7.10811 8.54081 6.85938 8.84763 6.85938C9.15446 6.85938 9.40319 7.10811 9.40319 7.41493Z" fill="white"/>
<path d="M12.7365 7.41493C12.7365 7.72176 12.4878 7.97049 12.181 7.97049C11.8741 7.97049 11.6254 7.72176 11.6254 7.41493C11.6254 7.10811 11.8741 6.85938 12.181 6.85938C12.4878 6.85938 12.7365 7.10811 12.7365 7.41493Z" fill="white"/>
</svg>
