<svg width="17" height="16" viewBox="0 0 17 16" fill="none" xmlns="http://www.w3.org/2000/svg">
<path fill-rule="evenodd" clip-rule="evenodd" d="M7.0049 15.5681C7.12334 15.8307 7.38761 16 7.67922 16C8.46205 16 9.21282 15.6935 9.76637 15.148C10.3199 14.6024 10.6309 13.8625 10.6309 13.0909V10.9091L14.0658 10.9091C14.3851 10.912 14.7014 10.8468 14.9927 10.7179C15.2855 10.5884 15.5462 10.3977 15.7568 10.1591C15.9674 9.9204 16.1228 9.63946 16.2123 9.33572C16.3017 9.03198 16.3231 8.7127 16.275 8.4L15.2567 1.85468C15.2566 1.85448 15.2567 1.85487 15.2567 1.85468C15.1765 1.33464 14.9083 0.860076 14.5017 0.519403C14.096 0.179568 13.5797 -0.00476646 13.0474 9.34601e-05L2.5138 9.34601e-05C1.92668 9.34601e-05 1.3636 0.229962 0.948442 0.63913C0.533283 1.0483 0.300049 1.60325 0.300049 2.1819L0.300049 7.27278C0.300049 7.85143 0.533283 8.40638 0.948442 8.81555C1.3636 9.22472 1.92668 9.45458 2.5138 9.45458H4.248L7.0049 15.5681ZM5.46547 8.57298L8.12775 14.4767C8.35015 14.4067 8.55466 14.2851 8.72279 14.1194C8.99957 13.8467 9.15506 13.4767 9.15506 13.0909V10.1819C9.15506 9.78019 9.48543 9.45458 9.89297 9.45458L14.0696 9.45458L14.0779 9.45463C14.1849 9.45582 14.2909 9.43408 14.3884 9.39092C14.486 9.34775 14.5729 9.28418 14.6431 9.20463C14.7133 9.12507 14.7651 9.03142 14.795 8.93018C14.8247 8.82903 14.8319 8.7227 14.8159 8.61856C14.8159 8.61846 14.8159 8.61866 14.8159 8.61856L13.7975 2.07276C13.7708 1.89934 13.6815 1.74127 13.5459 1.62767C13.4103 1.51407 13.2376 1.4526 13.0596 1.45459L5.46547 1.45463L5.46547 8.57298ZM3.98963 1.45463L3.98963 8.00005H2.5138C2.31809 8.00005 2.1304 7.92342 1.99201 7.78703C1.85363 7.65065 1.77588 7.46566 1.77588 7.27278L1.77588 2.1819C1.77588 1.98902 1.85363 1.80403 1.99201 1.66764C2.1304 1.53125 2.31809 1.45463 2.5138 1.45463H3.98963Z" fill="white"/>
</svg>
