<svg width="10" height="17" viewBox="0 0 10 17" fill="none" xmlns="http://www.w3.org/2000/svg">
<path fill-rule="evenodd" clip-rule="evenodd" d="M4.66667 0.317383C5.03486 0.317383 5.33333 0.61586 5.33333 0.984049V15.6507C5.33333 16.0189 5.03486 16.3174 4.66667 16.3174C4.29848 16.3174 4 16.0189 4 15.6507V0.984049C4 0.61586 4.29848 0.317383 4.66667 0.317383Z" fill="#3EA201"/>
<path fill-rule="evenodd" clip-rule="evenodd" d="M0.87868 3.86273C1.44129 3.30012 2.20435 2.98405 3 2.98405H8C8.36819 2.98405 8.66667 3.28253 8.66667 3.65072C8.66667 4.01891 8.36819 4.31738 8 4.31738H3C2.55797 4.31738 2.13405 4.49298 1.82149 4.80554C1.50893 5.1181 1.33333 5.54202 1.33333 5.98405C1.33333 6.42608 1.50893 6.85 1.82149 7.16256C2.13405 7.47512 2.55797 7.65072 3 7.65072H6.33333C7.12898 7.65072 7.89205 7.96679 8.45465 8.5294C9.01726 9.09201 9.33333 9.85507 9.33333 10.6507C9.33333 11.4464 9.01726 12.2094 8.45465 12.772C7.89205 13.3346 7.12898 13.6507 6.33333 13.6507H0.666667C0.298477 13.6507 0 13.3522 0 12.984C0 12.6159 0.298477 12.3174 0.666667 12.3174H6.33333C6.77536 12.3174 7.19929 12.1418 7.51185 11.8292C7.82441 11.5167 8 11.0927 8 10.6507C8 10.2087 7.82441 9.78477 7.51185 9.47221C7.19929 9.15965 6.77536 8.98405 6.33333 8.98405H3C2.20435 8.98405 1.44129 8.66798 0.87868 8.10537C0.316071 7.54276 0 6.7797 0 5.98405C0 5.1884 0.316071 4.42534 0.87868 3.86273Z" fill="#3EA201"/>
</svg>
