<svg width="15" height="17" viewBox="0 0 15 17" fill="none" xmlns="http://www.w3.org/2000/svg">
<path fill-rule="evenodd" clip-rule="evenodd" d="M14.2072 8.79321C14.3947 8.98074 14.5 9.23505 14.5 9.50021C14.5 9.76538 14.3947 10.0197 14.2072 10.2072L8.20721 16.2072C8.01969 16.3947 7.76538 16.5 7.50021 16.5C7.23505 16.5 6.98074 16.3947 6.79321 16.2072L0.793213 10.2072C0.611054 10.0186 0.510261 9.76601 0.512539 9.50381C0.514817 9.24162 0.619987 8.9908 0.805395 8.8054C0.990803 8.61999 1.24162 8.51482 1.50381 8.51254C1.76601 8.51026 2.01861 8.61106 2.20721 8.79321L6.50021 13.0862L6.50021 1.50021C6.50021 1.235 6.60557 0.980642 6.79311 0.793106C6.98064 0.60557 7.235 0.500214 7.50021 0.500214C7.76543 0.500214 8.01978 0.60557 8.20732 0.793106C8.39486 0.980642 8.50021 1.235 8.50021 1.50021L8.50021 13.0862L12.7932 8.79321C12.9807 8.60574 13.235 8.50043 13.5002 8.50043C13.7654 8.50043 14.0197 8.60574 14.2072 8.79321Z" fill="white"/>
</svg>
