<svg width="14" height="15" viewBox="0 0 14 15" fill="none" xmlns="http://www.w3.org/2000/svg">
<path fill-rule="evenodd" clip-rule="evenodd" d="M7.5988 0.373529C7.87028 0.491375 8.03157 0.774087 7.99486 1.06775L7.42186 5.65173H12.6667C12.9254 5.65173 13.1607 5.80137 13.2704 6.03563C13.3801 6.26988 13.3444 6.54646 13.1788 6.74519L6.51216 14.7452C6.32269 14.9725 6.00602 15.0478 5.73455 14.9299C5.46307 14.8121 5.30178 14.5294 5.33849 14.2357L5.91149 9.65173H0.666675C0.407996 9.65173 0.172668 9.50209 0.0629485 9.26783C-0.0467714 9.03358 -0.0110746 8.757 0.154527 8.55827L6.82119 0.558274C7.01066 0.330918 7.32733 0.255683 7.5988 0.373529ZM2.09004 8.3184H6.66668C6.8579 8.3184 7.03991 8.40051 7.16646 8.54386C7.29301 8.68721 7.35191 8.87801 7.32819 9.06775L6.94357 12.1448L11.2433 6.98506H6.66668C6.47545 6.98506 6.29344 6.90295 6.16689 6.7596C6.04034 6.61624 5.98144 6.42545 6.00516 6.23571L6.38978 3.1587L2.09004 8.3184Z" fill="#FFE604"/>
</svg>
