<svg width="16" height="15" viewBox="0 0 16 15" fill="none" xmlns="http://www.w3.org/2000/svg">
<path fill-rule="evenodd" clip-rule="evenodd" d="M9.27543 1.28513C9.80131 1.06723 10.365 0.955078 10.9342 0.955078C11.5034 0.955078 12.0671 1.06723 12.593 1.28513C13.1187 1.50299 13.5965 1.82228 13.9988 2.22478C14.4013 2.62715 14.7208 3.10508 14.9387 3.63086C15.1566 4.15674 15.2687 4.72039 15.2687 5.28963C15.2687 5.85886 15.1566 6.42252 14.9387 6.94839C14.7208 7.47422 14.4015 7.95197 13.9989 8.35437C13.9989 8.3544 13.999 8.35433 13.9989 8.35437L8.1056 14.2477C7.84525 14.508 7.42314 14.508 7.16279 14.2477L1.26946 8.35437C0.456637 7.54155 0 6.43913 0 5.28963C0 4.14013 0.456637 3.03771 1.26946 2.22489C2.08228 1.41207 3.18469 0.955435 4.33419 0.955435C5.48369 0.955435 6.58611 1.41207 7.39893 2.22489L7.63419 2.46015L7.86935 2.225C7.86931 2.22504 7.86938 2.22496 7.86935 2.225C8.27174 1.82245 8.7496 1.50301 9.27543 1.28513ZM10.9342 2.28841C10.5401 2.28841 10.1499 2.36606 9.78582 2.51691C9.42175 2.66776 9.09097 2.88886 8.81238 3.16759L8.1056 3.87437C7.84525 4.13472 7.42314 4.13472 7.16279 3.87437L6.45612 3.1677C5.89335 2.60493 5.13007 2.28877 4.33419 2.28877C3.53832 2.28877 2.77504 2.60493 2.21227 3.1677C1.64949 3.73047 1.33333 4.49375 1.33333 5.28963C1.33333 6.08551 1.64949 6.84879 2.21227 7.41156L7.63419 12.8335L13.0561 7.41156C13.3348 7.13296 13.5561 6.80207 13.7069 6.438C13.8578 6.07393 13.9354 5.68371 13.9354 5.28963C13.9354 4.89555 13.8578 4.50532 13.7069 4.14125C13.5561 3.77718 13.335 3.4464 13.0562 3.16781C12.7776 2.88909 12.4466 2.66776 12.0826 2.51691C11.7185 2.36606 11.3283 2.28841 10.9342 2.28841Z" fill="#D13EB1"/>
</svg>
