<svg width="16" height="17" viewBox="0 0 16 17" fill="none" xmlns="http://www.w3.org/2000/svg">
<path d="M8 16.3174C3.56364 16.3174 0 12.7537 0 8.31738C0 3.88102 3.56364 0.317383 8 0.317383C12.4364 0.317383 16 3.88102 16 8.31738C16 12.7537 12.4364 16.3174 8 16.3174ZM8 1.77193C4.36364 1.77193 1.45455 4.68102 1.45455 8.31738C1.45455 11.9537 4.36364 14.8628 8 14.8628C11.6364 14.8628 14.5455 11.9537 14.5455 8.31738C14.5455 4.68102 11.6364 1.77193 8 1.77193Z" fill="#DD7700"/>
<path d="M8 9.04466C7.56364 9.04466 7.27273 8.75375 7.27273 8.31738V5.40829C7.27273 4.97193 7.56364 4.68102 8 4.68102C8.43636 4.68102 8.72727 4.97193 8.72727 5.40829V8.31738C8.72727 8.75375 8.43636 9.04466 8 9.04466Z" fill="#DD7700"/>
<path d="M8 11.9537C7.78182 11.9537 7.63636 11.881 7.49091 11.7356C7.34545 11.5901 7.27273 11.4447 7.27273 11.2265C7.27273 11.1537 7.27273 11.0083 7.34546 10.9356C7.41818 10.8628 7.41818 10.7901 7.49091 10.7174C7.70909 10.4992 8 10.4265 8.29091 10.5719C8.36364 10.5719 8.36364 10.5719 8.43636 10.6447C8.43636 10.6447 8.50909 10.7174 8.58182 10.7174C8.65455 10.7901 8.72727 10.8628 8.72727 10.9356C8.72727 11.0083 8.72727 11.1537 8.72727 11.2265C8.72727 11.2992 8.72727 11.4447 8.65455 11.5174C8.58182 11.5901 8.58182 11.6628 8.50909 11.7356C8.36364 11.881 8.21818 11.9537 8 11.9537Z" fill="#DD7700"/>
</svg>
