<svg width="15" height="13" viewBox="0 0 15 13" fill="none" xmlns="http://www.w3.org/2000/svg">
<path d="M7.08721 0.406685C7.28575 0.116203 7.71425 0.116204 7.91279 0.406686L9.99123 3.44762C10.0564 3.54292 10.1525 3.61275 10.2632 3.64525L13.7981 4.68253C14.1357 4.7816 14.2681 5.18914 14.0531 5.46772L11.803 8.38426C11.7325 8.47566 11.6958 8.58864 11.6991 8.70403L11.8049 12.3858C11.815 12.7375 11.4683 12.9894 11.1369 12.8711L7.66811 11.6327C7.5594 11.5939 7.4406 11.5939 7.33189 11.6327L3.86305 12.8711C3.5317 12.9894 3.18504 12.7375 3.19514 12.3858L3.30089 8.70403C3.3042 8.58864 3.26748 8.47566 3.19697 8.38426L0.946857 5.46772C0.731933 5.18914 0.864333 4.7816 1.20195 4.68253L4.73676 3.64525C4.84753 3.61275 4.94363 3.54292 5.00877 3.44762L7.08721 0.406685Z" fill="white"/>
</svg>
