<svg width="15" height="15" viewBox="0 0 15 15" fill="none" xmlns="http://www.w3.org/2000/svg">
<path fill-rule="evenodd" clip-rule="evenodd" d="M6.05746 0.71329C6.16446 0.472539 6.40321 0.317383 6.66667 0.317383C7.37391 0.317383 8.05219 0.598334 8.55228 1.09843C9.05238 1.59853 9.33333 2.27681 9.33333 2.98405V4.98405H12.4366C12.7251 4.98138 13.0108 5.04116 13.274 5.15931C13.5385 5.27802 13.7741 5.45283 13.9643 5.67161C14.1546 5.89039 14.295 6.14791 14.3758 6.42634C14.4566 6.70477 14.476 6.99745 14.4324 7.28409L13.5125 13.284C13.5124 13.2842 13.5125 13.2838 13.5125 13.284C13.44 13.7607 13.1978 14.1957 12.8304 14.508C12.4639 14.8195 11.9974 14.9885 11.5165 14.984H2C1.46957 14.984 0.960859 14.7733 0.585786 14.3983C0.210714 14.0232 0 13.5145 0 12.984V8.31738C0 7.78695 0.210714 7.27824 0.585786 6.90317C0.960859 6.5281 1.46957 6.31738 2 6.31738H3.56675L6.05746 0.71329ZM4.66667 7.12553L7.07189 1.71378C7.27281 1.77788 7.45758 1.88934 7.60948 2.04124C7.85952 2.29129 8 2.63043 8 2.98405V5.65072C8 6.01891 8.29848 6.31738 8.66667 6.31738H12.44L12.4475 6.31734C12.5442 6.31625 12.6399 6.33617 12.7281 6.37575C12.8162 6.41532 12.8948 6.47358 12.9582 6.54651C13.0216 6.61944 13.0684 6.70528 13.0953 6.79809C13.1222 6.89081 13.1287 6.98828 13.1143 7.08374C13.1142 7.08383 13.1143 7.08365 13.1143 7.08374L12.1942 13.0841C12.1701 13.2431 12.0893 13.388 11.9668 13.4921C11.8443 13.5962 11.6883 13.6526 11.5275 13.6508L4.66667 13.6507V7.12553ZM3.33333 13.6507V7.65072H2C1.82319 7.65072 1.65362 7.72095 1.5286 7.84598C1.40357 7.971 1.33333 8.14057 1.33333 8.31738V12.984C1.33333 13.1609 1.40357 13.3304 1.5286 13.4555C1.65362 13.5805 1.82319 13.6507 2 13.6507H3.33333Z" fill="#06A1C2"/>
</svg>
