<svg width="17" height="16" viewBox="0 0 17 16" fill="none" xmlns="http://www.w3.org/2000/svg">
<path fill-rule="evenodd" clip-rule="evenodd" d="M7.0049 0.431897C7.12334 0.16926 7.3876 0 7.67922 0C8.46205 0 9.21282 0.306491 9.76637 0.852048C10.3199 1.39761 10.6309 2.13754 10.6309 2.90907V5.09088H14.0658C14.3851 5.08797 14.7014 5.15318 14.9927 5.28207C15.2855 5.41158 15.5462 5.60227 15.7568 5.84094C15.9674 6.0796 16.1228 6.36054 16.2123 6.66428C16.3017 6.96802 16.3231 7.2873 16.275 7.6L15.2567 14.1453C15.1765 14.6654 14.9083 15.1399 14.5017 15.4806C14.096 15.8204 13.5797 16.0048 13.0474 15.9999H2.5138C1.92668 15.9999 1.3636 15.77 0.948442 15.3609C0.533283 14.9517 0.300049 14.3968 0.300049 13.8181V8.72722C0.300049 8.14857 0.533283 7.59362 0.948442 7.18445C1.3636 6.77528 1.92668 6.54542 2.5138 6.54542H4.248L7.0049 0.431897ZM5.46547 7.42702L8.12775 1.52334C8.35015 1.59326 8.55466 1.71486 8.72279 1.88056C8.99957 2.15334 9.15506 2.52331 9.15506 2.90907V5.81815C9.15506 6.21981 9.48543 6.54542 9.89297 6.54542H14.0696L14.0779 6.54537C14.1849 6.54418 14.2909 6.56592 14.3884 6.60908C14.486 6.65225 14.5729 6.71582 14.6431 6.79537C14.7133 6.87493 14.7651 6.96858 14.795 7.06982C14.8247 7.17097 14.8319 7.2773 14.8159 7.38144L13.7975 13.9272C13.7708 14.1007 13.6815 14.2587 13.5459 14.3723C13.4102 14.4859 13.2376 14.5474 13.0596 14.5454L5.46547 14.5454V7.42702ZM3.98963 14.5454V7.99995H2.5138C2.31809 7.99995 2.1304 8.07658 1.99201 8.21297C1.85363 8.34935 1.77588 8.53434 1.77588 8.72722V13.8181C1.77588 14.011 1.85363 14.196 1.99201 14.3324C2.1304 14.4687 2.31809 14.5454 2.5138 14.5454H3.98963Z" fill="white"/>
</svg>
