<svg width="15" height="15" viewBox="0 0 15 15" fill="none" xmlns="http://www.w3.org/2000/svg">
<path fill-rule="evenodd" clip-rule="evenodd" d="M6.05746 0.714267C6.16446 0.473515 6.40321 0.318359 6.66667 0.318359C7.37391 0.318359 8.05219 0.599311 8.55228 1.09941C9.05238 1.59951 9.33333 2.27778 9.33333 2.98503V4.98503H12.4366C12.7251 4.98236 13.0108 5.04214 13.274 5.16029C13.5385 5.279 13.7741 5.4538 13.9643 5.67258C14.1546 5.89136 14.295 6.14889 14.3758 6.42732C14.4566 6.70575 14.476 6.99843 14.4324 7.28507L13.5125 13.285C13.5124 13.2852 13.5125 13.2848 13.5125 13.285C13.44 13.7617 13.1978 14.1967 12.8304 14.509C12.4639 14.8205 11.9974 14.9895 11.5165 14.985H2C1.46957 14.985 0.960859 14.7743 0.585786 14.3992C0.210714 14.0242 0 13.5155 0 12.985V8.31836C0 7.78793 0.210714 7.27922 0.585786 6.90415C0.960859 6.52907 1.46957 6.31836 2 6.31836H3.56675L6.05746 0.714267ZM4.66667 7.1265L7.07189 1.71476C7.27281 1.77886 7.45758 1.89032 7.60948 2.04222C7.85952 2.29227 8 2.6314 8 2.98503V5.65169C8 6.01988 8.29848 6.31836 8.66667 6.31836H12.44L12.4475 6.31832C12.5442 6.31722 12.6399 6.33715 12.7281 6.37672C12.8162 6.41629 12.8948 6.47456 12.9582 6.54749C13.0216 6.62042 13.0684 6.70626 13.0953 6.79907C13.1222 6.89179 13.1287 6.98925 13.1143 7.08472C13.1142 7.08481 13.1143 7.08463 13.1143 7.08472L12.1942 13.0851C12.1701 13.244 12.0893 13.3889 11.9668 13.4931C11.8443 13.5972 11.6883 13.6536 11.5275 13.6517L4.66667 13.6517V7.1265ZM3.33333 13.6517V7.65169H2C1.82319 7.65169 1.65362 7.72193 1.5286 7.84695C1.40357 7.97198 1.33333 8.14155 1.33333 8.31836V12.985C1.33333 13.1618 1.40357 13.3314 1.5286 13.4564C1.65362 13.5815 1.82319 13.6517 2 13.6517H3.33333Z" fill="#039812"/>
</svg>
