<svg width="37" height="35" viewBox="0 0 37 35" fill="none" xmlns="http://www.w3.org/2000/svg">
<path d="M12.5 14.5833V11.6667C12.5 7.63959 14.3579 4.375 18.5 4.375C22.6421 4.375 24.5 7.63959 24.5 11.6667V14.5833" stroke="#D3E5F4" stroke-width="1.5" stroke-linecap="round" stroke-linejoin="round"/>
<path d="M5.75 25.959V19.2507C5.75 17.6172 5.75 16.8004 6.07698 16.1765C6.3646 15.6277 6.82354 15.1815 7.38803 14.9019C8.02976 14.584 8.86984 14.584 10.55 14.584H26.45C28.1302 14.584 28.9702 14.584 29.612 14.9019C30.1765 15.1815 30.6354 15.6277 30.923 16.1765C31.25 16.8004 31.25 17.6172 31.25 19.2507V25.959C31.25 27.5925 31.25 28.4092 30.923 29.0331C30.6354 29.5819 30.1765 30.0281 29.612 30.3078C28.9702 30.6257 28.1302 30.6257 26.45 30.6257H10.55C8.86984 30.6257 8.02976 30.6257 7.38803 30.3078C6.82354 30.0281 6.3646 29.5819 6.07698 29.0331C5.75 28.4092 5.75 27.5925 5.75 25.959Z" stroke="#D3E5F4" stroke-width="1.5" stroke-linecap="round" stroke-linejoin="round"/>
</svg>
