<svg width="16" height="16" viewBox="0 0 16 16" fill="none" xmlns="http://www.w3.org/2000/svg">
<path fill-rule="evenodd" clip-rule="evenodd" d="M0.694087 9.84208H3.73134C4.113 9.84208 4.42543 9.53697 4.42543 9.16423V1.36764C4.42543 0.994906 4.113 0.689793 3.73134 0.689793H0.694087C0.311868 0.689793 0 0.994906 0 1.36764V9.16423C0 9.53697 0.311868 9.84208 0.694087 9.84208ZM10.7662 10.2799C10.7203 10.1476 10.8183 10.0092 10.9583 10.0092H11.0476H14.8068C15.4632 10.0092 16 9.48503 16 8.84397C16 8.32247 15.6455 7.87887 15.1602 7.73064C15.1192 7.71819 15.0904 7.68682 15.0816 7.6457C15.0733 7.60459 15.0877 7.56456 15.1203 7.53751C15.3812 7.32382 15.548 7.00248 15.548 6.64597C15.548 6.01682 15.0301 5.4991 14.3897 5.4807C14.2944 5.47854 14.2191 5.40984 14.3421 5.34708C14.7226 5.15233 14.9841 4.7612 14.9841 4.31435C14.9841 3.75119 14.5703 3.27838 14.0252 3.17126C13.9781 3.16207 13.9438 3.12853 13.9344 3.08254C13.9255 3.03656 13.9449 2.99274 13.9848 2.96732C14.3127 2.75904 14.5304 2.39766 14.5304 1.98977C14.5304 1.34871 13.9936 0.823956 13.3372 0.823956C10.8622 0.823956 8.38942 0.856956 5.91885 0.856956C5.53718 0.856956 5.22476 1.16153 5.22476 1.5348V9.33139C5.22476 9.52777 5.31118 9.70521 5.44911 9.8291C5.44911 9.8291 7.05221 11.1577 7.41504 11.4726C8.23321 12.1813 8.84143 12.6146 9.14333 14.1699C9.20814 14.5037 9.16604 15.7009 9.39039 15.8978C9.54771 16.0363 9.84185 15.9898 9.94932 15.973C11.5087 15.729 11.5685 14.349 11.4754 13.1329C11.4054 12.2116 11.0846 11.1986 10.7662 10.2799Z" fill="#257BD2" fill-opacity="0.45"/>
</svg>
