<svg width="15" height="16" viewBox="0 0 15 16" fill="none" xmlns="http://www.w3.org/2000/svg">
<path d="M13.3333 0.318359H1.66667C0.75 0.318359 0 1.06836 0 1.98503V13.6517C0 14.5684 0.741667 15.3184 1.66667 15.3184H13.3333C14.25 15.3184 15 14.5684 15 13.6517V1.98503C15 1.06836 14.25 0.318359 13.3333 0.318359ZM13.3333 13.6517H1.66667V11.1517H4.63333C5.20833 12.1434 6.275 12.8184 7.50833 12.8184C8.74167 12.8184 9.8 12.1434 10.3833 11.1517H13.3333V13.6517ZM13.3333 9.48503H9.175C9.175 10.4017 8.425 11.1517 7.50833 11.1517C6.59167 11.1517 5.84167 10.4017 5.84167 9.48503H1.66667V1.98503H13.3333V9.48503Z" fill="#0063D2"/>
</svg>
