<svg width="16" height="16" viewBox="0 0 16 16" fill="none" xmlns="http://www.w3.org/2000/svg">
<path fill-rule="evenodd" clip-rule="evenodd" d="M0.694087 6.84152H3.73134C4.113 6.84152 4.42543 7.14663 4.42543 7.51936V15.316C4.42543 15.6887 4.113 15.9938 3.73134 15.9938H0.694087C0.311868 15.9938 0 15.6887 0 15.316V7.51936C0 7.14663 0.311868 6.84152 0.694087 6.84152ZM10.6717 6.67435H14.8068C15.4632 6.67435 16 7.19856 16 7.83962C16 8.36113 15.6455 8.80473 15.1602 8.95296C15.1192 8.9654 15.0904 8.99678 15.0816 9.03789C15.0733 9.07901 15.0877 9.11904 15.1203 9.14609C15.3812 9.35977 15.548 9.68112 15.548 10.0376V10.0382C15.548 10.6673 15.0301 11.1845 14.3897 11.2029C14.2944 11.2051 14.2191 11.2738 14.3421 11.3365C14.7226 11.5313 14.9841 11.9224 14.9841 12.3692C14.9841 12.9324 14.5703 13.4052 14.0252 13.5123C13.9781 13.5215 13.9438 13.5551 13.9344 13.6011C13.9255 13.647 13.9449 13.6909 13.9848 13.7163C14.3127 13.9246 14.5304 14.2859 14.5304 14.6938C14.5304 15.3349 13.9936 15.8596 13.3372 15.8596C10.8622 15.8596 8.38942 15.8266 5.91885 15.8266C5.53718 15.8266 5.22476 15.5221 5.22476 15.1488V7.3522C5.22476 7.15582 5.31118 6.97838 5.44911 6.8545C5.44911 6.8545 7.05221 5.52585 7.41504 5.211C8.23321 4.50232 8.84143 4.069 9.14333 2.51368C9.20814 2.1799 9.16604 0.98271 9.39039 0.785794C9.54771 0.647303 9.84185 0.693827 9.94931 0.710598C11.5087 0.954579 11.5685 2.33462 11.4754 3.55074C11.3984 4.56345 11.0184 5.68707 10.6717 6.67435Z" fill="#257BD2"/>
</svg>
