<svg width="21" height="20" viewBox="0 0 21 20" fill="none" xmlns="http://www.w3.org/2000/svg">
<path d="M13.771 14.8822C12.1012 16.1799 9.99984 16.7922 7.8947 16.5942C5.78957 16.3963 3.83899 15.403 2.44014 13.8166C1.04129 12.2303 0.299347 10.1701 0.365387 8.05565C0.431426 5.94118 1.30048 3.9314 2.7956 2.43552C4.29071 0.939633 6.29947 0.0701341 8.41285 0.00406071C10.5262 -0.0620127 12.5853 0.680308 14.1709 2.07987C15.7564 3.47944 16.7492 5.43102 16.9471 7.53723C17.1449 9.64345 16.533 11.7459 15.2359 13.4166L20.055 18.2201C20.4629 18.6267 20.4635 19.2872 20.0563 19.6946C19.6491 20.1021 18.9886 20.1017 18.5817 19.6939L13.7814 14.8822H13.771ZM8.68049 14.5495C9.49906 14.5495 10.3096 14.3882 11.0659 14.0748C11.8221 13.7614 12.5093 13.302 13.0881 12.7229C13.6669 12.1438 14.1261 11.4563 14.4393 10.6996C14.7526 9.94298 14.9138 9.13201 14.9138 8.31302C14.9138 7.49403 14.7526 6.68306 14.4393 5.92641C14.1261 5.16976 13.6669 4.48225 13.0881 3.90314C12.5093 3.32402 11.8221 2.86465 11.0659 2.55123C10.3096 2.23782 9.49906 2.07651 8.68049 2.07651C7.02731 2.07651 5.44183 2.73356 4.27286 3.90314C3.10388 5.07271 2.44716 6.659 2.44716 8.31302C2.44716 9.96705 3.10388 11.5533 4.27286 12.7229C5.44183 13.8925 7.02731 14.5495 8.68049 14.5495Z" fill="#8B83BA"/>
</svg>
