<svg width="15" height="15" viewBox="0 0 15 15" fill="none" xmlns="http://www.w3.org/2000/svg">
<path fill-rule="evenodd" clip-rule="evenodd" d="M1.33333 7.65169C1.33333 4.33798 4.01962 1.65169 7.33333 1.65169C10.647 1.65169 13.3333 4.33798 13.3333 7.65169C13.3333 10.9654 10.647 13.6517 7.33333 13.6517C4.01962 13.6517 1.33333 10.9654 1.33333 7.65169ZM7.33333 0.318359C3.28325 0.318359 0 3.6016 0 7.65169C0 11.7018 3.28325 14.985 7.33333 14.985C11.3834 14.985 14.6667 11.7018 14.6667 7.65169C14.6667 3.6016 11.3834 0.318359 7.33333 0.318359ZM10.9375 4.92774C11.0207 4.6782 10.9557 4.40308 10.7697 4.21709C10.5837 4.03109 10.3086 3.96615 10.0591 4.04933L5.6424 5.52155C5.43503 5.59067 5.27231 5.75339 5.20319 5.96075L3.73097 10.3774C3.64779 10.627 3.71273 10.9021 3.89873 11.0881C4.08472 11.2741 4.35984 11.339 4.60938 11.2558L9.02604 9.78361C9.23341 9.71449 9.39613 9.55177 9.46525 9.3444L10.9375 4.92774ZM5.48779 9.49901L6.411 6.72936L9.18065 5.80615L8.25744 8.5758L5.48779 9.49901Z" fill="#057FFA"/>
</svg>
