<svg width="18" height="16" viewBox="0 0 18 16" fill="none" xmlns="http://www.w3.org/2000/svg">
<path fill-rule="evenodd" clip-rule="evenodd" d="M3 8.88574C3.41421 8.88574 3.75 9.22153 3.75 9.63574V14.8857C3.75 15.3 3.41421 15.6357 3 15.6357C2.58579 15.6357 2.25 15.3 2.25 14.8857V9.63574C2.25 9.22153 2.58579 8.88574 3 8.88574Z" fill="#0C77E2"/>
<path fill-rule="evenodd" clip-rule="evenodd" d="M3 0.635742C3.41421 0.635742 3.75 0.971529 3.75 1.38574V6.63574C3.75 7.04996 3.41421 7.38574 3 7.38574C2.58579 7.38574 2.25 7.04996 2.25 6.63574V1.38574C2.25 0.971529 2.58579 0.635742 3 0.635742Z" fill="#0C77E2"/>
<path fill-rule="evenodd" clip-rule="evenodd" d="M9 7.38574C9.41421 7.38574 9.75 7.72153 9.75 8.13574V14.8857C9.75 15.3 9.41421 15.6357 9 15.6357C8.58579 15.6357 8.25 15.3 8.25 14.8857V8.13574C8.25 7.72153 8.58579 7.38574 9 7.38574Z" fill="#0C77E2"/>
<path fill-rule="evenodd" clip-rule="evenodd" d="M9 0.635742C9.41421 0.635742 9.75 0.971529 9.75 1.38574V5.13574C9.75 5.54996 9.41421 5.88574 9 5.88574C8.58579 5.88574 8.25 5.54996 8.25 5.13574V1.38574C8.25 0.971529 8.58579 0.635742 9 0.635742Z" fill="#0C77E2"/>
<path fill-rule="evenodd" clip-rule="evenodd" d="M15 10.3857C15.4142 10.3857 15.75 10.7215 15.75 11.1357V14.8857C15.75 15.3 15.4142 15.6357 15 15.6357C14.5858 15.6357 14.25 15.3 14.25 14.8857V11.1357C14.25 10.7215 14.5858 10.3857 15 10.3857Z" fill="#0C77E2"/>
<path fill-rule="evenodd" clip-rule="evenodd" d="M15 0.635742C15.4142 0.635742 15.75 0.971529 15.75 1.38574V8.13574C15.75 8.54996 15.4142 8.88574 15 8.88574C14.5858 8.88574 14.25 8.54996 14.25 8.13574V1.38574C14.25 0.971529 14.5858 0.635742 15 0.635742Z" fill="#0C77E2"/>
<path fill-rule="evenodd" clip-rule="evenodd" d="M0 9.63574C0 9.22153 0.335786 8.88574 0.75 8.88574H5.25C5.66421 8.88574 6 9.22153 6 9.63574C6 10.05 5.66421 10.3857 5.25 10.3857H0.75C0.335786 10.3857 0 10.05 0 9.63574Z" fill="#0C77E2"/>
<path fill-rule="evenodd" clip-rule="evenodd" d="M6 5.13574C6 4.72153 6.33579 4.38574 6.75 4.38574H11.25C11.6642 4.38574 12 4.72153 12 5.13574C12 5.54996 11.6642 5.88574 11.25 5.88574H6.75C6.33579 5.88574 6 5.54996 6 5.13574Z" fill="#0C77E2"/>
<path fill-rule="evenodd" clip-rule="evenodd" d="M12 11.1357C12 10.7215 12.3358 10.3857 12.75 10.3857H17.25C17.6642 10.3857 18 10.7215 18 11.1357C18 11.55 17.6642 11.8857 17.25 11.8857H12.75C12.3358 11.8857 12 11.55 12 11.1357Z" fill="#0C77E2"/>
</svg>
