<svg width="16" height="16" viewBox="0 0 16 16" fill="none" xmlns="http://www.w3.org/2000/svg">
<path d="M4.12605 15.987C3.76991 15.9982 3.42005 15.8873 3.12983 15.6714C2.84966 15.4598 2.64099 15.1608 2.53387 14.8174C2.42675 14.474 2.4267 14.1039 2.53373 13.7605L3.56261 10.4419C3.58896 10.3549 3.58899 10.2615 3.56268 10.1745C3.53638 10.0875 3.48503 10.0111 3.41563 9.95565L0.712778 7.90822C0.419099 7.69891 0.198815 7.3952 0.0853745 7.04321C-0.0280659 6.69121 -0.028467 6.31016 0.0842323 5.9579C0.196932 5.60565 0.416576 5.30143 0.709814 5.09144C1.00305 4.88146 1.35387 4.77718 1.709 4.79443H5.04877C5.13608 4.79498 5.22125 4.76628 5.29179 4.71254C5.36234 4.6588 5.41453 4.58285 5.44072 4.49584L6.4696 1.16877C6.57821 0.826903 6.78758 0.529714 7.06774 0.319771C7.34791 0.109828 7.68448 -0.00209637 8.02925 2.9739e-05C8.37403 -0.00209637 8.7106 0.109828 8.99077 0.319771C9.27093 0.529714 9.48031 0.826903 9.58891 1.16877L10.6178 4.49584C10.644 4.58285 10.6962 4.6588 10.7667 4.71254C10.8373 4.76628 10.9224 4.79498 11.0097 4.79443H14.3495C14.6973 4.79057 15.0372 4.90281 15.3197 5.11481C15.6022 5.32681 15.8125 5.62749 15.92 5.97306C16.0275 6.31863 16.0266 6.69104 15.9175 7.03604C15.8083 7.38105 15.5966 7.68063 15.3131 7.89116L12.6102 9.94712C12.5405 10.0003 12.4888 10.0752 12.4624 10.161C12.436 10.2469 12.4363 10.3392 12.4632 10.4249L13.4921 13.7434C13.6064 14.0856 13.6134 14.457 13.5121 14.8036C13.4108 15.1503 13.2064 15.4542 12.9287 15.6714C12.649 15.8849 12.3115 16 11.9651 16C11.6187 16 11.2813 15.8849 11.0016 15.6714L8.30689 13.624C8.2357 13.5699 8.14994 13.5407 8.06192 13.5407C7.97389 13.5407 7.88813 13.5699 7.81695 13.624L5.0896 15.6714C4.8084 15.8803 4.47108 15.9908 4.12605 15.987ZM8.02925 12.259C8.37611 12.2602 8.71359 12.3767 8.99281 12.5917L11.6957 14.6391C11.7669 14.6915 11.852 14.7192 11.939 14.7184C12.0261 14.7176 12.1107 14.6883 12.181 14.6346C12.2513 14.5809 12.3037 14.5056 12.3309 14.4192C12.3581 14.3328 12.3587 14.2397 12.3326 14.1529L11.2955 10.8258C11.1866 10.4812 11.1857 10.1093 11.2929 9.76414C11.4 9.41896 11.6098 9.11847 11.8916 8.90635L14.5618 6.85892C14.6353 6.80718 14.6899 6.73092 14.7166 6.6426C14.7433 6.55429 14.7406 6.45913 14.7088 6.37265C14.6838 6.28491 14.6319 6.20817 14.5611 6.15423C14.4903 6.10029 14.4045 6.07213 14.3169 6.07407H11.0097C10.6653 6.0738 10.3299 5.9598 10.0512 5.74836C9.77255 5.53693 9.56502 5.23887 9.45825 4.8968L8.42121 1.57826C8.39744 1.48975 8.34585 1.41217 8.27476 1.35801C8.20366 1.30385 8.11719 1.27626 8.02925 1.27967C7.94132 1.27626 7.85485 1.30385 7.78375 1.35801C7.71266 1.41217 7.66107 1.48975 7.6373 1.57826L6.60026 4.88827C6.49491 5.23193 6.28798 5.53185 6.0092 5.74492C5.73043 5.95798 5.39418 6.07322 5.04877 6.07407H1.709C1.62138 6.07213 1.53558 6.10029 1.46477 6.15423C1.39396 6.20817 1.34206 6.28491 1.31704 6.37265C1.28529 6.45913 1.28254 6.55429 1.30924 6.6426C1.33593 6.73092 1.3905 6.80718 1.46402 6.85892L4.16687 8.90635C4.44871 9.11847 4.65846 9.41896 4.76566 9.76414C4.87286 10.1093 4.87192 10.4812 4.76297 10.8258L3.72593 14.1358C3.69983 14.2226 3.70041 14.3157 3.7276 14.4021C3.75479 14.4885 3.80722 14.5639 3.87751 14.6175C3.9478 14.6712 4.03242 14.7005 4.11948 14.7013C4.20654 14.7021 4.29165 14.6744 4.36285 14.6221L7.0657 12.5747C7.3469 12.3657 7.68422 12.2552 8.02925 12.259Z" fill="white"/>
</svg>
