<svg width="19" height="20" viewBox="0 0 19 20" fill="none" xmlns="http://www.w3.org/2000/svg">
<path d="M17.5208 3.64183H1.47917C1.07646 3.64183 0.75 3.96201 0.75 4.35697C0.75 4.75193 1.07646 5.07212 1.47917 5.07212H17.5208C17.9235 5.07212 18.25 4.75193 18.25 4.35697C18.25 3.96201 17.9235 3.64183 17.5208 3.64183Z" fill="white"/>
<path d="M6.58333 8.64784V14.369C6.58333 14.764 6.90979 15.0841 7.3125 15.0841C7.71521 15.0841 8.04167 14.764 8.04167 14.369V8.64784C8.04167 8.25287 7.71521 7.93269 7.3125 7.93269C6.90979 7.93269 6.58333 8.25287 6.58333 8.64784Z" fill="white"/>
<path d="M10.9583 8.64784V14.369C10.9583 14.764 11.2848 15.0841 11.6875 15.0841C12.0902 15.0841 12.4167 14.764 12.4167 14.369V8.64784C12.4167 8.25287 12.0902 7.93269 11.6875 7.93269C11.2848 7.93269 10.9583 8.25287 10.9583 8.64784Z" fill="white"/>
<path d="M3.66667 17.9447V4.35697C3.66667 3.96201 3.34021 3.64183 2.9375 3.64183C2.53479 3.64183 2.20833 3.96201 2.20833 4.35697V17.9447C2.20833 18.5372 2.63547 18.9561 2.63547 18.9561C3.06261 19.375 3.66667 19.375 3.66667 19.375H15.3333C15.9374 19.375 16.3645 18.9561 16.3645 18.9561C16.7917 18.5372 16.7917 17.9447 16.7917 17.9447V4.35697C16.7917 3.96201 16.4652 3.64183 16.0625 3.64183C15.6598 3.64183 15.3333 3.96201 15.3333 4.35697V17.9447H3.66667Z" fill="white"/>
<path d="M5.7657 1.40963C5.125 2.03802 5.125 2.92668 5.125 2.92668V4.35697C5.125 4.75193 5.45146 5.07212 5.85417 5.07212C6.25687 5.07212 6.58333 4.75193 6.58333 4.35697V2.92668C6.58333 2.63046 6.7969 2.421 6.7969 2.421C7.01047 2.21154 7.3125 2.21154 7.3125 2.21154H11.6875C11.9895 2.21154 12.2031 2.421 12.2031 2.421C12.4167 2.63046 12.4167 2.92668 12.4167 2.92668V4.35697C12.4167 4.75193 12.7431 5.07212 13.1458 5.07212C13.5485 5.07212 13.875 4.75193 13.875 4.35697V2.92668C13.875 2.03802 13.2343 1.40963 13.2343 1.40963C12.5936 0.78125 11.6875 0.78125 11.6875 0.78125H7.3125C6.40641 0.78125 5.7657 1.40963 5.7657 1.40963Z" fill="white"/>
<path d="M17.5208 3.64183H1.47917C1.07646 3.64183 0.75 3.96201 0.75 4.35697C0.75 4.75193 1.07646 5.07212 1.47917 5.07212H17.5208C17.9235 5.07212 18.25 4.75193 18.25 4.35697C18.25 3.96201 17.9235 3.64183 17.5208 3.64183Z" stroke="white" stroke-width="0.252985"/>
<path d="M6.58333 8.64784V14.369C6.58333 14.764 6.90979 15.0841 7.3125 15.0841C7.71521 15.0841 8.04167 14.764 8.04167 14.369V8.64784C8.04167 8.25287 7.71521 7.93269 7.3125 7.93269C6.90979 7.93269 6.58333 8.25287 6.58333 8.64784Z" stroke="white" stroke-width="0.252985"/>
<path d="M10.9583 8.64784V14.369C10.9583 14.764 11.2848 15.0841 11.6875 15.0841C12.0902 15.0841 12.4167 14.764 12.4167 14.369V8.64784C12.4167 8.25287 12.0902 7.93269 11.6875 7.93269C11.2848 7.93269 10.9583 8.25287 10.9583 8.64784Z" stroke="white" stroke-width="0.252985"/>
<path d="M3.66667 17.9447V4.35697C3.66667 3.96201 3.34021 3.64183 2.9375 3.64183C2.53479 3.64183 2.20833 3.96201 2.20833 4.35697V17.9447C2.20833 18.5372 2.63547 18.9561 2.63547 18.9561C3.06261 19.375 3.66667 19.375 3.66667 19.375H15.3333C15.9374 19.375 16.3645 18.9561 16.3645 18.9561C16.7917 18.5372 16.7917 17.9447 16.7917 17.9447V4.35697C16.7917 3.96201 16.4652 3.64183 16.0625 3.64183C15.6598 3.64183 15.3333 3.96201 15.3333 4.35697V17.9447H3.66667Z" stroke="white" stroke-width="0.252985"/>
<path d="M5.7657 1.40963C5.125 2.03802 5.125 2.92668 5.125 2.92668V4.35697C5.125 4.75193 5.45146 5.07212 5.85417 5.07212C6.25687 5.07212 6.58333 4.75193 6.58333 4.35697V2.92668C6.58333 2.63046 6.7969 2.421 6.7969 2.421C7.01047 2.21154 7.3125 2.21154 7.3125 2.21154H11.6875C11.9895 2.21154 12.2031 2.421 12.2031 2.421C12.4167 2.63046 12.4167 2.92668 12.4167 2.92668V4.35697C12.4167 4.75193 12.7431 5.07212 13.1458 5.07212C13.5485 5.07212 13.875 4.75193 13.875 4.35697V2.92668C13.875 2.03802 13.2343 1.40963 13.2343 1.40963C12.5936 0.78125 11.6875 0.78125 11.6875 0.78125H7.3125C6.40641 0.78125 5.7657 1.40963 5.7657 1.40963Z" stroke="white" stroke-width="0.252985"/>
</svg>
