<svg width="24" height="24" viewBox="0 0 24 24" fill="none" xmlns="http://www.w3.org/2000/svg">
<g filter="url(#filter0_d_5025_48530)">
<path d="M5.02004 17.3787C6.71767 15.208 9.26412 13.9808 12 13.9808C14.7359 13.9808 17.2823 15.208 18.98 17.3787C15.3953 22 8.60474 22 5.02004 17.3787ZM8.98361 9.83122C8.98361 8.1323 10.3024 6.80929 12 6.80929C13.6976 6.80929 15.02 8.1323 15.02 9.83122C15.02 11.5264 13.6976 12.8495 12 12.8495C10.3024 12.8495 8.98361 11.4343 8.98361 9.83122ZM12 3.13138C16.9071 3.13138 20.8707 7.09305 20.8707 11.9982C20.8707 13.6049 20.3971 15.1122 19.643 16.4352C18.3206 14.8285 16.5282 13.6971 14.5464 13.2254C15.5847 12.4699 16.2477 11.2464 16.2477 9.83122C16.2477 7.47264 14.3607 5.58578 12 5.58578C9.64299 5.58578 7.75592 7.47264 7.75592 9.83122C7.75592 11.2464 8.4153 12.4699 9.45355 13.2254C7.47177 13.7929 5.67942 14.8285 4.36066 16.4352C3.60291 15.1122 3.13297 13.6049 3.13297 11.9982C3.13297 7.09305 7.0929 3.13138 12 3.13138ZM22 11.9982C22 6.43339 17.4718 2 12 2C6.52823 2 2 6.43339 2 11.9982C2 17.4708 6.52823 22 12 22C17.5665 22 22 17.4708 22 11.9982Z" fill="#03D2FF"/>
<path d="M5.02004 17.3787C6.71767 15.208 9.26412 13.9808 12 13.9808C14.7359 13.9808 17.2823 15.208 18.98 17.3787C15.3953 22 8.60474 22 5.02004 17.3787ZM8.98361 9.83122C8.98361 8.1323 10.3024 6.80929 12 6.80929C13.6976 6.80929 15.02 8.1323 15.02 9.83122C15.02 11.5264 13.6976 12.8495 12 12.8495C10.3024 12.8495 8.98361 11.4343 8.98361 9.83122ZM12 3.13138C16.9071 3.13138 20.8707 7.09305 20.8707 11.9982C20.8707 13.6049 20.3971 15.1122 19.643 16.4352C18.3206 14.8285 16.5282 13.6971 14.5464 13.2254C15.5847 12.4699 16.2477 11.2464 16.2477 9.83122C16.2477 7.47264 14.3607 5.58578 12 5.58578C9.64299 5.58578 7.75592 7.47264 7.75592 9.83122C7.75592 11.2464 8.4153 12.4699 9.45355 13.2254C7.47177 13.7929 5.67942 14.8285 4.36066 16.4352C3.60291 15.1122 3.13297 13.6049 3.13297 11.9982C3.13297 7.09305 7.0929 3.13138 12 3.13138ZM22 11.9982C22 6.43339 17.4718 2 12 2C6.52823 2 2 6.43339 2 11.9982C2 17.4708 6.52823 22 12 22C17.5665 22 22 17.4708 22 11.9982Z" fill="#03D2FF"/>
<path d="M5.02004 17.3787C6.71767 15.208 9.26412 13.9808 12 13.9808C14.7359 13.9808 17.2823 15.208 18.98 17.3787C15.3953 22 8.60474 22 5.02004 17.3787ZM8.98361 9.83122C8.98361 8.1323 10.3024 6.80929 12 6.80929C13.6976 6.80929 15.02 8.1323 15.02 9.83122C15.02 11.5264 13.6976 12.8495 12 12.8495C10.3024 12.8495 8.98361 11.4343 8.98361 9.83122ZM12 3.13138C16.9071 3.13138 20.8707 7.09305 20.8707 11.9982C20.8707 13.6049 20.3971 15.1122 19.643 16.4352C18.3206 14.8285 16.5282 13.6971 14.5464 13.2254C15.5847 12.4699 16.2477 11.2464 16.2477 9.83122C16.2477 7.47264 14.3607 5.58578 12 5.58578C9.64299 5.58578 7.75592 7.47264 7.75592 9.83122C7.75592 11.2464 8.4153 12.4699 9.45355 13.2254C7.47177 13.7929 5.67942 14.8285 4.36066 16.4352C3.60291 15.1122 3.13297 13.6049 3.13297 11.9982C3.13297 7.09305 7.0929 3.13138 12 3.13138ZM22 11.9982C22 6.43339 17.4718 2 12 2C6.52823 2 2 6.43339 2 11.9982C2 17.4708 6.52823 22 12 22C17.5665 22 22 17.4708 22 11.9982Z" fill="#03D2FF"/>
<path d="M5.02004 17.3787C6.71767 15.208 9.26412 13.9808 12 13.9808C14.7359 13.9808 17.2823 15.208 18.98 17.3787C15.3953 22 8.60474 22 5.02004 17.3787ZM8.98361 9.83122C8.98361 8.1323 10.3024 6.80929 12 6.80929C13.6976 6.80929 15.02 8.1323 15.02 9.83122C15.02 11.5264 13.6976 12.8495 12 12.8495C10.3024 12.8495 8.98361 11.4343 8.98361 9.83122ZM12 3.13138C16.9071 3.13138 20.8707 7.09305 20.8707 11.9982C20.8707 13.6049 20.3971 15.1122 19.643 16.4352C18.3206 14.8285 16.5282 13.6971 14.5464 13.2254C15.5847 12.4699 16.2477 11.2464 16.2477 9.83122C16.2477 7.47264 14.3607 5.58578 12 5.58578C9.64299 5.58578 7.75592 7.47264 7.75592 9.83122C7.75592 11.2464 8.4153 12.4699 9.45355 13.2254C7.47177 13.7929 5.67942 14.8285 4.36066 16.4352C3.60291 15.1122 3.13297 13.6049 3.13297 11.9982C3.13297 7.09305 7.0929 3.13138 12 3.13138ZM22 11.9982C22 6.43339 17.4718 2 12 2C6.52823 2 2 6.43339 2 11.9982C2 17.4708 6.52823 22 12 22C17.5665 22 22 17.4708 22 11.9982Z" fill="#03D2FF"/>
</g>
<defs>
<filter id="filter0_d_5025_48530" x="0" y="0" width="24" height="24" filterUnits="userSpaceOnUse" color-interpolation-filters="sRGB">
<feFlood flood-opacity="0" result="BackgroundImageFix"/>
<feColorMatrix in="SourceAlpha" type="matrix" values="0 0 0 0 0 0 0 0 0 0 0 0 0 0 0 0 0 0 127 0" result="hardAlpha"/>
<feOffset/>
<feGaussianBlur stdDeviation="1"/>
<feComposite in2="hardAlpha" operator="out"/>
<feColorMatrix type="matrix" values="0 0 0 0 0.0322222 0 0 0 0 0.966667 0 0 0 0 0.798467 0 0 0 0.44 0"/>
<feBlend mode="normal" in2="BackgroundImageFix" result="effect1_dropShadow_5025_48530"/>
<feBlend mode="normal" in="SourceGraphic" in2="effect1_dropShadow_5025_48530" result="shape"/>
</filter>
</defs>
</svg>
