<svg width="18" height="18" viewBox="0 0 18 18" fill="none" xmlns="http://www.w3.org/2000/svg">
<path fill-rule="evenodd" clip-rule="evenodd" d="M9 2.94336C7.75736 2.94336 6.75 3.95072 6.75 5.19336C6.75 6.436 7.75736 7.44336 9 7.44336C10.2426 7.44336 11.25 6.436 11.25 5.19336C11.25 3.95072 10.2426 2.94336 9 2.94336ZM5.25 5.19336C5.25 3.12229 6.92893 1.44336 9 1.44336C11.0711 1.44336 12.75 3.12229 12.75 5.19336C12.75 7.26443 11.0711 8.94336 9 8.94336C6.92893 8.94336 5.25 7.26443 5.25 5.19336Z" fill="#0063D2"/>
<path fill-rule="evenodd" clip-rule="evenodd" d="M3.34835 11.1667C4.05161 10.4634 5.00544 10.0684 6 10.0684H12C12.9946 10.0684 13.9484 10.4634 14.6517 11.1667C15.3549 11.87 15.75 12.8238 15.75 13.8184V15.3184C15.75 15.7326 15.4142 16.0684 15 16.0684C14.5858 16.0684 14.25 15.7326 14.25 15.3184V13.8184C14.25 13.2216 14.0129 12.6493 13.591 12.2274C13.169 11.8054 12.5967 11.5684 12 11.5684H6C5.40326 11.5684 4.83097 11.8054 4.40901 12.2274C3.98705 12.6493 3.75 13.2216 3.75 13.8184V15.3184C3.75 15.7326 3.41421 16.0684 3 16.0684C2.58579 16.0684 2.25 15.7326 2.25 15.3184V13.8184C2.25 12.8238 2.64509 11.87 3.34835 11.1667Z" fill="#0063D2"/>
</svg>
