<svg width="12" height="12" viewBox="0 0 12 12" fill="none" xmlns="http://www.w3.org/2000/svg">
<path fill-rule="evenodd" clip-rule="evenodd" d="M0.85746 0.146447C0.662197 -0.0488155 0.345615 -0.0488155 0.150353 0.146447C-0.0449093 0.341709 -0.0449093 0.658291 0.150353 0.853553L5.29498 5.99818L0.150376 11.1428C-0.0448861 11.3381 -0.0448861 11.6546 0.150376 11.8499C0.345638 12.0452 0.66222 12.0452 0.857482 11.8499L6.00209 6.70529L11.1467 11.8499C11.342 12.0452 11.6585 12.0452 11.8538 11.8499C12.0491 11.6546 12.0491 11.3381 11.8538 11.1428L6.7092 5.99818L11.8538 0.853553C12.0491 0.658291 12.0491 0.341709 11.8538 0.146447C11.6586 -0.0488155 11.342 -0.0488155 11.1467 0.146447L6.00209 5.29108L0.85746 0.146447Z" fill="white"/>
</svg>
