<svg width="28" height="27" viewBox="0 0 28 27" fill="none" xmlns="http://www.w3.org/2000/svg">
<path fill-rule="evenodd" clip-rule="evenodd" d="M8.66699 18.8353V20.168C8.66699 22.6821 8.66699 23.9392 9.44804 24.7203C10.2291 25.5013 11.4862 25.5013 14.0003 25.5013H20.667C23.1812 25.5013 24.4382 25.5013 25.2193 24.7203C26.0003 23.9392 26.0003 22.6821 26.0003 20.168V13.5013C26.0003 10.9871 26.0003 9.73007 25.2193 8.94902C24.4382 8.16797 23.1812 8.16797 20.667 8.16797H19.3333V13.502C19.3333 16.0161 19.3333 17.2732 18.5523 18.0542C17.7712 18.8353 16.5142 18.8353 14 18.8353H8.66699Z" fill="white"/>
<path d="M8.66699 18.8353V17.502H7.33366V18.8353H8.66699ZM9.44804 24.7203L8.50523 25.6631L8.50523 25.6631L9.44804 24.7203ZM25.2193 24.7203L26.1621 25.6631L26.1621 25.6631L25.2193 24.7203ZM25.2193 8.94902L26.1621 8.00621L26.1621 8.00621L25.2193 8.94902ZM19.3333 8.16797V6.83464H18V8.16797H19.3333ZM10.0003 20.168V18.8353H7.33366V20.168H10.0003ZM10.3909 23.7774C10.2894 23.6759 10.1638 23.4947 10.0861 22.9164C10.0032 22.2997 10.0003 21.4627 10.0003 20.168H7.33366C7.33366 21.3874 7.33083 22.436 7.44318 23.2717C7.56069 24.1457 7.82568 24.9835 8.50523 25.6631L10.3909 23.7774ZM14.0003 24.168C12.7056 24.168 11.8686 24.1651 11.2519 24.0822C10.6736 24.0045 10.4923 23.8789 10.3908 23.7774L8.50523 25.6631C9.18478 26.3426 10.0226 26.6076 10.8966 26.7251C11.7323 26.8375 12.7809 26.8346 14.0003 26.8346V24.168ZM20.667 24.168H14.0003V26.8346H20.667V24.168ZM24.2765 23.7774C24.175 23.8789 23.9937 24.0045 23.4154 24.0822C22.7987 24.1651 21.9618 24.168 20.667 24.168V26.8346C21.8864 26.8346 22.935 26.8375 23.7707 26.7251C24.6447 26.6076 25.4825 26.3426 26.1621 25.6631L24.2765 23.7774ZM24.667 20.168C24.667 21.4627 24.6642 22.2997 24.5813 22.9164C24.5035 23.4947 24.378 23.6759 24.2765 23.7774L26.1621 25.6631C26.8416 24.9835 27.1066 24.1457 27.2241 23.2717C27.3365 22.436 27.3337 21.3874 27.3337 20.168H24.667ZM24.667 13.5013V20.168H27.3337V13.5013H24.667ZM24.2765 9.89183C24.378 9.99332 24.5035 10.1746 24.5813 10.7529C24.6642 11.3696 24.667 12.2065 24.667 13.5013H27.3337C27.3337 12.2819 27.3365 11.2332 27.2241 10.3976C27.1066 9.52356 26.8416 8.68576 26.1621 8.00621L24.2765 9.89183ZM20.667 9.5013C21.9618 9.5013 22.7987 9.50413 23.4154 9.58704C23.9937 9.6648 24.175 9.79033 24.2765 9.89183L26.1621 8.00621C25.4825 7.32666 24.6447 7.06167 23.7707 6.94416C22.935 6.8318 21.8864 6.83464 20.667 6.83464V9.5013ZM19.3333 9.5013H20.667V6.83464H19.3333V9.5013ZM18 8.16797V13.502H20.6667V8.16797H18ZM18 13.502C18 14.7967 17.9972 15.6337 17.9143 16.2503C17.8365 16.8287 17.711 17.0099 17.6095 17.1114L19.4951 18.997C20.1746 18.3175 20.4396 17.4797 20.5571 16.6057C20.6695 15.77 20.6667 14.7213 20.6667 13.502H18ZM17.6095 17.1114C17.508 17.2129 17.3267 17.3385 16.7484 17.4162C16.1317 17.4991 15.2948 17.502 14 17.502V20.1686C15.2194 20.1686 16.2681 20.1715 17.1037 20.0591C17.9777 19.9416 18.8155 19.6766 19.4951 18.997L17.6095 17.1114ZM14 17.502H8.66699V20.1686H14V17.502Z" fill="white"/>
<path d="M2 6.83333C2 4.31918 2 3.0621 2.78105 2.28105C3.5621 1.5 4.81918 1.5 7.33333 1.5H14C16.5142 1.5 17.7712 1.5 18.5523 2.28105C19.3333 3.0621 19.3333 4.31918 19.3333 6.83333V13.5C19.3333 16.0142 19.3333 17.2712 18.5523 18.0523C17.7712 18.8333 16.5142 18.8333 14 18.8333H7.33333C4.81918 18.8333 3.5621 18.8333 2.78105 18.0523C2 17.2712 2 16.0142 2 13.5V6.83333Z" stroke="white" stroke-width="2.66667"/>
</svg>
