<svg width="52" height="50" viewBox="0 0 52 50" fill="none" xmlns="http://www.w3.org/2000/svg">
<rect x="1" y="1" width="50" height="48" rx="11" fill="#002A6C"/>
<rect x="1" y="1" width="50" height="48" rx="11" stroke="url(#paint0_linear_1076_196793)" stroke-width="2"/>
<path d="M15.4602 31.9093C13.5659 33.8009 16.0511 35.826 12.2383 38.5759C12.2383 38.5759 14.4807 39.3509 16.5126 36.7176C17.2088 35.8093 18.0183 35.4343 18.0183 35.4343C18.2935 35.6009 18.0831 36.526 17.1035 37.2843C17.1035 37.2843 18.6335 37.326 19.5888 36.3427C20.544 35.3593 21.1916 33.9427 21.1916 33.9427C21.8473 35.126 20.204 36.626 20.204 36.626C20.204 36.626 21.7502 36.2094 23.5879 34.3176C25.0126 32.851 26.0326 29.1926 23.9845 27.0926C21.9364 24.9926 18.2854 25.3677 16.4964 27.2176C15.7111 28.0259 14.9097 29.2843 14.8045 30.3177C14.8045 30.3177 16.3102 28.6427 16.8445 29.351C16.8445 29.351 14.2945 30.9343 13.8816 32.4426C13.8897 32.4426 15.1607 31.6594 15.4602 31.9093Z" fill="url(#paint1_linear_1076_196793)"/>
<path d="M14.0507 33.3496C12.0673 34.1663 13.3464 35.8829 12.4883 36.7662C12.4883 36.7662 13.6297 36.1245 13.6135 34.8663C13.5973 33.8412 14.0507 33.3496 14.0507 33.3496Z" fill="url(#paint2_linear_1076_196793)"/>
<path d="M14.5137 39.3083C15.0237 39.2499 15.8818 37.725 17.0475 37.9749C17.0475 37.9749 16.0032 39.5416 14.5137 39.3083Z" fill="url(#paint3_linear_1076_196793)"/>
<path opacity="0.5" d="M20.7872 36.2499C21.4105 36.0082 22.471 35.4749 23.5882 34.3165C24.8429 33.0249 25.8873 29.3582 23.831 27.2499C21.8234 25.1833 18.302 25.5999 16.6101 27.3416C16.0029 27.9665 15.3553 28.9083 15.0963 29.7749C15.4605 29.4416 16.0029 29.025 16.4563 28.975C16.691 28.9499 16.8772 29.0333 17.0067 29.2L17.1363 29.3665L16.9096 29.5083C16.8853 29.5249 14.9101 30.7665 14.2382 32.0332C14.6996 31.7916 15.331 31.5249 15.5901 31.7416L15.7358 31.8665L15.5658 32.0415C14.8615 32.7499 14.821 33.4749 14.7886 34.3165C14.732 35.5249 14.6672 36.8832 12.6758 38.4582C13.3558 38.5499 14.902 38.5082 16.3672 36.6166C17.0958 35.6665 17.9377 35.2666 17.9701 35.2499L18.0672 35.2083L18.1401 35.2499C18.2777 35.3333 18.3424 35.5166 18.3182 35.7582C18.2858 36.0916 18.0753 36.5666 17.622 37.0499C18.1239 36.9832 18.9091 36.7916 19.4677 36.2166C20.3824 35.275 21.0139 33.9082 21.022 33.8916L21.2001 33.4999L21.3701 33.8083C21.8072 34.6082 21.3215 35.5832 20.7872 36.2499Z" fill="url(#paint4_linear_1076_196793)"/>
<path d="M12.4883 36.7662C13.0469 36.2995 13.6216 35.383 13.6135 34.8663C13.6054 34.3913 13.7349 33.7245 14.0507 33.3496C12.6583 33.9579 12.8526 34.9163 13.0307 35.3913C13.1116 35.5995 13.0064 36.2163 12.4883 36.7662Z" fill="url(#paint5_radial_1076_196793)"/>
<path d="M13.5664 38.1755C16.2055 37.2839 16.9097 34.2006 18.6017 33.6673C20.3017 33.1339 19.8726 34.8007 19.2169 35.559C19.2169 35.559 21.4593 33.2423 21.4674 31.434C21.4835 29.6256 23.8392 32.4506 23.1107 33.9172C23.1107 33.9172 26.7131 30.209 23.8311 27.2506C20.9493 24.2922 17.1202 27.2423 17.1202 27.2423C17.1202 27.2423 19.3059 27.1505 19.1116 28.7839C19.1116 28.7839 17.4278 29.4423 16.1002 30.5339C16.1002 30.5339 16.7478 30.609 17.1931 31.2922C17.1931 31.2922 15.2097 32.7007 15.2907 33.9089C15.404 35.4673 14.4164 37.8923 13.5664 38.1755Z" fill="url(#paint6_linear_1076_196793)"/>
<path d="M15.4121 35.8331C16.6426 35.5163 17.7274 32.5497 19.4597 32.7163C20.415 32.8081 20.1964 33.658 20.1964 33.658C20.1964 33.658 20.8602 32.6831 21.014 31.3747C21.1678 30.0664 23.5398 30.508 23.4345 32.9748C23.4345 32.9748 26.0412 29.4831 22.8759 27.2581C19.3869 24.8081 16.8288 27.883 16.8288 27.883C16.8288 27.883 19.2169 27.0663 19.5893 29.0164C19.5893 29.0164 17.614 29.583 16.8855 30.333C16.8855 30.333 17.7274 30.458 17.9297 31.383C17.9297 31.383 15.9869 32.8496 16.0435 33.433C16.1812 34.8247 15.4121 35.8331 15.4121 35.8331Z" fill="url(#paint7_linear_1076_196793)"/>
<path opacity="0.5" d="M15.4602 31.9093C13.5659 33.8009 16.0511 35.826 12.2383 38.5759C12.2383 38.5759 14.4807 39.3509 16.5126 36.7176C17.2088 35.8093 18.0183 35.4343 18.0183 35.4343C18.2935 35.6009 18.0831 36.526 17.1035 37.2843C17.1035 37.2843 18.6335 37.326 19.5888 36.3427C20.544 35.3593 21.1916 33.9427 21.1916 33.9427C21.8473 35.126 20.204 36.626 20.204 36.626C20.204 36.626 21.7502 36.2094 23.5879 34.3176C25.0126 32.851 26.0326 29.1926 23.9845 27.0926C21.9364 24.9926 18.2854 25.3677 16.4964 27.2176C15.7111 28.0259 14.9097 29.2843 14.8045 30.3177C14.8045 30.3177 16.3102 28.6427 16.8445 29.351C16.8445 29.351 14.2945 30.9343 13.8816 32.4426C13.8897 32.4426 15.1607 31.6594 15.4602 31.9093Z" fill="url(#paint8_radial_1076_196793)"/>
<path opacity="0.5" d="M15.4602 31.9093C13.5659 33.8009 16.0511 35.826 12.2383 38.5759C12.2383 38.5759 14.4807 39.3509 16.5126 36.7176C17.2088 35.8093 18.0183 35.4343 18.0183 35.4343C18.2935 35.6009 18.0831 36.526 17.1035 37.2843C17.1035 37.2843 18.6335 37.326 19.5888 36.3427C20.544 35.3593 21.1916 33.9427 21.1916 33.9427C21.8473 35.126 20.204 36.626 20.204 36.626C20.204 36.626 21.7502 36.2094 23.5879 34.3176C25.0126 32.851 26.0326 29.1926 23.9845 27.0926C21.9364 24.9926 18.2854 25.3677 16.4964 27.2176C15.7111 28.0259 14.9097 29.2843 14.8045 30.3177C14.8045 30.3177 16.3102 28.6427 16.8445 29.351C16.8445 29.351 14.2945 30.9343 13.8816 32.4426C13.8897 32.4426 15.1607 31.6594 15.4602 31.9093Z" fill="url(#paint9_radial_1076_196793)"/>
<path d="M22.6329 34.9418C24.4787 32.9167 25.5229 29.3001 23.5962 27.3167C21.6696 25.3334 18.1239 27.0001 16.5534 28.4917C16.5534 28.4917 17.8081 27.9501 18.7958 28.6001C19.7834 29.25 16.9581 30.3751 16.3672 32.1584C16.3672 32.1584 18.8848 30.6 19.6781 31.2585C20.4715 31.9167 19.67 33.9918 18.9091 34.7751C18.9091 34.7751 20.7143 33.8251 21.6858 32.6001C23.1672 30.7251 22.6329 34.9418 22.6329 34.9418Z" fill="url(#paint10_radial_1076_196793)"/>
<path opacity="0.5" d="M15.4602 31.9093C13.5659 33.8009 16.0511 35.826 12.2383 38.5759C12.2383 38.5759 14.4807 39.3509 16.5126 36.7176C17.2088 35.8093 18.0183 35.4343 18.0183 35.4343C18.2935 35.6009 18.0831 36.526 17.1035 37.2843C17.1035 37.2843 18.6335 37.326 19.5888 36.3427C20.544 35.3593 21.1916 33.9427 21.1916 33.9427C21.8473 35.126 20.204 36.626 20.204 36.626C20.204 36.626 21.7502 36.2094 23.5879 34.3176C25.0126 32.851 26.0326 29.1926 23.9845 27.0926C21.9364 24.9926 18.2854 25.3677 16.4964 27.2176C15.7111 28.0259 14.9097 29.2843 14.8045 30.3177C14.8045 30.3177 16.3102 28.6427 16.8445 29.351C16.8445 29.351 14.2945 30.9343 13.8816 32.4426C13.8897 32.4426 15.1607 31.6594 15.4602 31.9093Z" fill="url(#paint11_radial_1076_196793)"/>
<path opacity="0.5" d="M14.0507 33.3496C12.0673 34.1663 13.3464 35.8829 12.4883 36.7662C12.4883 36.7662 13.6297 36.1245 13.6135 34.8663C13.5973 33.8412 14.0507 33.3496 14.0507 33.3496Z" fill="url(#paint12_radial_1076_196793)"/>
<path d="M14.5137 39.308C15.0237 39.2496 15.7684 38.1745 17.0475 37.9746C17.0475 37.9746 16.0032 39.5413 14.5137 39.308Z" fill="url(#paint13_radial_1076_196793)"/>
<path opacity="0.5" d="M14.5137 39.3083C15.0237 39.2499 15.8818 37.725 17.0475 37.9749C17.0475 37.9749 16.0032 39.5416 14.5137 39.3083Z" fill="url(#paint14_radial_1076_196793)"/>
<path opacity="0.5" d="M15.4602 31.9093C13.5659 33.8009 16.0511 35.826 12.2383 38.5759C12.2383 38.5759 14.4807 39.3509 16.5126 36.7176C17.2088 35.8093 18.0183 35.4343 18.0183 35.4343C18.2935 35.6009 18.0831 36.526 17.1035 37.2843C17.1035 37.2843 18.6335 37.326 19.5888 36.3427C20.544 35.3593 21.1916 33.9427 21.1916 33.9427C21.8473 35.126 20.204 36.626 20.204 36.626C20.204 36.626 21.7502 36.2094 23.5879 34.3176C25.0126 32.851 26.0326 29.1926 23.9845 27.0926C21.9364 24.9926 18.2854 25.3677 16.4964 27.2176C15.7111 28.0259 14.9097 29.2843 14.8045 30.3177C14.8045 30.3177 16.3102 28.6427 16.8445 29.351C16.8445 29.351 14.2945 30.9343 13.8816 32.4426C13.8897 32.4426 15.1607 31.6594 15.4602 31.9093Z" fill="url(#paint15_radial_1076_196793)"/>
<path opacity="0.25" d="M15.4602 31.9093C13.5659 33.8009 16.0511 35.826 12.2383 38.5759C12.2383 38.5759 14.4807 39.3509 16.5126 36.7176C17.2088 35.8093 18.0183 35.4343 18.0183 35.4343C18.2935 35.6009 18.0831 36.526 17.1035 37.2843C17.1035 37.2843 18.6335 37.326 19.5888 36.3427C20.544 35.3593 21.1916 33.9427 21.1916 33.9427C21.8473 35.126 20.204 36.626 20.204 36.626C20.204 36.626 21.7502 36.2094 23.5879 34.3176C25.0126 32.851 26.0326 29.1926 23.9845 27.0926C21.9364 24.9926 18.2854 25.3677 16.4964 27.2176C15.7111 28.0259 14.9097 29.2843 14.8045 30.3177C14.8045 30.3177 16.3102 28.6427 16.8445 29.351C16.8445 29.351 14.2945 30.9343 13.8816 32.4426C13.8897 32.4426 15.1607 31.6594 15.4602 31.9093Z" fill="url(#paint16_radial_1076_196793)"/>
<path opacity="0.75" d="M15.4602 31.9093C13.5659 33.8009 16.0511 35.826 12.2383 38.5759C12.2383 38.5759 14.4807 39.3509 16.5126 36.7176C17.2088 35.8093 18.0183 35.4343 18.0183 35.4343C18.2935 35.6009 18.0831 36.526 17.1035 37.2843C17.1035 37.2843 18.6335 37.326 19.5888 36.3427C20.544 35.3593 21.1916 33.9427 21.1916 33.9427C21.8473 35.126 20.204 36.626 20.204 36.626C20.204 36.626 21.7502 36.2094 23.5879 34.3176C25.0126 32.851 26.0326 29.1926 23.9845 27.0926C21.9364 24.9926 18.2854 25.3677 16.4964 27.2176C15.7111 28.0259 14.9097 29.2843 14.8045 30.3177C14.8045 30.3177 16.3102 28.6427 16.8445 29.351C16.8445 29.351 14.2945 30.9343 13.8816 32.4426C13.8897 32.4426 15.1607 31.6594 15.4602 31.9093Z" fill="url(#paint17_radial_1076_196793)"/>
<path d="M30.7509 30.0505C30.5646 28.1923 30.9857 26.2173 31.9409 24.4339L32.2404 23.8672L27.5694 27.0089L27.1809 29.9006L25.3594 31.7006C25.748 33.2673 25.7643 34.8006 25.7643 34.8006C28.8646 32.8922 30.7509 30.0505 30.7509 30.0505Z" fill="url(#paint18_linear_1076_196793)"/>
<path d="M25.7739 34.8075C25.7739 34.8075 25.7658 33.2575 25.3691 31.7076L26.1382 30.9492C26.373 31.4825 26.8344 32.6826 26.9477 34.0075C26.5753 34.2742 26.1867 34.5576 25.7739 34.8075Z" fill="url(#paint19_linear_1076_196793)"/>
<path opacity="0.75" d="M30.7509 30.0505C30.5646 28.1923 30.9857 26.2173 31.9409 24.4339L32.2404 23.8672L27.5694 27.0089L27.1809 29.9006L25.3594 31.7006C25.748 33.2673 25.7643 34.8006 25.7643 34.8006C28.8646 32.8922 30.7509 30.0505 30.7509 30.0505Z" fill="url(#paint20_radial_1076_196793)"/>
<path d="M31.2044 26.1576C31.3988 25.5743 31.6416 24.991 31.9411 24.4326L32.1111 24.116C32.0705 24.091 32.0302 24.066 31.9897 24.041L27.5777 27.016L27.3105 28.966C28.3144 28.541 29.7391 27.6743 31.2044 26.1576Z" fill="url(#paint21_linear_1076_196793)"/>
<path d="M26.137 18.9177C26.0884 18.801 26.064 18.7177 26.0237 18.6094C24.2831 19.4594 22.316 19.701 20.4217 19.3344C20.4217 19.3344 17.6208 21.226 15.8965 24.576C15.8965 24.576 17.4993 24.7344 19.1832 25.326L20.9074 23.4177L23.6922 23.251C24.3156 21.8094 25.0684 20.2677 26.137 18.9177Z" fill="url(#paint22_linear_1076_196793)"/>
<path d="M15.8965 24.5663C15.8965 24.5663 17.4993 24.7247 19.1832 25.3164L19.9198 24.4997C19.3289 24.1831 18.0498 23.5747 16.6332 23.3164C16.3741 23.7081 16.1232 24.1248 15.8965 24.5663Z" fill="url(#paint23_linear_1076_196793)"/>
<path opacity="0.75" d="M26.137 18.9177C26.0884 18.801 26.064 18.7177 26.0237 18.6094C24.2831 19.4594 22.316 19.701 20.4217 19.3344C20.4217 19.3344 17.6208 21.226 15.8965 24.576C15.8965 24.576 17.4993 24.7344 19.1832 25.326L20.9074 23.4177L23.6922 23.251C24.3156 21.8094 25.0684 20.2677 26.137 18.9177Z" fill="url(#paint24_radial_1076_196793)"/>
<path d="M26.0245 18.5996C25.3445 19.1329 23.2155 21.2496 22.4707 23.3079L23.685 23.233C24.3083 21.8079 25.2555 20.2329 26.324 18.8829L26.0245 18.5996Z" fill="url(#paint25_linear_1076_196793)"/>
<path d="M26.7617 18.1923C27.4822 19.4007 28.4375 20.6007 29.4979 21.6673C29.5465 21.7173 29.6031 21.7673 29.6517 21.8173C30.5503 22.7006 31.5217 23.484 32.5094 24.109C32.5984 24.0173 32.6875 23.934 32.7765 23.8423C35.3265 21.2173 36.8079 19.2423 38.0789 16.734C37.1722 14.9257 35.6828 13.3923 33.9261 12.459C31.4894 13.7673 29.5789 15.284 27.0208 17.9173C26.9317 18.009 26.8428 18.1006 26.7617 18.1923Z" fill="url(#paint26_linear_1076_196793)"/>
<path d="M38.0688 16.7342C39.7931 13.3259 39.5746 11.4925 39.2913 11.2009C39.0079 10.9092 37.235 10.6842 33.916 12.4592C35.6727 13.3925 37.1622 14.9259 38.0688 16.7342Z" fill="url(#paint27_linear_1076_196793)"/>
<path d="M23.8385 27.1163C24.7534 28.0581 25.5952 28.7497 25.8219 28.7497C27.8782 27.8248 30.331 26.2747 32.5087 24.1081C31.5291 23.4831 30.5496 22.6998 29.651 21.8164C29.6024 21.7664 29.5457 21.7164 29.4971 21.6664C28.4368 20.5997 27.4815 19.3997 26.761 18.1914C24.6562 20.4331 23.1505 22.9747 22.252 25.0915C22.2843 25.3497 22.94 26.1998 23.8385 27.1163Z" fill="url(#paint28_linear_1076_196793)"/>
<path opacity="0.75" d="M23.8385 27.1163C24.7534 28.0581 25.5952 28.7497 25.8219 28.7497C27.8782 27.8248 30.331 26.2747 32.5087 24.1081C31.5291 23.4831 30.5496 22.6998 29.651 21.8164C29.6024 21.7664 29.5457 21.7164 29.4971 21.6664C28.4368 20.5997 27.4815 19.3997 26.761 18.1914C24.6562 20.4331 23.1505 22.9747 22.252 25.0915C22.2843 25.3497 22.94 26.1998 23.8385 27.1163Z" fill="url(#paint29_radial_1076_196793)"/>
<path opacity="0.5" d="M29.6504 21.8164C29.6018 21.7664 29.5452 21.7164 29.4966 21.6664C28.4362 20.5997 27.4809 19.3997 26.7604 18.1914C26.7037 18.2497 26.6552 18.3081 26.6066 18.3664C28.0799 21.2331 32.5809 23.9663 29.1485 25.4081C26.8981 26.358 25.8862 27.4831 25.3438 28.4831C25.5704 28.6581 25.7485 28.7497 25.8295 28.7497C27.8857 27.8248 30.3385 26.2747 32.5162 24.1081C31.5204 23.4831 30.549 22.6998 29.6504 21.8164Z" fill="url(#paint30_radial_1076_196793)"/>
<path d="M23.8388 27.1168C22.9484 26.2001 22.2927 25.3501 22.2522 25.0918L20.9893 25.6668C20.8436 25.8167 21.6693 26.9251 22.8512 28.1334C24.025 29.3418 25.1016 30.2 25.2474 30.0501L25.8221 28.7502C25.5955 28.7502 24.7536 28.0585 23.8388 27.1168Z" fill="url(#paint31_linear_1076_196793)"/>
<path d="M23.8388 27.1168C22.9484 26.2001 22.2927 25.3501 22.2522 25.0918L20.9893 25.6668C20.8436 25.8167 21.6693 26.9251 22.8512 28.1334C24.025 29.3418 25.1016 30.2 25.2474 30.0501L25.8221 28.7502C25.5955 28.7502 24.7536 28.0585 23.8388 27.1168Z" fill="url(#paint32_linear_1076_196793)"/>
<path d="M37.7214 17.4006C37.7376 17.3757 38.0614 16.759 38.0695 16.734C37.1629 14.9257 35.6732 13.3923 33.9166 12.459C33.8923 12.4757 33.8681 12.484 33.8438 12.5006C35.5681 13.509 37.519 15.7757 37.7214 17.4006Z" fill="url(#paint33_linear_1076_196793)"/>
<path opacity="0.75" d="M39.2927 11.2009C39.0094 10.9092 37.2365 10.6842 33.9174 12.4592C31.4808 13.7675 29.5704 15.2842 27.0122 17.9176C26.9232 18.0092 26.8422 18.1009 26.7532 18.1926C24.6485 20.4342 23.1427 22.9759 22.2441 25.0926C22.2846 25.3508 22.9403 26.2009 23.8308 27.1176C24.7455 28.0592 25.5874 28.7509 25.8141 28.7509C27.8704 27.8259 30.3232 26.2758 32.5008 24.1092C32.5899 24.0176 32.679 23.9342 32.7679 23.8426C35.3179 21.2176 36.7994 19.2425 38.0704 16.7342C39.8027 13.3259 39.5841 11.4925 39.2927 11.2009Z" fill="url(#paint34_radial_1076_196793)"/>
<path d="M21.8785 31.3669C24.5985 29.1085 26.7276 26.5919 26.7843 26.5252L26.3632 26.0918C26.3632 26.0918 24.1452 28.5835 21.498 30.9752L21.8785 31.3669Z" fill="url(#paint35_linear_1076_196793)"/>
<path d="M26.3558 26.092C26.8496 25.1255 27.6833 23.9088 28.7519 22.6005C28.7277 22.5754 28.7033 22.5505 28.671 22.5254C27.5133 23.6588 26.3639 24.6837 25.3358 25.5838L24.1377 27.3921L22.3324 29.2171C22.0167 30.0338 21.4824 30.9754 21.4824 30.9754C24.1377 28.5837 26.3558 26.092 26.3558 26.092Z" fill="url(#paint36_linear_1076_196793)"/>
<path d="M22.4293 30.109C22.4293 30.109 23.0607 28.934 23.0041 28.5508L22.3402 29.2257C22.0245 30.0424 21.4902 30.984 21.4902 30.984C21.8141 30.684 22.1217 30.3924 22.4293 30.109Z" fill="url(#paint37_linear_1076_196793)"/>
<path d="M26.7843 26.5265C27.1404 25.4099 27.9418 24.1599 28.9699 22.8015C28.8971 22.7349 28.8323 22.6682 28.7595 22.6016C27.6909 23.9098 26.8571 25.1265 26.3632 26.0933C26.3632 26.0933 24.1452 28.5848 21.498 30.9765L21.8866 31.3682C24.6309 29.0849 26.7843 26.5265 26.7843 26.5265Z" fill="url(#paint38_linear_1076_196793)"/>
<path d="M21.8785 31.3669C24.5985 29.1085 26.7276 26.5919 26.7843 26.5252L26.3632 26.0918C26.3632 26.0918 24.1452 28.5835 21.498 30.9752L21.8785 31.3669Z" fill="url(#paint39_linear_1076_196793)"/>
<path opacity="0.75" d="M26.3558 26.092C26.8496 25.1255 27.6833 23.9088 28.7519 22.6005C28.7277 22.5754 28.7033 22.5505 28.671 22.5254C27.5133 23.6588 26.3639 24.6837 25.3358 25.5838L24.1377 27.3921L22.3324 29.2171C22.0167 30.0338 21.4824 30.9754 21.4824 30.9754C24.1377 28.5837 26.3558 26.092 26.3558 26.092Z" fill="url(#paint40_radial_1076_196793)"/>
<path opacity="0.75" d="M39.2927 11.2009C39.0094 10.9092 37.2365 10.6842 33.9174 12.4592C31.4808 13.7675 29.5704 15.2842 27.0122 17.9176C26.9232 18.0092 26.8422 18.1009 26.7532 18.1926C24.6485 20.4342 23.1427 22.9759 22.2441 25.0926C22.2846 25.3508 22.9403 26.2009 23.8308 27.1176C24.7455 28.0592 25.5874 28.7509 25.8141 28.7509C27.8704 27.8259 30.3232 26.2758 32.5008 24.1092C32.5899 24.0176 32.679 23.9342 32.7679 23.8426C35.3179 21.2176 36.7994 19.2425 38.0704 16.7342C39.8027 13.3259 39.5841 11.4925 39.2927 11.2009Z" fill="url(#paint41_radial_1076_196793)"/>
<g opacity="0.16">
<path opacity="0.16" d="M33.5041 23.0935C32.4355 22.4435 31.3264 21.5602 30.2741 20.4852C29.2297 19.4102 28.3716 18.2685 27.7402 17.1602" stroke="black" stroke-width="0.5" stroke-miterlimit="10" stroke-linecap="round" stroke-linejoin="round"/>
<path opacity="0.16" d="M36.6777 17.1523C36.9206 17.4607 37.1391 17.7607 37.3497 18.0607" stroke="black" stroke-width="0.5" stroke-miterlimit="10" stroke-linecap="round" stroke-linejoin="round"/>
<g opacity="0.16">
<path opacity="0.16" d="M35.3661 13.3848C35.2609 13.4598 35.1556 13.5431 35.0505 13.6264C32.9294 15.2598 31.1323 16.9014 28.5823 19.5264C28.4933 19.6181 28.4042 19.7098 28.3233 19.8014C28.2423 19.8931 28.1533 19.9764 28.0723 20.0681" stroke="black" stroke-width="0.5" stroke-miterlimit="10" stroke-linecap="round" stroke-linejoin="round"/>
</g>
<path opacity="0.16" d="M32.3789 22.3341C34.6212 19.9841 36.0542 18.2008 37.4059 16.0508C37.4626 15.9675 37.5112 15.8841 37.5598 15.8008" stroke="black" stroke-width="0.5" stroke-miterlimit="10" stroke-linecap="round" stroke-linejoin="round"/>
</g>
<path opacity="0.75" d="M25.2461 28.1587C27.108 27.0421 29.4152 25.3255 31.5766 23.1504L25.2461 28.1587Z" fill="url(#paint42_radial_1076_196793)"/>
<path d="M33.5939 18.4167C32.5578 19.4 31.0197 19.4084 30.1615 18.4334C29.3034 17.4584 29.4573 15.8667 30.4934 14.8834C31.5297 13.9 33.0678 13.8917 33.9259 14.8667C34.7839 15.8417 34.6301 17.4334 33.5939 18.4167Z" fill="url(#paint43_linear_1076_196793)"/>
<path d="M33.1479 17.867C32.2979 18.6753 31.035 18.6836 30.3308 17.8836C29.6264 17.0836 29.7479 15.7753 30.6059 14.967C31.4561 14.1586 32.7189 14.1503 33.4231 14.9503C34.1194 15.7503 33.9979 17.0586 33.1479 17.867Z" fill="url(#paint44_linear_1076_196793)"/>
<path d="M32.9448 17.6507C32.1838 18.3757 31.0585 18.3757 30.4352 17.6673C29.8118 16.9507 29.9171 15.7923 30.678 15.0673C31.439 14.3423 32.5643 14.3423 33.1876 15.0507C33.8109 15.759 33.7057 16.9257 32.9448 17.6507Z" fill="url(#paint45_radial_1076_196793)"/>
<path opacity="0.5" d="M32.9448 17.6507C32.1838 18.3757 31.0585 18.3757 30.4352 17.6673C29.8118 16.9507 29.9171 15.7923 30.678 15.0673C31.439 14.3423 32.5643 14.3423 33.1876 15.0507C33.8109 15.759 33.7057 16.9257 32.9448 17.6507Z" fill="url(#paint46_radial_1076_196793)"/>
<path opacity="0.5" d="M33.043 15.5832C33.3263 15.9082 33.4802 16.3166 33.5125 16.7416C33.6905 16.1499 33.5935 15.5082 33.1887 15.0499C32.5654 14.3332 31.4402 14.3416 30.6791 15.0666C30.6063 15.1416 30.5335 15.2166 30.4688 15.2999C31.3349 14.7582 32.4035 14.8582 33.043 15.5832Z" fill="black"/>
<path d="M33.1876 15.0499C32.5643 14.3332 31.439 14.3416 30.678 15.0666C29.9171 15.7916 29.8118 16.9499 30.4352 17.6666C30.4999 17.7416 30.5646 17.7916 30.5243 17.7582C29.9657 17.1832 30.1357 15.9999 30.8562 15.2582C31.439 14.6582 32.5562 14.4416 33.1876 15.0499Z" fill="url(#paint47_linear_1076_196793)"/>
<path opacity="0.5" d="M33.1892 15.0504C32.5578 14.4338 31.4325 14.6588 30.8578 15.2504C30.1697 15.9588 29.9836 17.0754 30.453 17.6754C30.5259 17.7171 30.5583 17.7921 30.5178 17.7588C30.4936 17.7338 30.4692 17.7088 30.453 17.6754C30.445 17.6754 30.4369 17.6671 30.4287 17.6671C31.052 18.3838 32.1773 18.3754 32.9383 17.6504C33.7073 16.9254 33.8206 15.7671 33.1892 15.0504Z" fill="url(#paint48_radial_1076_196793)"/>
<path d="M38.0859 16.7081C37.1792 14.8997 35.7059 13.3747 33.9492 12.4414" stroke="#008EE6" stroke-width="0.75" stroke-miterlimit="10" stroke-linecap="round" stroke-linejoin="round"/>
<path d="M32.5094 24.1081C31.5298 23.4831 30.5503 22.6998 29.6517 21.8164C29.6031 21.7664 29.5465 21.7164 29.4979 21.6664C28.4375 20.5997 27.4822 19.3997 26.7617 18.1914" stroke="#008EE6" stroke-width="0.75" stroke-miterlimit="10" stroke-linecap="round" stroke-linejoin="round"/>
<defs>
<linearGradient id="paint0_linear_1076_196793" x1="0" y1="25" x2="52" y2="25" gradientUnits="userSpaceOnUse">
<stop stop-color="#227741"/>
<stop offset="0.36" stop-color="#85C4AF"/>
<stop offset="1" stop-color="#25A5ED"/>
</linearGradient>
<linearGradient id="paint1_linear_1076_196793" x1="23.5337" y1="26.0026" x2="10.1647" y2="43.1478" gradientUnits="userSpaceOnUse">
<stop stop-color="#FF0000"/>
<stop offset="0.2317" stop-color="#FF1500"/>
<stop offset="0.7367" stop-color="#FF3D00"/>
<stop offset="0.9987" stop-color="#FF4C00"/>
</linearGradient>
<linearGradient id="paint2_linear_1076_196793" x1="21.0567" y1="24.3529" x2="7.84875" y2="41.2913" gradientUnits="userSpaceOnUse">
<stop stop-color="#FF0000"/>
<stop offset="0.2317" stop-color="#FF1500"/>
<stop offset="0.7367" stop-color="#FF3D00"/>
<stop offset="0.9987" stop-color="#FF4C00"/>
</linearGradient>
<linearGradient id="paint3_linear_1076_196793" x1="24.695" y1="26.5309" x2="11.1464" y2="43.906" gradientUnits="userSpaceOnUse">
<stop stop-color="#FF0000"/>
<stop offset="0.2317" stop-color="#FF1500"/>
<stop offset="0.7367" stop-color="#FF3D00"/>
<stop offset="0.9987" stop-color="#FF4C00"/>
</linearGradient>
<linearGradient id="paint4_linear_1076_196793" x1="20.98" y1="28.748" x2="12.2807" y2="46.3055" gradientUnits="userSpaceOnUse">
<stop stop-color="#FF8000"/>
<stop offset="0.6388" stop-color="#FF5B00"/>
<stop offset="0.9987" stop-color="#FF4C00"/>
</linearGradient>
<radialGradient id="paint5_radial_1076_196793" cx="0" cy="0" r="1" gradientUnits="userSpaceOnUse" gradientTransform="translate(9.12272 38.0399) rotate(-134.17) scale(6.79442 8.62422)">
<stop offset="0.00134333" stop-color="#FFED1C" stop-opacity="0.6"/>
<stop offset="0.9477" stop-color="#FFED1C" stop-opacity="0.0264782"/>
<stop offset="0.9914" stop-color="#FFED1C" stop-opacity="0"/>
</radialGradient>
<linearGradient id="paint6_linear_1076_196793" x1="14.2481" y1="39.3246" x2="22.0344" y2="28.4787" gradientUnits="userSpaceOnUse">
<stop stop-color="#FF8000"/>
<stop offset="0.022669" stop-color="#FE7F02" stop-opacity="0.9773"/>
<stop offset="0.6663" stop-color="#ED582A" stop-opacity="0.3337"/>
<stop offset="1" stop-color="#E74939" stop-opacity="0"/>
</linearGradient>
<linearGradient id="paint7_linear_1076_196793" x1="22.8548" y1="27.8868" x2="15.9061" y2="33.9346" gradientUnits="userSpaceOnUse">
<stop stop-color="#FFBC47"/>
<stop offset="0.1869" stop-color="#FFB137" stop-opacity="0.8131"/>
<stop offset="0.7223" stop-color="#FF940F" stop-opacity="0.2777"/>
<stop offset="1" stop-color="#FF8900" stop-opacity="0"/>
</linearGradient>
<radialGradient id="paint8_radial_1076_196793" cx="0" cy="0" r="1" gradientUnits="userSpaceOnUse" gradientTransform="translate(21.134 29.7389) rotate(-134.17) scale(5.25587 5.41523)">
<stop offset="0.00134333" stop-color="#FFBC47"/>
<stop offset="0.2941" stop-color="#FFBF4B" stop-opacity="0.7068"/>
<stop offset="0.5624" stop-color="#FEC656" stop-opacity="0.4382"/>
<stop offset="0.8201" stop-color="#FCD368" stop-opacity="0.1801"/>
<stop offset="1" stop-color="#FBE07A" stop-opacity="0"/>
</radialGradient>
<radialGradient id="paint9_radial_1076_196793" cx="0" cy="0" r="1" gradientUnits="userSpaceOnUse" gradientTransform="translate(20.9428 29.9358) rotate(-134.17) scale(5.09391 5.24836)">
<stop offset="0.00134333" stop-color="white"/>
<stop offset="1" stop-color="white" stop-opacity="0"/>
</radialGradient>
<radialGradient id="paint10_radial_1076_196793" cx="0" cy="0" r="1" gradientUnits="userSpaceOnUse" gradientTransform="translate(23.3689 30.642) rotate(-134.17) scale(6.25751 9.24891)">
<stop offset="0.00134333" stop-color="#FFED1C" stop-opacity="0.6"/>
<stop offset="0.9477" stop-color="#FFED1C" stop-opacity="0.0264782"/>
<stop offset="0.9914" stop-color="#FFED1C" stop-opacity="0"/>
</radialGradient>
<radialGradient id="paint11_radial_1076_196793" cx="0" cy="0" r="1" gradientUnits="userSpaceOnUse" gradientTransform="translate(21.019 29.8936) rotate(-43.556) scale(2.50804 1.60745)">
<stop offset="0.00134333" stop-color="white"/>
<stop offset="1" stop-color="white" stop-opacity="0"/>
</radialGradient>
<radialGradient id="paint12_radial_1076_196793" cx="0" cy="0" r="1" gradientUnits="userSpaceOnUse" gradientTransform="translate(12.6009 36.9518) rotate(-134.17) scale(2.24482 2.84936)">
<stop offset="0.00134333" stop-color="#FFED1C"/>
<stop offset="0.1997" stop-color="#FFEE2B" stop-opacity="0.8013"/>
<stop offset="0.5839" stop-color="#FFF254" stop-opacity="0.4167"/>
<stop offset="1" stop-color="#FFF686" stop-opacity="0"/>
</radialGradient>
<radialGradient id="paint13_radial_1076_196793" cx="0" cy="0" r="1" gradientUnits="userSpaceOnUse" gradientTransform="translate(16.1714 38.5972) rotate(162.118) scale(2.14498 0.444402)">
<stop offset="0.00134333" stop-color="#FFED1C" stop-opacity="0.6"/>
<stop offset="0.9477" stop-color="#FFED1C" stop-opacity="0.0264782"/>
<stop offset="0.9914" stop-color="#FFED1C" stop-opacity="0"/>
</radialGradient>
<radialGradient id="paint14_radial_1076_196793" cx="0" cy="0" r="1" gradientUnits="userSpaceOnUse" gradientTransform="translate(14.6566 39.6297) rotate(-41.843) scale(2.06792 0.659389)">
<stop offset="0.00134333" stop-color="#FFED1C"/>
<stop offset="0.1997" stop-color="#FFEE2B" stop-opacity="0.8013"/>
<stop offset="0.5839" stop-color="#FFF254" stop-opacity="0.4167"/>
<stop offset="1" stop-color="#FFF686" stop-opacity="0"/>
</radialGradient>
<radialGradient id="paint15_radial_1076_196793" cx="0" cy="0" r="1" gradientUnits="userSpaceOnUse" gradientTransform="translate(12.6945 37.5735) rotate(-134.17) scale(7.00451 8.89087)">
<stop offset="0.00134333" stop-color="#FF4C00"/>
<stop offset="0.135" stop-color="#FF5B0C" stop-opacity="0.8661"/>
<stop offset="0.3941" stop-color="#FF842C" stop-opacity="0.6067"/>
<stop offset="0.7491" stop-color="#FFC45F" stop-opacity="0.2512"/>
<stop offset="1" stop-color="#FFF686" stop-opacity="0"/>
</radialGradient>
<radialGradient id="paint16_radial_1076_196793" cx="0" cy="0" r="1" gradientUnits="userSpaceOnUse" gradientTransform="translate(15.4958 30.1197) rotate(-134.17) scale(3.71788 4.71913)">
<stop offset="0.00134333" stop-color="#FFED1C"/>
<stop offset="0.1997" stop-color="#FFEE2B" stop-opacity="0.8013"/>
<stop offset="0.5839" stop-color="#FFF254" stop-opacity="0.4167"/>
<stop offset="1" stop-color="#FFF686" stop-opacity="0"/>
</radialGradient>
<radialGradient id="paint17_radial_1076_196793" cx="0" cy="0" r="1" gradientUnits="userSpaceOnUse" gradientTransform="translate(20.9393 30.2935) rotate(-134.17) scale(7.77454 9.86829)">
<stop offset="0.00134333" stop-color="#FFED1C"/>
<stop offset="0.1997" stop-color="#FFEE2B" stop-opacity="0.8013"/>
<stop offset="0.5839" stop-color="#FFF254" stop-opacity="0.4167"/>
<stop offset="1" stop-color="#FFF686" stop-opacity="0"/>
</radialGradient>
<linearGradient id="paint18_linear_1076_196793" x1="22.8879" y1="35.5938" x2="31.4492" y2="26.6248" gradientUnits="userSpaceOnUse">
<stop stop-color="#BD2719"/>
<stop offset="0.2151" stop-color="#D41A10"/>
<stop offset="0.5049" stop-color="#EC0C07"/>
<stop offset="0.774" stop-color="#FA0302"/>
<stop offset="1" stop-color="#FF0000"/>
</linearGradient>
<linearGradient id="paint19_linear_1076_196793" x1="27.7161" y1="31.2741" x2="25.0375" y2="33.8298" gradientUnits="userSpaceOnUse">
<stop stop-color="#FC8D41"/>
<stop offset="0.0900324" stop-color="#FC7837"/>
<stop offset="0.294" stop-color="#FD4D24"/>
<stop offset="0.4922" stop-color="#FE2C14"/>
<stop offset="0.6802" stop-color="#FF1409"/>
<stop offset="0.854" stop-color="#FF0502"/>
<stop offset="1" stop-color="#FF0000"/>
</linearGradient>
<radialGradient id="paint20_radial_1076_196793" cx="0" cy="0" r="1" gradientUnits="userSpaceOnUse" gradientTransform="translate(21.6904 34.4299) rotate(45.8303) scale(11.3983 11.3935)">
<stop offset="0.00134333" stop-color="#FFED1C"/>
<stop offset="0.1997" stop-color="#FFEE2B" stop-opacity="0.8013"/>
<stop offset="0.5839" stop-color="#FFF254" stop-opacity="0.4167"/>
<stop offset="1" stop-color="#FFF686" stop-opacity="0"/>
</radialGradient>
<linearGradient id="paint21_linear_1076_196793" x1="27.9091" y1="28.3539" x2="41.2062" y2="13.3822" gradientUnits="userSpaceOnUse">
<stop stop-color="#BD2719"/>
<stop offset="0.2151" stop-color="#D41A10"/>
<stop offset="0.5049" stop-color="#EC0C07"/>
<stop offset="0.774" stop-color="#FA0302"/>
<stop offset="1" stop-color="#FF0000"/>
</linearGradient>
<linearGradient id="paint22_linear_1076_196793" x1="14.9012" y1="24.8957" x2="22.828" y2="21.1166" gradientUnits="userSpaceOnUse">
<stop stop-color="#BD2719"/>
<stop offset="0.2151" stop-color="#D41A10"/>
<stop offset="0.5049" stop-color="#EC0C07"/>
<stop offset="0.774" stop-color="#FA0302"/>
<stop offset="1" stop-color="#FF0000"/>
</linearGradient>
<linearGradient id="paint23_linear_1076_196793" x1="19.3768" y1="22.556" x2="16.8276" y2="25.4995" gradientUnits="userSpaceOnUse">
<stop stop-color="#FC8D41"/>
<stop offset="0.0900324" stop-color="#FC7837"/>
<stop offset="0.294" stop-color="#FD4D24"/>
<stop offset="0.4922" stop-color="#FE2C14"/>
<stop offset="0.6802" stop-color="#FF1409"/>
<stop offset="0.854" stop-color="#FF0502"/>
<stop offset="1" stop-color="#FF0000"/>
</linearGradient>
<radialGradient id="paint24_radial_1076_196793" cx="0" cy="0" r="1" gradientUnits="userSpaceOnUse" gradientTransform="translate(20.5746 29.834) rotate(45.8303) scale(12.26 12.2549)">
<stop offset="0.00134333" stop-color="#FFED1C"/>
<stop offset="0.1997" stop-color="#FFEE2B" stop-opacity="0.8013"/>
<stop offset="0.5839" stop-color="#FFF254" stop-opacity="0.4167"/>
<stop offset="1" stop-color="#FFF686" stop-opacity="0"/>
</radialGradient>
<linearGradient id="paint25_linear_1076_196793" x1="25.7437" y1="20.8831" x2="13.0977" y2="21.4575" gradientUnits="userSpaceOnUse">
<stop stop-color="#BD2719"/>
<stop offset="0.2151" stop-color="#D41A10"/>
<stop offset="0.5049" stop-color="#EC0C07"/>
<stop offset="0.774" stop-color="#FA0302"/>
<stop offset="1" stop-color="#FF0000"/>
</linearGradient>
<linearGradient id="paint26_linear_1076_196793" x1="30.319" y1="15.3035" x2="35.555" y2="20.3899" gradientUnits="userSpaceOnUse">
<stop stop-color="#BBCACC"/>
<stop offset="0.3717" stop-color="white"/>
<stop offset="1" stop-color="#99AFB3"/>
</linearGradient>
<linearGradient id="paint27_linear_1076_196793" x1="38.9425" y1="14.9493" x2="36.0708" y2="11.329" gradientUnits="userSpaceOnUse">
<stop stop-color="#008EE6"/>
<stop offset="0.688" stop-color="#80DAFE"/>
<stop offset="0.7325" stop-color="#76D5FB"/>
<stop offset="0.8071" stop-color="#5CC8F3"/>
<stop offset="0.9026" stop-color="#32B2E6"/>
<stop offset="1" stop-color="#0099D6"/>
</linearGradient>
<linearGradient id="paint28_linear_1076_196793" x1="29.1969" y1="26.6447" x2="23.2476" y2="20.8963" gradientUnits="userSpaceOnUse">
<stop stop-color="#008EE6"/>
<stop offset="0.688" stop-color="#80DAFE"/>
<stop offset="0.7325" stop-color="#76D5FB"/>
<stop offset="0.8071" stop-color="#5CC8F3"/>
<stop offset="0.9026" stop-color="#32B2E6"/>
<stop offset="1" stop-color="#0099D6"/>
</linearGradient>
<radialGradient id="paint29_radial_1076_196793" cx="0" cy="0" r="1" gradientUnits="userSpaceOnUse" gradientTransform="translate(25.2712 28.6081) rotate(45.8303) scale(5.58381 10.2157)">
<stop stop-opacity="0.75"/>
<stop offset="1" stop-opacity="0"/>
</radialGradient>
<radialGradient id="paint30_radial_1076_196793" cx="0" cy="0" r="1" gradientUnits="userSpaceOnUse" gradientTransform="translate(31.6829 27.2737) rotate(45.8303) scale(5.58381 10.2157)">
<stop stop-opacity="0.75"/>
<stop offset="1" stop-opacity="0"/>
</radialGradient>
<linearGradient id="paint31_linear_1076_196793" x1="21.7089" y1="25.0413" x2="25.47" y2="29.8388" gradientUnits="userSpaceOnUse">
<stop/>
<stop offset="0.1962" stop-color="#4D4D4C"/>
<stop offset="0.7655"/>
</linearGradient>
<linearGradient id="paint32_linear_1076_196793" x1="21.7089" y1="25.0413" x2="25.47" y2="29.8388" gradientUnits="userSpaceOnUse">
<stop stop-opacity="0"/>
<stop offset="0.1975" stop-color="#CFDCDE" stop-opacity="0.5"/>
<stop offset="0.7655" stop-opacity="0"/>
</linearGradient>
<linearGradient id="paint33_linear_1076_196793" x1="29.305" y1="13.3989" x2="37.646" y2="15.249" gradientUnits="userSpaceOnUse">
<stop stop-color="#BBCACC"/>
<stop offset="0.3717" stop-color="white"/>
<stop offset="1" stop-color="#99AFB3"/>
</linearGradient>
<radialGradient id="paint34_radial_1076_196793" cx="0" cy="0" r="1" gradientUnits="userSpaceOnUse" gradientTransform="translate(31.7746 24.1268) rotate(45.0645) scale(3.6013 11.6663)">
<stop stop-color="#440063" stop-opacity="0.75"/>
<stop offset="1" stop-color="#420061" stop-opacity="0"/>
</radialGradient>
<linearGradient id="paint35_linear_1076_196793" x1="21.2685" y1="30.6236" x2="30.9872" y2="24.5363" gradientUnits="userSpaceOnUse">
<stop stop-color="#BD2719"/>
<stop offset="0.2151" stop-color="#D41A10"/>
<stop offset="0.5049" stop-color="#EC0C07"/>
<stop offset="0.774" stop-color="#FA0302"/>
<stop offset="1" stop-color="#FF0000"/>
</linearGradient>
<linearGradient id="paint36_linear_1076_196793" x1="19.7165" y1="30.9584" x2="24.7501" y2="27.2355" gradientUnits="userSpaceOnUse">
<stop stop-color="#BD2719"/>
<stop offset="0.2151" stop-color="#D41A10"/>
<stop offset="0.5049" stop-color="#EC0C07"/>
<stop offset="0.774" stop-color="#FA0302"/>
<stop offset="1" stop-color="#FF0000"/>
</linearGradient>
<linearGradient id="paint37_linear_1076_196793" x1="24.4053" y1="27.7063" x2="21.5076" y2="30.3355" gradientUnits="userSpaceOnUse">
<stop stop-color="#FC8D41"/>
<stop offset="0.0900324" stop-color="#FC7837"/>
<stop offset="0.294" stop-color="#FD4D24"/>
<stop offset="0.4922" stop-color="#FE2C14"/>
<stop offset="0.6802" stop-color="#FF1409"/>
<stop offset="0.854" stop-color="#FF0502"/>
<stop offset="1" stop-color="#FF0000"/>
</linearGradient>
<linearGradient id="paint38_linear_1076_196793" x1="24.3125" y1="29.5871" x2="27.8331" y2="19.8" gradientUnits="userSpaceOnUse">
<stop stop-color="#BD2719"/>
<stop offset="0.2151" stop-color="#D41A10"/>
<stop offset="0.5049" stop-color="#EC0C07"/>
<stop offset="0.774" stop-color="#FA0302"/>
<stop offset="1" stop-color="#FF0000"/>
</linearGradient>
<linearGradient id="paint39_linear_1076_196793" x1="21.2685" y1="30.6236" x2="30.9872" y2="24.5363" gradientUnits="userSpaceOnUse">
<stop stop-color="#BD2719"/>
<stop offset="0.2151" stop-color="#D41A10"/>
<stop offset="0.5049" stop-color="#EC0C07"/>
<stop offset="0.774" stop-color="#FA0302"/>
<stop offset="1" stop-color="#FF0000"/>
</linearGradient>
<radialGradient id="paint40_radial_1076_196793" cx="0" cy="0" r="1" gradientUnits="userSpaceOnUse" gradientTransform="translate(21.1865 29.7616) rotate(-39.8648) scale(8.5646 2.88813)">
<stop offset="0.00134333" stop-color="#FFED1C"/>
<stop offset="0.1997" stop-color="#FFEE2B" stop-opacity="0.8013"/>
<stop offset="0.5839" stop-color="#FFF254" stop-opacity="0.4167"/>
<stop offset="1" stop-color="#FFF686" stop-opacity="0"/>
</radialGradient>
<radialGradient id="paint41_radial_1076_196793" cx="0" cy="0" r="1" gradientUnits="userSpaceOnUse" gradientTransform="translate(29.3189 18.1682) rotate(45.0645) scale(3.6013 11.6663)">
<stop stop-color="white" stop-opacity="0.5"/>
<stop offset="1" stop-color="white" stop-opacity="0"/>
</radialGradient>
<radialGradient id="paint42_radial_1076_196793" cx="0" cy="0" r="1" gradientUnits="userSpaceOnUse" gradientTransform="translate(28.5309 26.5292) rotate(44.6945) scale(0.874235 4.20079)">
<stop stop-color="#440063" stop-opacity="0.75"/>
<stop offset="1" stop-color="#420061" stop-opacity="0"/>
</radialGradient>
<linearGradient id="paint43_linear_1076_196793" x1="30.7031" y1="19.6205" x2="33.5019" y2="13.7656" gradientUnits="userSpaceOnUse">
<stop stop-color="#BD2719"/>
<stop offset="0.2151" stop-color="#D41A10"/>
<stop offset="0.5049" stop-color="#EC0C07"/>
<stop offset="0.774" stop-color="#FA0302"/>
<stop offset="1" stop-color="#FF0000"/>
</linearGradient>
<linearGradient id="paint44_linear_1076_196793" x1="32.6047" y1="13.9214" x2="31.0721" y2="18.8642" gradientUnits="userSpaceOnUse">
<stop stop-color="#FC8D41"/>
<stop offset="0.0900324" stop-color="#FC7837"/>
<stop offset="0.294" stop-color="#FD4D24"/>
<stop offset="0.4922" stop-color="#FE2C14"/>
<stop offset="0.6802" stop-color="#FF1409"/>
<stop offset="0.854" stop-color="#FF0502"/>
<stop offset="1" stop-color="#FF0000"/>
</linearGradient>
<radialGradient id="paint45_radial_1076_196793" cx="0" cy="0" r="1" gradientUnits="userSpaceOnUse" gradientTransform="translate(31.1286 16.4361) rotate(45.8263) scale(4.76385 4.76154)">
<stop stop-color="#512D00"/>
<stop offset="1"/>
</radialGradient>
<radialGradient id="paint46_radial_1076_196793" cx="0" cy="0" r="1" gradientUnits="userSpaceOnUse" gradientTransform="translate(32.0425 15.4795) scale(4.11846 4.23959)">
<stop offset="0.4873" stop-color="#F5CBC0" stop-opacity="0"/>
<stop offset="1" stop-color="#E67E62"/>
</radialGradient>
<linearGradient id="paint47_linear_1076_196793" x1="31.6611" y1="14.8825" x2="31.847" y2="11.6782" gradientUnits="userSpaceOnUse">
<stop stop-color="#BD2719"/>
<stop offset="0.0422031" stop-color="#B42717"/>
<stop offset="0.257" stop-color="#89250F"/>
<stop offset="0.4654" stop-color="#682408"/>
<stop offset="0.6634" stop-color="#502304"/>
<stop offset="0.8464" stop-color="#412201"/>
<stop offset="1" stop-color="#3C2200"/>
</linearGradient>
<radialGradient id="paint48_radial_1076_196793" cx="0" cy="0" r="1" gradientUnits="userSpaceOnUse" gradientTransform="translate(26.2339 14.441) scale(5.58477 5.74903)">
<stop stop-color="white" stop-opacity="0.5"/>
<stop offset="1" stop-color="white" stop-opacity="0"/>
</radialGradient>
</defs>
</svg>
